<?xml version="1.0" encoding="utf-8"?>
<!-- Generator: Adobe Illustrator 27.6.1, SVG Export Plug-In . SVG Version: 6.00 Build 0)  -->
<svg version="1.1" id="Layer_1" xmlns="http://www.w3.org/2000/svg" xmlns:xlink="http://www.w3.org/1999/xlink" x="0px" y="0px"
	 viewBox="0 0 1280 1280" style="enable-background:new 0 0 1280 1280;" xml:space="preserve">
<style type="text/css">
	.st0{fill:#713928;}
	.st1{fill:#B35725;}
	.st2{fill:#EB2000;}
	.st3{fill:#FF884D;}
	.st4{fill:#FFCF57;}
</style>
<g transform="translate(0.000000,1280.000000) scale(0.100000,-0.100000)">
	<path class="st0" d="M9665,3254c-346-57-781-124-965-149c-677-92-1035-163-1440-284c-192-58-422-143-413-152c11-10,304-98,529-159
		c507-136,1295-295,1634-331l105-11l850,186c468,102,857,190,865,195c22,12,59,123,66,199c8,79-12,168-54,246
		c-38,72-154,182-249,238c-74,44-269,129-289,127C10299,3358,10012,3311,9665,3254z"/>
	<path class="st0" d="M2444,3061c-253-215-356-426-340-691c8-123,36-261,56-271c8-4,143-19,299-34c722-67,1414-168,1807-265
		c225-55,389-110,837-276c608-226,860-295,1297-353c124-17,331-44,460-61s496-69,815-115s661-93,760-105c225-26,283-40,591-140
		c268-88,517-155,616-166c61-7,61-7,54,17c-99,352-99,525,1,729c27,56,57,95,117,155c87,86,165,137,290,188c57,23,81,38,88,56
		c5,13,5,27,1,31s-82,12-173,19c-527,37-1425,197-2565,456c-355,81-452,107-909,245c-382,115-537,157-728,195
		c-197,41-733,116-2258,320c-476,63-889,120-919,125C2540,3138,2532,3136,2444,3061z"/>
	<path class="st0" d="M2963,1597c-211-61-383-114-383-117c1-3,43-29,94-59c235-135,389-323,432-531c31-145,10-387-50-585
		c-8-27-13-51-11-53c2-3,515,200,1140,450l1136,455l-403,150c-712,266-970,342-1321,388C3390,1722,3389,1722,2963,1597z"/>
	<path class="st1" d="M10520,1614c-239-46-452-232-531-464c-27-81-36-229-19-327c16-98,66-197,124-251c91-84,205-117,366-109
		c227,11,429,137,525,329c46,93,59,162,52,288c-13,239-110,426-262,501c-53,26-78,32-147,34C10582,1617,10534,1616,10520,1614z"/>
	<path class="st1" d="M2165,1289c-90-8-187-38-254-77c-113-66-205-202-236-349c-19-89-19-270,0-352c35-146,130-268,258-330
		c89-44,166-61,297-68c330-16,535,115,607,387c23,89,24,311,0,397c-35,133-109,240-208,304c-63,40-178,77-266,84c-37,3-79,7-93,9
		C2256,1295,2209,1293,2165,1289z"/>
	<g>
		<path class="st2" d="M9492.1,5628.2c3.8-1641.1-1642-2509-3205.1-2418.4c-1931.8,112.1-2836.9,1330-2966.5,2746.3
			c-105.7,1156,471.9,2268.1,1076.4,2897.6c-21.1-251.8,1.1-519.2,139.1-730.9c138-211.7,417-345.9,652.6-254.5
			c298.7,115.9,380.7,513.8,302.8,824.6c-77.9,310.9-265.1,586-340.3,897.5c-122.2,506.2,74.6,1051.6,415.3,1445.3
			c340.7,393.7,809.2,655.4,1289,857.6c-288.5-338.3-326.8-866.8-89.9-1243.1c226.3-359.5,640.8-546.1,961.7-824.4
			C8267,9357.5,8527,8538,8221.5,7892.2c-82.5-174.3-200.6-329.8-283.1-504c-82.5-174.2-127.1-380.8-53.4-558.9
			c73.8-178.1,299.6-298.5,469.4-207.3c196.4,105.4,199.4,420.2,86.7,724.5C9109.2,7096,9490.4,6348.1,9492.1,5628.2z"/>
	</g>
	<g>
		<path class="st3" d="M8358.4,4413.9c-239.3-474.2-669.6-840.1-1161.3-1041c-51.9-21.2-104.5-40.7-157.6-58.4
			c-535.1-178.5-1122.2-130.1-1613.4,147.3c-367.2,207.4-704.9,550.9-919.5,1133.4c-222.9,605-95.8,1456.3,245.7,1972.3
			c2.5-257.2,278.5-455.2,534.4-429.6c255.9,25.5,469.1,226,575,460.3c105.9,234.3,121.7,498.7,119.6,755.9
			c-2,257.2-20,516.6,24.5,769.8c44.5,253.3,199,652.6,456.3,879.7c-239.4-467.5-44.1-927.2,199.1-1314.7s556.3-522.6,721.3-1185.3
			c115.8-465-118-910.5,349.5-1035.2c360.5-96.1,641.1,325,623.3,570.2C8574.5,5554.8,8597.6,4888.1,8358.4,4413.9z"/>
	</g>
	<g>
		<path class="st4" d="M7304.2,3655.6c-213.5-294.5-498.2-458.5-982.4-439.1c-499.8,20.1-798.1,302-1005.9,693.9
			c-184.2,347.3-209.7,784.5-122.8,1156.9c161.7-307,381-431.9,680.3-472.3c-287.4,507.9-46.9,1416.2,612.6,1897.1
			c-131.6-205.1-104.5-465.7,4.1-681.1c108.6-215.3,288.9-395.2,465-572.7c176.1-177.4,353.5-360.4,454.3-578.6
			C7558.9,4336.2,7517.7,3950,7304.2,3655.6z"/>
	</g>
</g>
</svg>
