<?xml version="1.0" encoding="utf-8"?>
<!-- Generator: Adobe Illustrator 27.6.1, SVG Export Plug-In . SVG Version: 6.00 Build 0)  -->
<svg version="1.1" id="Layer_1" xmlns="http://www.w3.org/2000/svg" xmlns:xlink="http://www.w3.org/1999/xlink" x="0px" y="0px"
	 viewBox="0 0 300 300" style="enable-background:new 0 0 300 300;" xml:space="preserve">
<style type="text/css">
	.st0{fill:none;stroke:#000000;stroke-width:10;stroke-linecap:round;stroke-linejoin:round;stroke-miterlimit:10;}
</style>
<path class="st0" d="M149.6,3.5c-2.5,5.7-77.7,179.6-85.8,197.2"/>
<path class="st0" d="M149.2,3c-2.8,0.3-5,1.7-6.9,3.9c-7.3,8.4-120.4,136-127.1,143c-3,3.2-4.4,6.7-4.4,11.1
	c0.1,7.3,0.4,14.5,0.1,21.8c-0.2,4.6,1.1,8.6,5.2,11.6c9.1,6.8,109.9,85.8,125.7,97.9c7.3,5.6,9.5,6,17.6-0.2
	c21.3-16.5,121.2-94.3,126.2-98.3c2.8-2.3,4.2-5.3,4.2-9.1c-0.1-8.5-0.1-16.9,0-25.4c0-2.9-0.9-5.4-2.6-7.4
	c-5.8-6.7-116.6-131.3-127-143.1c-2.9-3.2-5.9-6.2-10.8-5.8"/>
<path class="st0" d="M63.1,200.7c-12.5-3.2-46.2-10.9-51.3-12.5"/>
<path class="st0" d="M63.1,200.7c4.4,2.5,84.9,47.2,87.2,48.5"/>
<path class="st0" d="M150.4,3.5c4.6,10.5,83.1,190.6,84.5,194.2c1.1,2.8,2.1,3,5.5,2c13.4-3.4,34.6-7.8,48.5-11.5"/>
<path class="st0" d="M236.8,200.7c-14.4,8-84.4,47.4-85.5,47.9c-1,0.5-1.2,1.3-1.1,2.2c0.1,12.2,0.7,40.1,0.8,45.2"/>
<g>
	<g>
		<path d="M148.6,190c-4,0-7.6-0.9-10.6-2.7c-3-1.8-5.5-4.3-7.5-7.4c-2-3.1-3.5-6.5-4.4-10.4c-1-3.8-1.5-7.8-1.5-11.8
			c0-4.2,0.5-8.3,1.6-12.3s2.7-7.6,4.8-10.8s4.8-5.8,7.9-7.6c3.1-1.9,6.7-2.8,10.8-2.8c5,0,9.2,1.4,12.7,4.1
			c3.4,2.8,6.1,6.5,7.8,11.3c1.8,4.8,2.7,10.2,2.7,16.3c0,4.6-0.5,9-1.6,13.1c-1,4.1-2.6,7.8-4.6,10.9c-2,3.1-4.6,5.6-7.6,7.4
			C156.2,189.1,152.6,190,148.6,190z M150.6,182.7c1.2,0,2.4-0.2,3.6-0.7c1.8-1.8,3.1-4,4.1-6.8c1-2.8,1.7-5.8,2.2-9
			c0.5-3.2,0.7-6.1,0.7-8.9c0-3.3-0.3-6.5-0.8-9.6c-0.6-3.1-1.4-5.8-2.5-8.2s-2.6-4.4-4.2-5.8c-1.7-1.4-3.7-2.1-6.1-2.1
			c-0.6,0-1.2,0-1.9,0.1c-0.7,0.1-1.3,0.2-2,0.5c-1.7,1.6-3.1,3.9-4.1,6.7c-1,2.9-1.8,5.9-2.3,9c-0.5,3.2-0.7,6-0.7,8.5
			c0,2.7,0.3,5.5,0.8,8.5c0.5,3,1.3,5.9,2.4,8.6c1.1,2.7,2.5,4.9,4.3,6.6C145.8,181.9,148,182.7,150.6,182.7z"/>
	</g>
</g>
</svg>
