<?xml version="1.0" encoding="utf-8"?>
<!-- Generator: Adobe Illustrator 27.6.1, SVG Export Plug-In . SVG Version: 6.00 Build 0)  -->
<svg version="1.1" id="Layer_1" xmlns="http://www.w3.org/2000/svg" xmlns:xlink="http://www.w3.org/1999/xlink" x="0px" y="0px"
	 viewBox="0 0 300 300" style="enable-background:new 0 0 300 300;" xml:space="preserve">
<style type="text/css">
	.st0{fill:none;stroke:#000000;stroke-width:10;stroke-linecap:round;stroke-linejoin:round;stroke-miterlimit:10;}
</style>
<path class="st0" d="M151.2,58.1c-11.2,8.1-73.1,52.4-83.1,59.8c-3.1,2.3-6,3.3-10,1.8c-9.8-3.5-45.5-15-47.9-15.7"/>
<path class="st0" d="M150,2.2c-2.6-0.2-4.9,1-7.3,1.8C123,10.4,74.7,26.4,70.1,27.5c-5.1,1.3-8.7,4.4-11.8,8.7
	C43.2,57.5,27.9,78.6,12.5,99.6c-2,2.8-2.9,5.5-2.9,8.9c0,27.2,0.1,54.4,0,81.6c0,3.8,1,7,3.2,10C28,220.8,43.1,241.5,58,262.4
	c3.9,5.4,9.8,8.4,15.3,10.7c5.5,2.3,61.8,19.7,72,23c3.5,1.1,7,1,10.6-0.2c12.2-4.2,63.1-20.8,76.3-25c3.2-1,5.7-2.6,7.6-5.3
	c15.1-21,46.9-64.6,47.5-65.5c2.2-3.3,3.7-6.6,3.6-10.9c-0.2-18.6-0.3-59.5,0-79.3c0.2-4.3-1.2-7.9-3.6-11.1
	c-16-21.4-31.6-43.2-47.2-64.9c-2.2-3.1-5.2-4.8-8.8-5.9c-15.4-4.9-67.6-22.2-78.4-25.5c-0.8-0.3-1.8-0.2-2.6-0.3"/>
<path class="st0" d="M289.9,104.1c-8.6,3.1-40.8,13.5-49.2,16.1c-2.7,0.8-4.2,2.3-5,4.8c-4.7,14.8-26.4,81.8-32.3,99.1"/>
<path class="st0" d="M236.9,267.7c-7.5-10.2-23.4-30.4-30.6-40.9c-1.6-2.4-3.8-3.3-6.8-3.3c-7.4,0.1-102-0.3-103.7-0.3"/>
<path class="st0" d="M62.4,120.4c0.4,4.1,21,63.2,26.2,79.1c2.1,6.6,4.3,13.1,6.5,19.7c1,2.9,1,5.3-1.1,8
	c-7.7,9.8-29.5,39.6-30,40.5"/>
<path class="st0" d="M149.6,2.8c0,9.3,0,35.1,0.4,48.5c0.4,6,0.6,7.5,4.8,10.4c15.9,11,76.3,55.2,82.1,59.5"/>
<g>
	<g>
		<path d="M105,134.8l-3.1-5.3l22-14l1.6,3.3l-2.9,8.2L105,134.8z M103.9,185l-0.6-3.4c1.7-0.8,3.4-1.5,5.2-2.1
			c1.8-0.7,3.6-1.3,5.5-1.8c1.9-0.6,3.8-1,5.8-1.5l-1.1,8.8H103.9z M117.5,185v-64.5l12.1-1.5V185H117.5z M120.8,122.5l3-6.9
			l5.8,3.5L120.8,122.5z M127.7,185l0.1-7.3l14.5,2.1l-0.5,5.2H127.7z"/>
		<path d="M149.8,185l-2-7.6l20.2-22.4c3-3.2,5.4-6.1,7.2-8.7c1.8-2.5,3.1-4.8,3.9-6.8c0.8-2,1.2-3.9,1.2-5.6c0-1.7-0.3-3.3-1-4.9
			c-0.7-1.6-1.8-2.9-3.4-3.9c-1.6-1-3.7-1.6-6.3-1.6c-1.7,0-3.7,0.3-6.3,0.8c-2.5,0.5-5,1.2-7.4,2.1l-6.4-4.1
			c3.5-2.1,7.4-3.8,11.7-5.1c4.3-1.2,8.2-1.8,11.8-1.7c3.9,0.1,7.3,1,10.3,2.7c3,1.7,5.4,4,7.2,6.8c1.8,2.8,2.7,6,2.7,9.5
			c0,2.7-0.5,5.3-1.6,7.7c-1.1,2.5-2.7,5-4.8,7.7s-4.8,5.7-7.9,9.1l-16.5,17.4l0.3,0.8l30.2-2.7V185H149.8z M158.4,139.6l-7.8-0.1
			c-0.2-1.3-0.4-2.7-0.6-4.1c-0.2-1.5-0.4-2.9-0.5-4.5c-0.1-1.5-0.2-3-0.2-4.5s0-2.8,0.1-4.1l12.1,0.9L158.4,139.6z M193.6,185
			l-11.3-3.3l8-16.5l6.3,1.2c-0.2,3-0.6,6.2-1.1,9.6C194.9,179.4,194.3,182.4,193.6,185z"/>
	</g>
</g>
</svg>
