<?xml version="1.0" encoding="utf-8"?>
<!-- Generator: Adobe Illustrator 27.6.1, SVG Export Plug-In . SVG Version: 6.00 Build 0)  -->
<svg version="1.1" id="Layer_1" xmlns="http://www.w3.org/2000/svg" xmlns:xlink="http://www.w3.org/1999/xlink" x="0px" y="0px"
	 viewBox="0 0 300 300" style="enable-background:new 0 0 300 300;" xml:space="preserve">
<style type="text/css">
	.st0{fill:none;stroke:#000000;stroke-width:10;stroke-linecap:round;stroke-linejoin:round;stroke-miterlimit:10;}
</style>
<path class="st0" d="M150.2,3.3c0.7,9.6,1.5,26.6,2.2,39.2"/>
<path class="st0" d="M54.1,210.2c-6.9,2.8-23.4,10.5-30.3,13.3"/>
<path class="st0" d="M277.3,78.7c-1.5,6.7-26.6,123.4-28.7,132.7"/>
<path class="st0" d="M149.2,3.4C142,6.5,29.3,72.1,28.6,72.5c-4.8,2.5-7.2,6.5-7,12c0.2,6.4,0,96.1,0,132.2c0,5.3,1.9,9.3,6.7,12
	c10.5,5.9,108.2,62.4,116.7,67.4c3.6,2.1,7.1,2.2,10.6,0.2c7.3-4.1,108.9-63.1,117-67.6c4.5-2.5,6.4-6,6.4-11.2
	c-0.1-44.4-0.1-88.7,0-133.1c0-5.8-2.3-9.5-7.1-12.3C257.6,64,163.2,9.7,154.7,4.8c-1.6-0.9-3.3-1.7-5.3-1.4"/>
<path class="st0" d="M277.3,223.5c-6.5-2.8-21.4-8.7-27.9-11.6c-1.1-0.5-1.8,0-2.5,0.6c-6.6,5.8-94.1,83.5-96,84.9"/>
<path class="st0" d="M23.8,78c1.5,5.9,29.6,127.8,30.3,131.5"/>
<path class="st0" d="M152.4,42.5c0.7,1.5,93.1,165.5,95.3,169.2"/>
<path class="st0" d="M276.5,78c-7.1-2.1-122.2-33.3-124.1-35.5C141,46.2,28.9,75.7,23.8,77.2"/>
<path class="st0" d="M247.7,211.7c-12.3,0-188.6-1.6-192.1-1.5"/>
<path class="st0" d="M152.4,42.5C148.6,49.1,67.3,188,55.6,208c-1.7,2.2-0.7,3,0.7,3.7c11.1,10.3,91.6,83.5,93.8,85.7"/>
<g>
	<g>
		<path d="M114.2,183.8l-1.5-5.7l15.1-16.8c2.2-2.4,4-4.6,5.4-6.5c1.3-1.9,2.3-3.6,2.9-5.1c0.6-1.5,0.9-2.9,0.9-4.2
			c0-1.2-0.3-2.5-0.8-3.6c-0.5-1.2-1.4-2.2-2.6-2.9c-1.2-0.8-2.8-1.2-4.7-1.2c-1.2,0-2.8,0.2-4.7,0.6c-1.9,0.4-3.7,0.9-5.5,1.6
			l-4.8-3.1c2.6-1.6,5.6-2.9,8.8-3.8c3.2-0.9,6.2-1.3,8.8-1.2c2.9,0.1,5.5,0.7,7.7,2c2.2,1.3,4,3,5.4,5.1c1.3,2.1,2,4.5,2,7.1
			c0,2-0.4,3.9-1.2,5.8c-0.8,1.8-2,3.8-3.6,5.8c-1.6,2-3.6,4.3-5.9,6.8l-12.3,13l0.2,0.6l22.6-2v7.7H114.2z M120.7,149.9l-5.8-0.1
			c-0.2-1-0.3-2-0.5-3.1c-0.2-1.1-0.3-2.2-0.3-3.3c-0.1-1.1-0.1-2.2-0.1-3.3c0-1.1,0-2.1,0.1-3.1l9.1,0.7L120.7,149.9z M147,183.8
			l-8.5-2.5l6-12.3l4.7,0.9c-0.2,2.2-0.4,4.6-0.9,7.2C148,179.7,147.5,181.9,147,183.8z"/>
		<path d="M175.4,184.8c-3.2,0-6-0.7-8.4-2.2c-2.4-1.4-4.4-3.4-6-5.9c-1.6-2.5-2.8-5.2-3.5-8.3s-1.2-6.2-1.2-9.4
			c0-3.4,0.4-6.6,1.3-9.8c0.9-3.2,2.1-6.1,3.8-8.6s3.8-4.6,6.3-6.1c2.5-1.5,5.4-2.2,8.6-2.2c4,0,7.3,1.1,10.1,3.3
			c2.7,2.2,4.8,5.2,6.2,9c1.4,3.8,2.1,8.1,2.1,13c0,3.7-0.4,7.2-1.2,10.4c-0.8,3.3-2.1,6.2-3.7,8.7c-1.6,2.5-3.6,4.4-6.1,5.9
			C181.4,184.1,178.6,184.8,175.4,184.8z M176.9,179c0.9,0,1.9-0.2,2.9-0.5c1.4-1.4,2.5-3.2,3.3-5.4c0.8-2.2,1.4-4.6,1.7-7.1
			c0.4-2.5,0.5-4.9,0.5-7.1c0-2.6-0.2-5.2-0.7-7.6c-0.4-2.4-1.1-4.6-2-6.6c-0.9-1.9-2-3.5-3.4-4.6c-1.3-1.1-3-1.7-4.9-1.7
			c-0.5,0-1,0-1.5,0.1c-0.5,0.1-1.1,0.2-1.6,0.4c-1.3,1.3-2.4,3.1-3.3,5.4c-0.8,2.3-1.4,4.7-1.8,7.2c-0.4,2.5-0.6,4.8-0.6,6.8
			c0,2.1,0.2,4.4,0.6,6.8c0.4,2.4,1.1,4.7,1.9,6.8c0.9,2.1,2,3.9,3.5,5.2C173.1,178.3,174.9,179,176.9,179z"/>
	</g>
</g>
</svg>
