<?xml version="1.0" encoding="utf-8"?>
<!-- Generator: Adobe Illustrator 27.6.1, SVG Export Plug-In . SVG Version: 6.00 Build 0)  -->
<svg version="1.1" id="Layer_1" xmlns="http://www.w3.org/2000/svg" xmlns:xlink="http://www.w3.org/1999/xlink" x="0px" y="0px"
	 viewBox="0 0 300 300" style="enable-background:new 0 0 300 300;" xml:space="preserve">
<style type="text/css">
	.st0{fill:none;stroke:#000000;stroke-width:10;stroke-linecap:round;stroke-linejoin:round;stroke-miterlimit:10;}
</style>
<path class="st0" d="M291.7,280.9l-145.2-264"/>
<path class="st0" d="M147.1,15.9c-5.6,0.5-8.5,4.4-10.9,8.9C129.6,37,6.9,260.6,3.3,268.4c-3.7,8.1,0.5,15.5,10.1,16.4
	c7,0.7,184.6,0.4,266.4,0.3c3.6,0,7.5,0.3,10.9-1.1c5.8-2.4,6.8-7.8,7-13.4c0.7-27.3,0.2-54.6,0.3-81.9c0-6-2.7-10.6-6.6-14.9
	c-12.2-13.3-122.2-139.8-134-153.5c-2.6-3-5.9-4.7-9.9-4.6"/>
<g>
	<g>
		<path d="M110,196l-3.1-8l37.4-50.3l8.7,1.4l-2.9,12.2L146,148l-28.2,43.1l-3.3-3.8l53.9-1.4l0.2,7.1l-3.4,3H110z M129.3,215.7
			l-0.7-3.8c2.7-1.2,5.6-2.4,8.7-3.4c3.1-1,6.2-1.9,9.2-2.7l-1.3,9.9H129.3z M141.9,215.7v-53l1.6-14.8l-0.2-7l12-1.9v76.7H141.9z
			 M148.2,215.7l0.1-8.2l16.3,2.3l-0.6,5.8H148.2z"/>
	</g>
</g>
</svg>
