<?xml version="1.0" encoding="utf-8"?>
<!-- Generator: Adobe Illustrator 27.6.1, SVG Export Plug-In . SVG Version: 6.00 Build 0)  -->
<svg version="1.1" id="Layer_1" xmlns="http://www.w3.org/2000/svg" xmlns:xlink="http://www.w3.org/1999/xlink" x="0px" y="0px"
	 viewBox="0 0 300 300" style="enable-background:new 0 0 300 300;" xml:space="preserve">
<style type="text/css">
	.st0{fill:none;stroke:#000000;stroke-width:10;stroke-linecap:round;stroke-linejoin:round;stroke-miterlimit:10;}
</style>
<path class="st0" d="M293.2,5.9c-6,6.2-23.2,23-29.2,29.2"/>
<path class="st0" d="M268.2,294.5c0-26.7-0.9-235.7-0.7-251.1c0.1-6.7-5.1-11.3-11.8-11.1C247.9,32.4,9.1,32.8,5.6,33"/>
<path class="st0" d="M281.3,2.1c16.1-0.4,16.5,11.8,16.5,15.3c0,50.5-0.1,212,0.1,242.3c0,4-0.9,7.4-3.6,10.2
	c-7.3,7.6-14.2,15.6-22.3,22.5c-4,3.4-8.1,4.6-13,4.6c-28.1,0-239.5,0.4-244.3-0.2c-6.9-0.9-10.4-6-11.4-12
	C3.2,284.3,2.9,94.1,2.8,42.9c0-7.6,2.2-13.8,7.9-18.9C17.1,18.2,23.4,12.1,29.5,6c2.8-2.8,5.8-4,9.8-4
	C119.9,2.1,281.3,2.1,281.3,2.1z"/>
<g>
	<g>
		<path d="M132.7,209.7c-4.9,0-9.5-0.9-13.8-2.8c-4.3-1.8-8-4.5-11.2-7.9c-3.2-3.4-5.7-7.5-7.6-12.3c-1.8-4.8-2.8-10.2-2.8-16.1
			c0-4.8,0.7-9.8,2-14.9c1.3-5.1,3.5-10.1,6.4-14.8c2.9-4.8,6.6-9,11.2-12.8c4.5-3.8,10-6.9,16.4-9.2c6.4-2.4,13.8-3.6,22.2-3.7
			l0.1,16.9l-22.3-1.8c-4.2,1.9-7.7,5-10.6,9.1c-2.9,4.2-5.1,8.8-6.4,14.1c-1.4,5.2-2.1,10.5-2.1,15.9c0,5.7,0.9,10.9,2.6,15.7
			c1.8,4.7,4.4,8.4,7.8,11.1c3.5,2.7,7.8,3.8,13.1,3.5c3-1.8,5.4-4.2,7-7.2c1.6-3,2.4-6.5,2.4-10.3c0-3.2-0.5-6.2-1.6-9
			c-1.1-2.8-2.6-5-4.5-6.8c-1.9-1.8-4.3-2.6-7.1-2.6c-1.8,0-3.7,0.4-5.8,1.2c-2.1,0.8-4.2,2-6.3,3.5l-3.2-7.3
			c4.2-3.6,8.1-6,11.9-7.1c3.8-1.2,6.9-1.7,9.4-1.7c4.5,0,8.6,1.2,12.1,3.7c3.6,2.5,6.3,5.8,8.3,9.9c2,4.1,3,8.6,3,13.5
			c0,5.5-1.2,10.5-3.7,15c-2.5,4.6-6,8.3-10.6,11.1C144.6,208.2,139.1,209.7,132.7,209.7z"/>
	</g>
</g>
</svg>
