<?xml version="1.0" encoding="utf-8"?>
<!-- Generator: Adobe Illustrator 27.6.1, SVG Export Plug-In . SVG Version: 6.00 Build 0)  -->
<svg version="1.1" id="Layer_1" xmlns="http://www.w3.org/2000/svg" xmlns:xlink="http://www.w3.org/1999/xlink" x="0px" y="0px"
	 viewBox="0 0 300 300" style="enable-background:new 0 0 300 300;" xml:space="preserve">
<style type="text/css">
	.st0{fill:none;stroke:#000000;stroke-width:10;stroke-linecap:round;stroke-linejoin:round;stroke-miterlimit:10;}
</style>
<path class="st0" d="M277.5,223.1c-12.7,0-242.1,0-254.8,0"/>
<path class="st0" d="M149.7,2.7c-12.5,22.3-116.6,201.7-127,219.7"/>
<path class="st0" d="M149.3,2c-4.8,1.1-8,4.6-11.5,7.6C124.3,21.1,26,105.7,23.1,109c-1.7,1.9-2.5,4.1-2.5,6.5
	c0,34.1,0,68.1,0,102.2c0,4.1,1.9,7,5.6,9.1c14,8,107.4,61.8,117,67.7c5.4,3.3,9.9,2.7,14.7-0.2c11.5-6.7,112.1-65.2,115.4-67
	c4.7-2.5,6.5-6.3,6.5-11.6c-0.1-32.1-0.1-64.2,0-96.3c0-6.1-1.7-10.6-6.7-14.5C265.7,99,163.9,10.7,158,5.7c-2.4-2-5-3.8-8.4-3.7"/>
<path class="st0" d="M150.5,3.5c5.2,9,125.2,214.4,127.8,218.9"/>
<g>
	<g>
		<path d="M146.4,182.6c-4.4,0-8.3-0.8-11.6-2.3c-3.3-1.6-5.8-3.6-7.7-6.3c-1.8-2.6-2.7-5.5-2.7-8.8c0-2.7,0.7-5.3,2-7.7
			c1.3-2.4,3.3-4.5,5.8-6.5c2.5-1.9,5.6-3.5,9.2-4.9l4.3,4.3c-3.1,1.6-5.4,3.7-7,6.3c-1.5,2.6-2.3,5.2-2.3,7.8c0,3,1,5.6,2.9,7.9
			c1.9,2.3,4.7,3.4,8.4,3.4c1.1,0,2.2-0.1,3.4-0.3c1.2-0.2,2.5-0.5,3.8-1c0.9-1.5,1.6-2.9,2.1-4.3c0.5-1.3,0.7-2.6,0.7-4
			c0-2-0.5-3.8-1.5-5.5c-1-1.7-2.6-3.3-4.7-5c-2.2-1.7-4.9-3.3-8.3-5.1l-5-2.6c-3.9-2.2-6.9-4.7-9-7.5c-2.1-2.8-3.1-5.9-3.1-9.4
			c0-3.1,0.8-6,2.5-8.5c1.7-2.6,4.1-4.7,7.2-6.3c3.1-1.6,6.9-2.4,11.3-2.4c4.2,0,7.7,0.7,10.7,2.1c2.9,1.4,5.2,3.3,6.8,5.6
			c1.6,2.4,2.3,5,2.3,7.8c0,3.2-1.2,6.4-3.6,9.5c-2.4,3.1-6.2,5.9-11.4,8.2l-4.3-3.8c2.6-1.6,4.6-3.2,5.9-4.8
			c1.3-1.6,2.2-3.1,2.6-4.6c0.4-1.4,0.6-2.6,0.6-3.6c0-2.8-0.9-5.2-2.8-7.1c-1.9-2-4.4-2.9-7.5-2.9c-0.9,0-1.9,0.1-2.9,0.3
			c-1,0.2-2.1,0.5-3.2,1c-1.1,1.3-1.9,2.7-2.4,4c-0.5,1.3-0.7,2.6-0.7,3.7c0,2.3,0.7,4.2,2.1,5.9c1.4,1.7,3.2,3.1,5.5,4.4
			c2.2,1.3,4.5,2.6,6.9,3.9c2.9,1.5,5.7,3.2,8.3,5.1c2.6,1.9,4.8,4,6.6,6.5c1.7,2.5,2.6,5.4,2.6,8.8c0,3.5-0.9,6.7-2.8,9.4
			s-4.5,5-7.9,6.7C155,181.7,151,182.6,146.4,182.6z"/>
	</g>
</g>
</svg>
