<?xml version="1.0" encoding="utf-8"?>
<!-- Generator: Adobe Illustrator 27.6.1, SVG Export Plug-In . SVG Version: 6.00 Build 0)  -->
<svg version="1.1" id="_x3C_Layer_x3E_" xmlns="http://www.w3.org/2000/svg" xmlns:xlink="http://www.w3.org/1999/xlink" x="0px"
	 y="0px" viewBox="0 0 400 400" style="enable-background:new 0 0 400 400;" xml:space="preserve">
<style type="text/css">
	.st0{opacity:0.54;}
	.st1{opacity:0;fill:#AD8923;}
	.st2{opacity:3.225806e-02;fill:#AE8922;}
	.st3{opacity:6.451613e-02;fill:#AF8A21;}
	.st4{opacity:9.677419e-02;fill:#B08A20;}
	.st5{opacity:0.129;fill:#B18B1E;}
	.st6{opacity:0.1613;fill:#B28B1D;}
	.st7{opacity:0.1935;fill:#B28B1C;}
	.st8{opacity:0.2258;fill:#B38C1B;}
	.st9{opacity:0.2581;fill:#B48C1A;}
	.st10{opacity:0.2903;fill:#B58C19;}
	.st11{opacity:0.3226;fill:#B68D18;}
	.st12{opacity:0.3548;fill:#B78D17;}
	.st13{opacity:0.3871;fill:#B88E15;}
	.st14{opacity:0.4194;fill:#B98E14;}
	.st15{opacity:0.4516;fill:#BA8E13;}
	.st16{opacity:0.4839;fill:#BB8F12;}
	.st17{opacity:0.5161;fill:#BB8F11;}
	.st18{opacity:0.5484;fill:#BC9010;}
	.st19{opacity:0.5806;fill:#BD900F;}
	.st20{opacity:0.6129;fill:#BE900E;}
	.st21{opacity:0.6452;fill:#BF910C;}
	.st22{opacity:0.6774;fill:#C0910B;}
	.st23{opacity:0.7097;fill:#C1920A;}
	.st24{opacity:0.7419;fill:#C29209;}
	.st25{opacity:0.7742;fill:#C39208;}
	.st26{opacity:0.8065;fill:#C49307;}
	.st27{opacity:0.8387;fill:#C49306;}
	.st28{opacity:0.871;fill:#C59305;}
	.st29{opacity:0.9032;fill:#C69403;}
	.st30{opacity:0.9355;fill:#C79402;}
	.st31{opacity:0.9677;fill:#C89501;}
	.st32{fill:#C99500;}
	.st33{opacity:0.6;}
	.st34{opacity:0;fill:url(#SVGID_1_);}
	.st35{opacity:7.692308e-02;fill:url(#SVGID_00000080920712698599230950000015769617602052941953_);}
	.st36{opacity:0.1538;fill:url(#SVGID_00000093877177783318835840000006575408361405498246_);}
	.st37{opacity:0.2308;fill:url(#SVGID_00000174592279773116567300000015378817175204375222_);}
	.st38{opacity:0.3077;fill:url(#SVGID_00000101095323635515791700000003229820306539701655_);}
	.st39{opacity:0.3846;fill:url(#SVGID_00000034792246918606694640000013598446513502010025_);}
	.st40{opacity:0.4615;fill:url(#SVGID_00000091004007939218058710000014539231412156216230_);}
	.st41{opacity:0.5385;fill:url(#SVGID_00000016043812863485471100000001938347707385625758_);}
	.st42{opacity:0.6154;fill:url(#SVGID_00000130621287394380071920000013212755280389953981_);}
	.st43{opacity:0.6923;fill:url(#SVGID_00000137836764542982646950000002433355233356766082_);}
	.st44{opacity:0.7692;fill:url(#SVGID_00000012443621535348072390000003971013571677740704_);}
	.st45{opacity:0.8462;fill:url(#SVGID_00000148661684095857956450000001964147830273637504_);}
	.st46{opacity:0.9231;fill:url(#SVGID_00000009568492877024337960000006451417068334915970_);}
	.st47{fill:url(#SVGID_00000123418313653466039390000003161912641757845146_);}
	.st48{opacity:0.6;fill:url(#SVGID_00000097463450089851001240000001590903435555148936_);}
</style>
<g>
	<g class="st0">
		<path class="st1" d="M38.1,370.5c1.3,5.1,7.5,9.3,16.9,12.8c9.4,3.5,22.2,6.6,37.8,9.3c8.2,1.4,17.2,2.7,27.1,3.8
			c9.9,1.2,21.1,2.1,33.7,2.8c12.6,0.6,26.4,0.8,40.6,0.7c14.2-0.2,28.2-0.8,41.8-1.8c12.2-1.1,22.8-2.4,32.1-3.9
			c9.3-1.5,17.2-3.2,24-5.1c13.6-3.7,23.5-7.4,30.1-10.8c6.6-3.4,10.2-6.7,11.2-10c1-3.3-0.6-6.7-4.5-10.4
			c-3.7-3.7-9.9-7.7-18.4-12.2c-4.2-2.2-9-4.7-14.3-7.1c-5.3-2.5-11.1-5-17.4-7.4c-6.2-2.5-12.9-4.9-20.4-7
			c-7.4-2.1-15.5-3.9-24.2-5.3c-8.7-1.4-18-2.3-27.7-2.6c-9.8-0.3-20-0.1-30.6,0.8c-21.4,1.9-41.6,4.8-59.8,8.6
			c-18.1,3.7-34.1,8.3-46.3,13.2c-12.1,5-20.9,10.4-26,15.8C38.6,360,36.6,365.4,38.1,370.5z"/>
		<path class="st2" d="M72.2,339.6c-12.2,4.9-20.9,10.3-25.9,15.7c-5,5.3-6.8,10.5-5.3,15.6c1.5,5,7.5,9.1,16.8,12.6
			c9.3,3.5,21.9,6.6,37.3,9.2c8.1,1.4,17,2.6,26.7,3.7c9.8,1.1,20.8,2.1,33.2,2.7c12.3,0.6,25.9,0.8,39.8,0.7
			c13.9-0.2,27.7-0.7,40.9-1.8c5.4-0.4,10.4-1,15.2-1.6c5.8-0.7,11.2-1.4,16.2-2.3c9.1-1.5,16.9-3.1,23.5-5
			c13.3-3.6,22.9-7.2,29.4-10.6c6.6-3.4,10.2-6.6,11.2-9.9c1.1-3.3-0.5-6.7-4.2-10.4c-3.7-3.6-9.7-7.7-18.1-12.1
			c-4.2-2.2-8.9-4.6-14.2-7c-5.2-2.4-11-4.8-17.2-7.2c-4.6-1.8-9.4-3.6-14.6-5.2c-1.8-0.6-3.6-1.1-5.5-1.6c-7.4-2-15.4-3.8-23.9-5.2
			c-4-0.6-8.1-1.2-12.4-1.6c-4.9-0.5-9.9-0.8-15-1c-9.7-0.3-19.8-0.1-30.3,0.8c-20.9,1.8-40.6,4.7-58.3,8.4
			C99.7,330.3,84.1,334.8,72.2,339.6z"/>
		<path class="st3" d="M74.7,340.2c-12.2,4.9-21,10.2-25.9,15.7c-4.8,5.3-6.6,10.4-5,15.4c1.5,4.9,7.5,9,16.7,12.4
			c9.2,3.4,21.7,6.5,36.8,9c8,1.3,16.7,2.6,26.3,3.7c9.7,1.1,20.5,2,32.7,2.6c12.1,0.6,25.3,0.8,38.9,0.6c13.6-0.2,27.1-0.7,40-1.8
			c5.2-0.4,10.2-1,14.9-1.5c5.7-0.7,11-1.4,15.8-2.2c8.9-1.4,16.5-3.1,23-4.9c13-3.5,22.4-7.1,28.8-10.3c6.5-3.3,10.1-6.5,11.2-9.8
			c1.1-3.3-0.3-6.7-3.9-10.3c-3.6-3.6-9.6-7.6-17.9-11.9c-4.2-2.2-8.9-4.5-14.1-6.8c-5.2-2.3-10.9-4.6-17-7
			c-4.5-1.7-9.3-3.5-14.5-5.1c-1.8-0.5-3.6-1.1-5.5-1.6c-7.3-2-15.2-3.7-23.7-5c-4-0.6-8-1.1-12.2-1.5c-4.8-0.5-9.8-0.8-14.9-1
			c-9.6-0.3-19.6-0.1-29.9,0.8c-20.4,1.7-39.6,4.6-56.8,8.1C101.4,331.3,86.3,335.6,74.7,340.2z"/>
		<path class="st4" d="M77.1,340.9c-12.3,4.9-21,10.2-25.9,15.6c-4.7,5.2-6.3,10.2-4.6,15.2c1.6,4.8,7.5,8.8,16.6,12.2
			c9.1,3.4,21.4,6.4,36.3,8.9c7.9,1.3,16.5,2.5,26,3.6c9.5,1.1,20.3,2,32.3,2.5c11.8,0.6,24.8,0.7,38,0.6
			c13.3-0.2,26.5-0.7,39.1-1.8c5.1-0.4,10-1,14.5-1.5c5.6-0.7,10.7-1.4,15.5-2.2c8.7-1.4,16.1-3,22.5-4.7
			c12.6-3.5,21.9-6.9,28.1-10.1c6.5-3.3,10.1-6.5,11.3-9.7c1.2-3.3-0.1-6.7-3.6-10.3c-3.5-3.6-9.4-7.5-17.7-11.8
			c-4.1-2.1-8.8-4.4-13.9-6.6c-5.1-2.3-10.8-4.5-16.9-6.8c-4.5-1.7-9.2-3.4-14.3-4.9c-1.8-0.5-3.6-1-5.4-1.5
			c-7.2-1.9-15-3.6-23.4-4.9c-3.9-0.6-8-1.1-12.1-1.5c-4.8-0.5-9.7-0.8-14.7-0.9c-9.5-0.3-19.4-0.1-29.6,0.8
			c-19.8,1.7-38.5,4.5-55.4,7.9C103.2,332.2,88.4,336.4,77.1,340.9z"/>
		<path class="st5" d="M79.5,341.5c-12.4,4.8-21.1,10.1-25.9,15.5c-4.5,5.2-6,10.1-4.2,15c1.7,4.7,7.6,8.7,16.5,12
			c9,3.3,21.1,6.3,35.8,8.7c7.8,1.3,16.3,2.5,25.6,3.5c9.4,1,20,1.9,31.8,2.4c11.6,0.5,24.2,0.7,37.2,0.5c13-0.2,25.9-0.7,38.2-1.8
			c5-0.4,9.7-1,14.2-1.5c5.4-0.6,10.5-1.4,15.1-2.1c8.4-1.4,15.7-2.9,22-4.6c12.3-3.4,21.4-6.7,27.5-9.8c6.4-3.3,10-6.4,11.3-9.6
			c1.3-3.3,0.1-6.6-3.3-10.2c-3.4-3.6-9.3-7.5-17.4-11.6c-4.1-2.1-8.7-4.3-13.8-6.5c-5.1-2.2-10.7-4.4-16.7-6.6
			c-4.4-1.6-9.1-3.3-14.2-4.8c-1.7-0.5-3.5-1-5.3-1.5c-7.1-1.9-14.9-3.5-23.1-4.8c-3.9-0.6-7.9-1.1-12-1.5
			c-4.7-0.4-9.5-0.7-14.5-0.9c-9.4-0.3-19.2-0.1-29.2,0.8c-19.3,1.6-37.5,4.3-53.9,7.7C104.9,333.1,90.6,337.2,79.5,341.5z"/>
		<path class="st6" d="M82,342.2c-12.4,4.8-21.2,10-25.8,15.4c-4.4,5.1-5.7,10-3.9,14.8c1.7,4.6,7.6,8.5,16.4,11.8
			c8.9,3.3,20.8,6.2,35.3,8.6c7.7,1.3,16.1,2.4,25.2,3.4c9.3,1,19.7,1.8,31.4,2.3c11.3,0.5,23.7,0.6,36.3,0.5
			c12.7-0.2,25.3-0.7,37.3-1.7c4.9-0.4,9.5-0.9,13.9-1.5c5.3-0.6,10.2-1.3,14.8-2.1c8.2-1.4,15.3-2.9,21.5-4.5
			c12-3.3,20.8-6.5,26.9-9.6c6.4-3.2,10-6.3,11.3-9.5c1.4-3.3,0.3-6.6-3-10.2c-3.3-3.6-9.1-7.4-17.2-11.5c-4-2-8.6-4.1-13.7-6.3
			c-5-2.1-10.6-4.3-16.5-6.5c-4.4-1.6-9-3.2-14-4.6c-1.7-0.5-3.5-1-5.3-1.4c-7-1.8-14.7-3.4-22.9-4.6c-3.8-0.6-7.8-1-11.8-1.4
			c-4.7-0.4-9.4-0.7-14.3-0.9c-9.3-0.3-18.9-0.1-28.9,0.7c-18.8,1.6-36.5,4.2-52.4,7.4C106.7,334,92.8,338,82,342.2z"/>
		<path class="st7" d="M84.4,342.9c-12.5,4.8-21.3,9.9-25.8,15.3c-4.2,5-5.5,9.8-3.5,14.6c1.8,4.5,7.6,8.3,16.3,11.6
			c8.8,3.2,20.5,6.1,34.7,8.4c7.6,1.2,15.9,2.3,24.9,3.3c9.2,1,19.5,1.8,30.9,2.3c11.1,0.5,23.1,0.6,35.4,0.4
			c12.4-0.2,24.7-0.7,36.4-1.7c4.8-0.4,9.3-0.9,13.5-1.4c5.2-0.6,10-1.3,14.4-2c8-1.3,15-2.8,20.9-4.4c11.7-3.2,20.3-6.4,26.2-9.3
			c6.3-3.2,10-6.3,11.3-9.4c1.5-3.3,0.5-6.6-2.7-10.2c-3.2-3.6-8.9-7.4-17-11.3c-4-2-8.5-4-13.5-6.1c-5-2.1-10.4-4.2-16.3-6.3
			c-4.3-1.5-8.9-3.1-13.8-4.5c-1.7-0.5-3.4-0.9-5.2-1.4c-7-1.8-14.5-3.3-22.6-4.5c-3.8-0.6-7.7-1-11.7-1.4
			c-4.6-0.4-9.3-0.7-14.1-0.9c-9.2-0.3-18.7-0.1-28.5,0.7c-18.2,1.5-35.4,4.1-50.9,7.2C108.5,335,94.9,338.9,84.4,342.9z"/>
		<path class="st8" d="M86.9,343.5c-12.5,4.7-21.3,9.8-25.8,15.3c-4.1,5-5.2,9.7-3.2,14.4c1.9,4.4,7.6,8.2,16.2,11.3
			c8.6,3.2,20.3,6,34.2,8.3c7.5,1.2,15.6,2.3,24.5,3.2c9.1,1,19.2,1.7,30.5,2.2c10.8,0.5,22.6,0.5,34.6,0.4
			c12.1-0.2,24.1-0.7,35.6-1.7c4.7-0.4,9.1-0.9,13.2-1.4c5-0.6,9.7-1.3,14.1-2c7.8-1.3,14.6-2.7,20.4-4.3
			c11.4-3.1,19.8-6.2,25.6-9.1c6.3-3.1,9.9-6.2,11.4-9.3c1.5-3.3,0.6-6.6-2.5-10.1c-3.2-3.6-8.8-7.3-16.8-11.2
			c-3.9-1.9-8.4-3.9-13.4-6c-4.9-2-10.3-4-16.1-6.1c-4.3-1.5-8.8-3-13.7-4.4c-1.7-0.5-3.4-0.9-5.2-1.4c-6.9-1.7-14.3-3.2-22.3-4.3
			c-3.7-0.5-7.6-1-11.5-1.3c-4.5-0.4-9.2-0.7-14-0.8c-9.1-0.3-18.5-0.1-28.1,0.7c-17.7,1.5-34.4,3.9-49.4,7
			C110.2,335.9,97.1,339.7,86.9,343.5z"/>
		<path class="st9" d="M89.3,344.2c-12.6,4.7-21.4,9.7-25.7,15.2c-3.9,4.9-4.9,9.6-2.8,14.2c1.9,4.3,7.6,8,16.1,11.1
			c8.5,3.1,20,5.9,33.7,8.1c7.4,1.2,15.4,2.2,24.2,3.2c9,0.9,19,1.7,30,2.1c10.6,0.4,22,0.5,33.7,0.3c11.8-0.2,23.4-0.7,34.7-1.7
			c4.5-0.4,8.8-0.9,12.9-1.4c4.9-0.6,9.5-1.2,13.7-1.9c7.6-1.3,14.2-2.7,19.9-4.2c11.1-3,19.3-6,25-8.8c6.2-3.1,9.9-6.1,11.4-9.2
			c1.6-3.3,0.8-6.5-2.2-10.1c-3.1-3.6-8.6-7.3-16.5-11c-3.9-1.9-8.4-3.8-13.3-5.8c-4.9-2-10.2-3.9-16-5.9c-4.2-1.5-8.7-2.9-13.5-4.2
			c-1.7-0.5-3.4-0.9-5.1-1.3c-6.8-1.7-14.2-3.1-22-4.2c-3.7-0.5-7.5-1-11.4-1.3c-4.5-0.4-9.1-0.7-13.8-0.8c-9-0.3-18.3-0.1-27.8,0.7
			c-17.2,1.4-33.4,3.8-48,6.7C112,336.8,99.2,340.5,89.3,344.2z"/>
		<path class="st10" d="M91.7,344.9c-12.6,4.6-21.5,9.6-25.7,15.1c-3.8,4.9-4.6,9.4-2.4,14c2,4.2,7.6,7.9,16,10.9
			c8.4,3.1,19.7,5.8,33.2,7.9c7.3,1.2,15.2,2.2,23.8,3.1c8.8,0.9,18.7,1.6,29.6,2c10.3,0.4,21.5,0.5,32.8,0.3
			c11.5-0.2,22.8-0.7,33.8-1.7c4.4-0.4,8.6-0.9,12.5-1.3c4.8-0.6,9.2-1.2,13.4-1.9c7.4-1.2,13.8-2.6,19.4-4.1
			c10.8-2.9,18.8-5.8,24.3-8.6c6.2-3.1,9.9-6.1,11.4-9.1c1.7-3.3,1-6.5-1.9-10c-3-3.6-8.5-7.2-16.3-10.9c-3.9-1.8-8.3-3.7-13.1-5.7
			c-4.8-1.9-10.1-3.8-15.8-5.7c-4.2-1.4-8.6-2.8-13.4-4.1c-1.6-0.4-3.3-0.9-5-1.3c-6.7-1.6-14-3-21.8-4.1c-3.6-0.5-7.4-0.9-11.2-1.3
			c-4.4-0.4-9-0.6-13.6-0.8c-8.9-0.2-18.1-0.1-27.4,0.7c-16.6,1.4-32.3,3.7-46.5,6.5C113.8,337.7,101.4,341.3,91.7,344.9z"/>
		<path class="st11" d="M94.2,345.5c-12.7,4.6-21.6,9.5-25.7,15c-3.6,4.8-4.4,9.3-2.1,13.8c2.1,4.1,7.6,7.7,15.9,10.7
			c8.3,3,19.4,5.7,32.7,7.8c7.1,1.1,15,2.1,23.4,3c8.7,0.9,18.4,1.5,29.1,1.9c10.1,0.4,20.9,0.4,32,0.2c11.2-0.2,22.2-0.7,32.9-1.7
			c4.3-0.4,8.4-0.8,12.2-1.3c4.6-0.6,9-1.2,13-1.9c7.2-1.2,13.5-2.5,18.9-4c10.4-2.8,18.2-5.7,23.7-8.3c6.1-3,9.8-6,11.4-9
			c1.8-3.3,1.2-6.5-1.6-10c-2.9-3.6-8.3-7.2-16.1-10.8c-3.8-1.8-8.2-3.6-13-5.5c-4.7-1.8-10-3.7-15.6-5.5c-4.1-1.4-8.5-2.7-13.2-3.9
			c-1.6-0.4-3.3-0.8-5-1.2c-6.6-1.5-13.8-2.9-21.5-3.9c-3.6-0.5-7.3-0.9-11.1-1.2c-4.4-0.4-8.9-0.6-13.4-0.7
			c-8.8-0.2-17.8,0-27.1,0.7c-16.1,1.3-31.3,3.5-45,6.3C115.5,338.7,103.6,342.1,94.2,345.5z"/>
		<path class="st12" d="M96.6,346.2c-12.8,4.6-21.6,9.4-25.6,14.9c-3.5,4.8-4.1,9.2-1.7,13.6c2.1,4,7.6,7.6,15.7,10.5
			c8.2,3,19.1,5.6,32.2,7.6c7,1.1,14.7,2.1,23.1,2.9c8.6,0.8,18.2,1.5,28.7,1.8c9.8,0.3,20.4,0.4,31.1,0.2c10.9-0.2,21.6-0.7,32-1.7
			c4.2-0.4,8.1-0.8,11.9-1.3c4.5-0.6,8.7-1.2,12.6-1.8c7-1.2,13.1-2.5,18.4-3.9c10.1-2.7,17.7-5.5,23-8.1c6.1-3,9.8-5.9,11.5-8.9
			c1.9-3.3,1.4-6.5-1.3-10c-2.8-3.6-8.2-7.1-15.9-10.6c-3.8-1.7-8.1-3.5-12.9-5.3c-4.7-1.8-9.9-3.6-15.4-5.4
			c-4.1-1.3-8.4-2.6-13.1-3.8c-1.6-0.4-3.2-0.8-4.9-1.2c-6.6-1.5-13.7-2.8-21.2-3.8c-3.5-0.5-7.2-0.9-10.9-1.2
			c-4.3-0.4-8.8-0.6-13.3-0.7c-8.7-0.2-17.6,0-26.7,0.7c-15.6,1.3-30.3,3.4-43.5,6C117.3,339.6,105.7,342.9,96.6,346.2z"/>
		<path class="st13" d="M99.1,346.8c-12.8,4.5-21.7,9.3-25.6,14.9c-3.3,4.7-3.8,9-1.3,13.5c2.2,3.9,7.6,7.4,15.6,10.3
			c8.1,2.9,18.9,5.5,31.7,7.5c6.9,1.1,14.5,2,22.7,2.8c8.5,0.8,17.9,1.4,28.2,1.7c9.6,0.3,19.8,0.3,30.2,0.1
			c10.6-0.2,21-0.7,31.1-1.7c4.1-0.4,7.9-0.8,11.6-1.3c4.4-0.5,8.5-1.1,12.3-1.8c6.8-1.1,12.7-2.4,17.9-3.8
			c9.8-2.6,17.2-5.3,22.4-7.8c6-2.9,9.8-5.9,11.5-8.8c2-3.3,1.6-6.5-1-9.9c-2.7-3.6-8-7-15.6-10.5c-3.7-1.7-8-3.4-12.7-5.2
			c-4.6-1.7-9.7-3.5-15.2-5.2c-4-1.3-8.3-2.5-12.9-3.7c-1.6-0.4-3.2-0.8-4.9-1.1c-6.5-1.4-13.5-2.7-20.9-3.7
			c-3.5-0.5-7.1-0.8-10.8-1.1c-4.3-0.3-8.6-0.6-13.1-0.7c-8.6-0.2-17.4,0-26.3,0.7c-15,1.2-29.2,3.3-42.1,5.8
			C119,340.5,107.9,343.7,99.1,346.8z"/>
		<path class="st14" d="M101.5,347.5c-12.9,4.5-21.8,9.2-25.6,14.8c-3.2,4.6-3.5,8.9-1,13.3c2.3,3.8,7.7,7.2,15.5,10.1
			c8,2.9,18.6,5.4,31.2,7.3c6.8,1.1,14.3,2,22.3,2.8c8.4,0.8,17.6,1.3,27.8,1.6c9.3,0.3,19.3,0.3,29.4,0.1
			c10.3-0.3,20.4-0.8,30.2-1.6c3.9-0.4,7.7-0.8,11.2-1.2c4.3-0.5,8.2-1.1,11.9-1.7c6.6-1.1,12.3-2.3,17.4-3.7
			c9.5-2.6,16.7-5.1,21.8-7.6c6-2.9,9.7-5.8,11.5-8.7c2-3.3,1.8-6.5-0.7-9.9c-2.6-3.6-7.9-7-15.4-10.3c-3.7-1.6-7.9-3.3-12.6-5
			c-4.6-1.7-9.6-3.3-15.1-5c-4-1.2-8.2-2.4-12.8-3.5c-1.6-0.4-3.2-0.7-4.8-1.1c-6.4-1.4-13.3-2.6-20.7-3.5c-3.5-0.4-7-0.8-10.7-1.1
			c-4.2-0.3-8.5-0.6-12.9-0.7c-8.5-0.2-17.2,0-26,0.7c-14.5,1.2-28.2,3.1-40.6,5.6C120.8,341.4,110.1,344.5,101.5,347.5z"/>
		<path class="st15" d="M103.9,348.2c-12.9,4.4-21.9,9.1-25.6,14.7c-3,4.6-3.3,8.8-0.6,13.1c2.3,3.7,7.7,7.1,15.4,9.8
			c7.9,2.8,18.3,5.3,30.7,7.2c6.7,1,14.1,1.9,22,2.7c8.3,0.8,17.4,1.3,27.3,1.5c9.1,0.2,18.7,0.3,28.5,0c10-0.3,19.8-0.8,29.3-1.6
			c3.8-0.4,7.4-0.8,10.9-1.2c4.1-0.5,8-1.1,11.6-1.7c6.4-1.1,12-2.3,16.8-3.6c9.2-2.5,16.2-4.9,21.1-7.3c6-2.8,9.7-5.7,11.6-8.6
			c2.1-3.3,2-6.4-0.5-9.8c-2.6-3.6-7.7-6.9-15.2-10.2c-3.7-1.6-7.8-3.2-12.5-4.8c-4.5-1.6-9.5-3.2-14.9-4.8
			c-3.9-1.2-8.1-2.3-12.6-3.4c-1.5-0.4-3.1-0.7-4.7-1c-6.3-1.3-13.1-2.5-20.4-3.4c-3.4-0.4-6.9-0.8-10.5-1.1
			c-4.2-0.3-8.4-0.5-12.7-0.6c-8.4-0.2-17,0-25.6,0.7c-14,1.1-27.2,3-39.1,5.3C122.6,342.4,112.2,345.3,103.9,348.2z"/>
		<path class="st16" d="M106.4,348.8c-13,4.4-22,9-25.5,14.6c-2.9,4.5-3,8.7-0.3,12.9c2.4,3.6,7.7,6.9,15.3,9.6
			c7.8,2.8,18,5.1,30.2,7c6.6,1,13.8,1.9,21.6,2.6c8.2,0.7,17.1,1.2,26.9,1.5c8.8,0.2,18.2,0.2,27.6,0c9.7-0.3,19.2-0.8,28.4-1.6
			c3.7-0.3,7.2-0.8,10.6-1.2c4-0.5,7.7-1.1,11.2-1.6c6.2-1,11.6-2.2,16.3-3.5c8.9-2.4,15.6-4.8,20.5-7.1c5.9-2.8,9.7-5.7,11.6-8.5
			c2.2-3.2,2.1-6.4-0.2-9.8c-2.5-3.6-7.6-6.9-14.9-10c-3.6-1.6-7.8-3.1-12.3-4.7c-4.5-1.5-9.4-3.1-14.7-4.6c-3.9-1.1-8-2.2-12.4-3.2
			c-1.5-0.3-3.1-0.7-4.7-1c-6.2-1.3-13-2.4-20.1-3.2c-3.4-0.4-6.8-0.8-10.4-1c-4.1-0.3-8.3-0.5-12.5-0.6c-8.3-0.2-16.8,0-25.3,0.7
			c-13.4,1.1-26.1,2.9-37.6,5.1C124.3,343.3,114.4,346.1,106.4,348.8z"/>
		<path class="st17" d="M108.8,349.5c-13.1,4.3-22,8.9-25.5,14.5c-2.8,4.4-2.7,8.5,0.1,12.7c2.4,3.5,7.7,6.8,15.2,9.4
			c7.6,2.7,17.7,5,29.7,6.9c6.5,1,13.6,1.8,21.2,2.5c8,0.7,16.8,1.2,26.4,1.4c8.5,0.2,17.6,0.2,26.8-0.1c9.4-0.3,18.6-0.8,27.5-1.6
			c3.6-0.3,7-0.7,10.2-1.1c3.9-0.5,7.5-1,10.9-1.6c6-1,11.2-2.1,15.8-3.3c8.5-2.3,15.1-4.6,19.9-6.8c5.9-2.8,9.6-5.6,11.6-8.4
			c2.3-3.2,2.3-6.4,0.1-9.8c-2.4-3.6-7.4-6.8-14.7-9.9c-3.6-1.5-7.7-3-12.2-4.5c-4.4-1.5-9.3-3-14.5-4.4c-3.8-1.1-7.9-2.1-12.3-3.1
			c-1.5-0.3-3-0.7-4.6-1c-6.2-1.2-12.8-2.3-19.9-3.1c-3.3-0.4-6.7-0.7-10.2-1c-4.1-0.3-8.2-0.5-12.4-0.6c-8.2-0.2-16.5,0-24.9,0.7
			c-12.9,1-25.1,2.8-36.2,4.9C126.1,344.2,116.5,346.9,108.8,349.5z"/>
		<path class="st18" d="M111.2,350.2c-13.1,4.3-22.1,8.8-25.5,14.4c-2.6,4.4-2.5,8.4,0.5,12.5c2.5,3.5,7.7,6.6,15.1,9.2
			c7.5,2.7,17.5,4.9,29.2,6.7c6.4,1,13.4,1.8,20.9,2.4c7.9,0.7,16.6,1.1,26,1.3c8.3,0.2,17.1,0.1,25.9-0.1c9.1-0.3,18-0.8,26.6-1.6
			c3.5-0.3,6.7-0.7,9.9-1.1c3.7-0.5,7.2-1,10.5-1.6c5.8-1,10.8-2.1,15.3-3.2c8.2-2.2,14.6-4.4,19.2-6.6c5.8-2.7,9.6-5.5,11.6-8.3
			c2.4-3.2,2.5-6.4,0.4-9.7c-2.3-3.6-7.2-6.8-14.5-9.7c-3.5-1.5-7.6-2.9-12.1-4.3c-4.4-1.4-9.2-2.9-14.4-4.3c-3.8-1-7.8-2-12.1-2.9
			c-1.5-0.3-3-0.6-4.5-0.9c-6.1-1.2-12.6-2.2-19.6-3c-3.3-0.4-6.6-0.7-10.1-0.9c-4-0.3-8.1-0.5-12.2-0.6c-8.1-0.2-16.3,0-24.5,0.7
			c-12.4,1-24.1,2.6-34.7,4.6C127.8,345.1,118.7,347.7,111.2,350.2z"/>
		<path class="st19" d="M113.7,350.8c-13.2,4.2-22.2,8.7-25.4,14.4c-2.5,4.3-2.2,8.3,0.8,12.3c2.6,3.4,7.7,6.4,15,9
			c7.4,2.6,17.2,4.8,28.7,6.6c6.3,0.9,13.2,1.7,20.5,2.4c7.8,0.7,16.3,1,25.5,1.2c8,0.1,16.5,0.1,25-0.2c8.8-0.3,17.4-0.8,25.7-1.6
			c3.3-0.3,6.5-0.7,9.6-1.1c3.6-0.5,7-1,10.2-1.5c5.6-0.9,10.5-2,14.8-3.1c7.9-2.1,14.1-4.2,18.6-6.3c5.8-2.7,9.6-5.5,11.7-8.2
			c2.5-3.2,2.7-6.4,0.7-9.7c-2.2-3.6-7.1-6.7-14.3-9.6c-3.5-1.4-7.5-2.8-11.9-4.2c-4.3-1.4-9-2.7-14.2-4.1c-3.8-1-7.7-1.9-12-2.8
			c-1.5-0.3-3-0.6-4.5-0.9c-6-1.1-12.5-2.1-19.3-2.8c-3.2-0.4-6.5-0.7-9.9-0.9c-4-0.3-8-0.5-12-0.5c-8-0.2-16.1,0-24.2,0.7
			c-11.8,0.9-23,2.5-33.2,4.4C129.6,346.1,120.8,348.5,113.7,350.8z"/>
		<path class="st20" d="M116.1,351.5c-13.3,4.2-22.3,8.6-25.4,14.3c-2.3,4.2-2,8.1,1.2,12.1c2.6,3.3,7.7,6.3,14.9,8.8
			c7.3,2.6,16.9,4.7,28.2,6.4c6.2,0.9,12.9,1.7,20.1,2.3c7.7,0.6,16.1,1,25,1.1c7.8,0.1,16,0.1,24.2-0.2c8.5-0.3,16.8-0.8,24.8-1.6
			c3.2-0.3,6.3-0.7,9.2-1.1c3.5-0.5,6.7-0.9,9.8-1.5c5.4-0.9,10.1-1.9,14.3-3c7.6-2,13.5-4,17.9-6.1c5.7-2.6,9.5-5.4,11.7-8.1
			c2.6-3.2,2.9-6.4,1-9.6c-2.1-3.6-6.9-6.7-14-9.5c-3.4-1.4-7.4-2.7-11.8-4c-4.3-1.3-8.9-2.6-14-3.9c-3.7-0.9-7.6-1.8-11.8-2.7
			c-1.4-0.3-2.9-0.6-4.4-0.8c-5.9-1.1-12.3-2-19-2.7c-3.2-0.3-6.4-0.6-9.8-0.9c-3.9-0.3-7.9-0.4-11.8-0.5c-7.9-0.2-15.9,0-23.8,0.6
			c-11.3,0.9-22,2.4-31.7,4.2C131.4,347,123,349.3,116.1,351.5z"/>
		<path class="st21" d="M118.6,352.1c-13.3,4.1-22.4,8.5-25.4,14.2c-2.2,4.2-1.7,8,1.6,11.9c2.7,3.2,7.7,6.1,14.8,8.6
			c7.2,2.5,16.6,4.6,27.6,6.2c6.1,0.9,12.7,1.6,19.8,2.2c7.6,0.6,15.8,0.9,24.6,1c7.5,0.1,15.4,0,23.3-0.3
			c8.2-0.3,16.2-0.8,23.9-1.5c3.1-0.3,6.1-0.7,8.9-1c3.3-0.4,6.5-0.9,9.5-1.4c5.1-0.9,9.7-1.9,13.8-2.9c7.3-1.9,13-3.9,17.3-5.8
			c5.7-2.6,9.5-5.3,11.7-8c2.7-3.2,3.1-6.3,1.2-9.6c-2-3.6-6.8-6.6-13.8-9.3c-3.4-1.3-7.3-2.6-11.7-3.9c-4.2-1.2-8.8-2.5-13.8-3.7
			c-3.7-0.9-7.5-1.7-11.7-2.5c-1.4-0.3-2.9-0.5-4.4-0.8c-5.8-1-12.1-1.9-18.8-2.6c-3.1-0.3-6.4-0.6-9.6-0.8
			c-3.8-0.3-7.7-0.4-11.7-0.5c-7.8-0.1-15.7,0-23.5,0.6c-10.8,0.8-21,2.2-30.3,3.9C133.1,347.9,125.1,350.1,118.6,352.1z"/>
		<path class="st22" d="M121,352.8c-13.4,4.1-22.5,8.4-25.3,14.1c-2.1,4.1-1.4,7.9,1.9,11.7c2.7,3.1,7.8,6,14.7,8.4
			c7.1,2.5,16.3,4.5,27.1,6.1c6,0.9,12.5,1.6,19.4,2.1c7.5,0.6,15.5,0.9,24.1,0.9c7.3,0.1,14.9,0,22.4-0.3c7.9-0.3,15.6-0.8,23-1.5
			c3-0.3,5.8-0.6,8.6-1c3.2-0.4,6.3-0.9,9.1-1.4c4.9-0.9,9.3-1.8,13.3-2.8c7-1.8,12.5-3.7,16.7-5.6c5.6-2.5,9.5-5.3,11.7-7.9
			c2.7-3.2,3.3-6.3,1.5-9.5c-1.9-3.6-6.6-6.5-13.6-9.2c-3.4-1.3-7.2-2.5-11.5-3.7c-4.1-1.2-8.7-2.4-13.6-3.5
			c-3.6-0.8-7.4-1.7-11.5-2.4c-1.4-0.3-2.8-0.5-4.3-0.7c-5.8-0.9-12-1.8-18.5-2.4c-3.1-0.3-6.3-0.6-9.5-0.8
			c-3.8-0.2-7.6-0.4-11.5-0.5c-7.7-0.1-15.5,0-23.1,0.6c-10.2,0.8-19.9,2.1-28.8,3.7C134.9,348.8,127.3,350.9,121,352.8z"/>
		<path class="st23" d="M123.4,353.5c-13.5,4-22.6,8.3-25.3,14c-1.9,4-1.2,7.8,2.3,11.5c2.8,3,7.8,5.8,14.6,8.1
			c7,2.4,16.1,4.4,26.6,5.9c5.9,0.8,12.3,1.5,19.1,2c7.3,0.5,15.3,0.8,23.7,0.8c7,0,14.3-0.1,21.6-0.3c7.6-0.3,15-0.8,22.1-1.5
			c2.9-0.3,5.6-0.6,8.2-1c3.1-0.4,6-0.9,8.8-1.3c4.7-0.8,9-1.7,12.7-2.7c6.7-1.7,12-3.5,16-5.3c5.6-2.5,9.5-5.2,11.8-7.8
			c2.8-3.2,3.5-6.3,1.8-9.5c-1.8-3.6-6.5-6.5-13.4-9c-3.3-1.2-7.2-2.4-11.4-3.5c-4.1-1.1-8.6-2.3-13.5-3.3
			c-3.6-0.8-7.3-1.6-11.4-2.2c-1.4-0.2-2.8-0.5-4.2-0.7c-5.7-0.9-11.8-1.7-18.2-2.3c-3-0.3-6.2-0.5-9.4-0.8
			c-3.7-0.2-7.5-0.4-11.3-0.4c-7.6-0.1-15.2,0.1-22.7,0.6c-9.7,0.7-18.9,2-27.3,3.5C136.7,349.8,129.4,351.7,123.4,353.5z"/>
		<path class="st24" d="M125.9,354.1c-13.6,3.9-22.7,8.2-25.3,14c-1.8,4-0.9,7.7,2.7,11.3c2.8,2.9,7.8,5.6,14.5,7.9
			c6.9,2.4,15.8,4.3,26.1,5.8c5.8,0.8,12,1.5,18.7,1.9c7.2,0.5,15,0.7,23.2,0.8c6.8,0.1,13.8-0.1,20.7-0.4
			c7.3-0.3,14.4-0.8,21.2-1.5c2.7-0.3,5.4-0.6,7.9-0.9c3-0.4,5.8-0.8,8.4-1.3c4.5-0.8,8.6-1.7,12.2-2.6c6.3-1.7,11.5-3.3,15.4-5.1
			c5.6-2.5,9.4-5.1,11.8-7.7c2.9-3.2,3.7-6.3,2.1-9.5c-1.8-3.6-6.3-6.4-13.1-8.9c-3.3-1.2-7.1-2.3-11.3-3.4c-4-1.1-8.5-2.1-13.3-3.2
			c-3.5-0.7-7.3-1.5-11.2-2.1c-1.4-0.2-2.8-0.4-4.2-0.7c-5.6-0.8-11.6-1.6-17.9-2.1c-3-0.3-6.1-0.5-9.2-0.7
			c-3.7-0.2-7.4-0.4-11.1-0.4c-7.5-0.1-15,0.1-22.4,0.6c-9.2,0.7-17.9,1.8-25.8,3.2C138.4,350.7,131.6,352.5,125.9,354.1z"/>
		<path class="st25" d="M128.3,354.8c-13.6,3.8-22.8,8.1-25.3,13.9c-1.7,3.9-0.6,7.5,3,11.1c2.9,2.8,7.8,5.5,14.4,7.7
			c6.8,2.3,15.5,4.2,25.6,5.6c5.7,0.8,11.8,1.4,18.3,1.9c7.1,0.5,14.7,0.6,22.8,0.7c6.5,0,13.2-0.2,19.8-0.4
			c7-0.3,13.8-0.8,20.3-1.5c2.6-0.3,5.1-0.6,7.6-0.9c2.8-0.4,5.5-0.8,8.1-1.3c4.3-0.8,8.2-1.6,11.7-2.5c6-1.6,10.9-3.1,14.8-4.8
			c5.5-2.4,9.4-5,11.8-7.6c3-3.2,3.9-6.3,2.4-9.4c-1.7-3.6-6.2-6.4-12.9-8.7c-3.2-1.1-7-2.2-11.1-3.2c-4-1-8.4-2-13.1-3
			c-3.5-0.7-7.2-1.4-11.1-2c-1.3-0.2-2.7-0.4-4.1-0.6c-5.5-0.8-11.4-1.5-17.7-2c-3-0.3-6-0.5-9.1-0.7c-3.6-0.2-7.3-0.3-10.9-0.4
			c-7.4-0.1-14.8,0.1-22,0.6c-8.6,0.6-16.8,1.7-24.4,3C140.2,351.6,133.8,353.3,128.3,354.8z"/>
		<path class="st26" d="M130.8,355.5c-13.7,3.8-22.9,8-25.2,13.8c-1.6,3.8-0.4,7.4,3.4,10.9c2.9,2.7,7.8,5.3,14.2,7.5
			c6.7,2.3,15.2,4.1,25.1,5.5c5.6,0.8,11.6,1.4,18,1.8c7,0.5,14.5,0.6,22.3,0.6c6.3,0,12.7-0.2,19-0.5c6.7-0.3,13.2-0.8,19.5-1.5
			c2.5-0.3,4.9-0.6,7.2-0.9c2.7-0.4,5.3-0.8,7.7-1.2c4.1-0.7,7.8-1.5,11.2-2.4c5.7-1.5,10.4-3,14.1-4.6c5.5-2.4,9.4-5,11.9-7.5
			c3.1-3.1,4-6.3,2.7-9.4c-1.6-3.6-6-6.3-12.7-8.6c-3.2-1.1-6.9-2.1-11-3c-3.9-0.9-8.2-1.9-12.9-2.8c-3.4-0.6-7.1-1.3-10.9-1.8
			c-1.3-0.2-2.7-0.4-4.1-0.6c-5.4-0.7-11.3-1.4-17.4-1.9c-2.9-0.2-5.9-0.5-8.9-0.6c-3.6-0.2-7.2-0.3-10.8-0.4
			c-7.3-0.1-14.6,0.1-21.7,0.6c-8.1,0.6-15.8,1.6-22.9,2.8C141.9,352.5,135.9,354,130.8,355.5z"/>
		<path class="st27" d="M133.2,356.1c-13.8,3.7-23,7.9-25.2,13.7c-1.4,3.8-0.1,7.3,3.7,10.7c3,2.7,7.8,5.2,14.1,7.3
			c6.5,2.2,14.9,4,24.6,5.3c5.5,0.7,11.4,1.3,17.6,1.7c6.9,0.4,14.2,0.6,21.9,0.5c6-0.1,12.1-0.2,18.1-0.5
			c6.4-0.3,12.6-0.8,18.6-1.5c2.4-0.3,4.7-0.5,6.9-0.9c2.6-0.4,5-0.8,7.3-1.2c3.9-0.7,7.5-1.5,10.7-2.3c5.4-1.4,9.9-2.8,13.5-4.3
			c5.4-2.3,9.3-4.9,11.9-7.4c3.2-3.1,4.2-6.2,3-9.3c-1.5-3.6-5.8-6.3-12.5-8.4c-3.2-1-6.8-2-10.9-2.9c-3.9-0.9-8.1-1.8-12.7-2.6
			c-3.4-0.6-7-1.2-10.7-1.7c-1.3-0.2-2.6-0.4-4-0.5c-5.4-0.7-11.1-1.3-17.1-1.7c-2.9-0.2-5.8-0.4-8.8-0.6c-3.5-0.2-7.1-0.3-10.6-0.3
			c-7.2-0.1-14.4,0.1-21.3,0.6c-7.6,0.6-14.8,1.4-21.4,2.5C143.7,353.5,138.1,354.8,133.2,356.1z"/>
		<path class="st28" d="M135.6,356.8c-13.9,3.6-23.1,7.8-25.2,13.6c-1.3,3.7,0.1,7.2,4.1,10.5c3.1,2.6,7.8,5,14,7.1
			c6.4,2.1,14.7,3.9,24.1,5.2c5.4,0.7,11.1,1.3,17.2,1.6c6.8,0.4,13.9,0.5,21.4,0.4c5.8-0.1,11.6-0.3,17.2-0.6
			c6.1-0.3,12-0.8,17.7-1.5c2.3-0.3,4.4-0.5,6.6-0.8c2.4-0.3,4.8-0.7,7-1.1c3.7-0.7,7.1-1.4,10.2-2.2c5.1-1.3,9.4-2.6,12.9-4.1
			c5.4-2.3,9.3-4.8,11.9-7.3c3.3-3.1,4.4-6.2,3.2-9.3c-1.4-3.6-5.7-6.2-12.2-8.3c-3.1-1-6.7-1.9-10.7-2.7c-3.8-0.8-8-1.7-12.6-2.4
			c-3.3-0.5-6.9-1.1-10.6-1.5c-1.3-0.2-2.6-0.3-3.9-0.5c-5.3-0.6-10.9-1.1-16.9-1.6c-2.8-0.2-5.7-0.4-8.6-0.6
			c-3.5-0.2-7-0.3-10.4-0.3c-7.1-0.1-14.2,0.1-21,0.6c-7,0.5-13.7,1.3-19.9,2.3C145.5,354.4,140.2,355.6,135.6,356.8z"/>
		<path class="st29" d="M138.1,357.4c-13.9,3.4-23.2,7.7-25.1,13.6c-1.2,3.6,0.4,7.1,4.5,10.4c3.1,2.5,7.8,4.8,13.9,6.9
			c6.3,2.1,14.4,3.8,23.6,5c5.3,0.7,10.9,1.2,16.9,1.5c6.6,0.4,13.7,0.5,21,0.3c5.5-0.1,11-0.3,16.4-0.6c5.8-0.4,11.4-0.8,16.8-1.4
			c2.1-0.2,4.2-0.5,6.2-0.8c2.3-0.3,4.5-0.7,6.6-1.1c3.5-0.6,6.7-1.3,9.7-2.1c4.8-1.2,8.9-2.4,12.2-3.8c5.3-2.2,9.3-4.7,11.9-7.2
			c3.4-3.1,4.6-6.2,3.5-9.3c-1.3-3.6-5.5-6.1-12-8.1c-3.1-1-6.6-1.7-10.6-2.6c-3.7-0.8-7.9-1.6-12.4-2.2c-3.3-0.5-6.8-1-10.4-1.4
			c-1.3-0.1-2.6-0.3-3.9-0.4c-5.2-0.6-10.8-1-16.6-1.4c-2.8-0.2-5.6-0.4-8.5-0.5c-3.4-0.2-6.8-0.3-10.2-0.3
			c-7-0.1-13.9,0.1-20.6,0.6c-6.5,0.5-12.7,1.2-18.4,2.1C147.2,355.3,142.4,356.4,138.1,357.4z"/>
		<path class="st30" d="M140.5,358.1c-14,3.3-23.3,7.6-25.1,13.5c-1.1,3.5,0.6,7,4.8,10.2c3.2,2.4,7.8,4.7,13.8,6.7
			c6.2,2,14.1,3.7,23.1,4.9c5.2,0.7,10.7,1.2,16.5,1.5c6.5,0.3,13.4,0.4,20.5,0.2c5.3-0.1,10.4-0.4,15.5-0.7
			c5.5-0.4,10.8-0.8,15.9-1.4c2-0.2,4-0.5,5.9-0.8c2.2-0.3,4.3-0.7,6.3-1c3.3-0.6,6.3-1.3,9.2-2c4.5-1.1,8.3-2.2,11.6-3.6
			c5.3-2.2,9.3-4.7,12-7.1c3.5-3.1,4.8-6.2,3.8-9.2c-1.2-3.6-5.4-6.1-11.8-8c-3-0.9-6.6-1.6-10.5-2.4c-3.7-0.7-7.8-1.4-12.2-2.1
			c-3.2-0.5-6.7-0.9-10.3-1.3c-1.2-0.1-2.5-0.3-3.8-0.4c-5.1-0.5-10.6-0.9-16.3-1.3c-2.7-0.2-5.5-0.3-8.3-0.5
			c-3.4-0.2-6.7-0.2-10.1-0.3c-6.9-0.1-13.7,0.1-20.2,0.6c-6,0.4-11.7,1-17,1.8C149,356.2,144.5,357.2,140.5,358.1z"/>
		<path class="st31" d="M143,358.8c-14.1,3.2-23.4,7.5-25.1,13.4c-1,3.5,0.9,6.8,5.2,10c3.2,2.3,7.9,4.5,13.7,6.4
			c6.1,2,13.8,3.6,22.6,4.7c5.1,0.6,10.5,1.1,16.1,1.4c6.4,0.3,13.1,0.4,20.1,0.1c5-0.2,9.9-0.4,14.6-0.7c5.2-0.4,10.2-0.8,15-1.4
			c1.9-0.2,3.8-0.5,5.6-0.7c2.1-0.3,4-0.6,5.9-1c3.1-0.6,6-1.2,8.7-1.8c4.1-1,7.8-2.1,10.9-3.3c5.3-2.1,9.2-4.6,12-7
			c3.6-3.1,5-6.2,4.1-9.2c-1.1-3.6-5.2-6-11.5-7.9c-3-0.9-6.5-1.5-10.3-2.2c-3.6-0.6-7.7-1.3-12-1.9c-3.2-0.4-6.6-0.8-10.1-1.1
			c-1.2-0.1-2.5-0.2-3.7-0.3c-5-0.4-10.4-0.8-16-1.2c-2.7-0.2-5.4-0.3-8.2-0.4c-3.3-0.1-6.6-0.2-9.9-0.2c-6.8,0-13.5,0.1-19.9,0.6
			c-5.4,0.4-10.6,0.9-15.5,1.6C150.7,357.2,146.7,357.9,143,358.8z"/>
		<path class="st32" d="M120.4,372.7c-1.5,6,5.7,11.6,19.2,16c13.4,4.4,34.6,6.8,57.5,5.9c12.2-0.5,23.4-1.5,33.1-2.9
			c9.6-1.5,17.7-3.5,24-5.8c11.8-5,17.9-10.7,16.4-16c-1.5-5.3-9.6-8-21.5-9.8c-6.2-1.1-13.5-2-21.8-2.7c-8.3-0.7-17.6-1.3-27.5-1.7
			c-10.1-0.4-20-0.3-29.2,0.4c-9.2,0.6-17.7,1.7-25,3.3C131.2,362.4,121.8,366.8,120.4,372.7z"/>
	</g>
	<g>
		<g>
			
				<image style="overflow:visible;" width="820" height="1620" xlink:href="DDE4B84.png"  transform="matrix(0.24 0 0 0.24 26.96 1.84)">
			</image>
			
				<image style="overflow:visible;" width="1328" height="1621" xlink:href="DDE4B85.png"  transform="matrix(0.24 0 0 0.24 58.64 1.6)">
			</image>
			<g class="st33">
				
					<linearGradient id="SVGID_1_" gradientUnits="userSpaceOnUse" x1="6782.1924" y1="-1559.9249" x2="7096.0176" y2="-1559.9249" gradientTransform="matrix(4.600000e-02 0.9989 -0.9989 4.600000e-02 -1600.6864 -6665.9785)">
					<stop  offset="0" style="stop-color:#C78C2E"/>
					<stop  offset="0.1468" style="stop-color:#B47C1C"/>
					<stop  offset="0.402" style="stop-color:#966400"/>
					<stop  offset="0.4993" style="stop-color:#A97412"/>
					<stop  offset="0.6683" style="stop-color:#C78C2E"/>
					<stop  offset="0.8693" style="stop-color:#EBC154"/>
					<stop  offset="1" style="stop-color:#FFDF69"/>
				</linearGradient>
				<path class="st34" d="M239.8,349.6c14.4-4.4,28.5-11.9,40.6-21.7c13-10.5,23.9-23.6,32.6-38.5c21.7-37.1,29.6-82.1,19.4-128.2
					c-8.5-37.8-28.8-72.9-56.6-95.4c-17.8-14.4-37.6-21.1-58.8-25c-2.4-0.5-4.9-0.8-7.3-1l3.6,8.9c1.2,0.1,2.3,0.3,3.5,0.4
					c20.6,3.3,40.2,12.2,57.1,25.8c25.9,20.8,43,53.5,50.9,88.6c9.5,42.9,3.6,87.4-16.6,121.9c-8.1,13.9-17.7,26.4-29.8,36.2
					c-11.3,9.1-24.4,17-37.7,21.1c-4.5,1.4-9,2.4-13.7,3.1l-2.8,7.3C229.4,352.4,234.7,351.2,239.8,349.6z"/>
				
					<linearGradient id="SVGID_00000042017313399373090730000007202603320018271148_" gradientUnits="userSpaceOnUse" x1="6885.144" y1="-1607.3342" x2="7217.9023" y2="-1568.2894" gradientTransform="matrix(-3.413077e-02 0.9291 -0.915 0.1191 -948.1033 -6166.4873)">
					<stop  offset="0" style="stop-color:#C78C2E"/>
					<stop  offset="0.1468" style="stop-color:#B47C1C"/>
					<stop  offset="0.402" style="stop-color:#966400"/>
					<stop  offset="0.4993" style="stop-color:#A97412"/>
					<stop  offset="0.6683" style="stop-color:#C78C2E"/>
					<stop  offset="0.8693" style="stop-color:#EBC154"/>
					<stop  offset="1" style="stop-color:#FFDF69"/>
				</linearGradient>
				<path style="opacity:7.692308e-02;fill:url(#SVGID_00000042017313399373090730000007202603320018271148_);" d="M241.1,349.6
					c14.3-4.4,28.4-11.9,40.4-21.7c12.9-10.5,23.8-23.6,32.5-38.5c21.6-37.1,29.5-82.1,19.4-128.2c-8.5-37.8-28.7-72.9-56.5-95.4
					c-17.7-14.4-37.5-21.1-58.6-25.1c-2.4-0.5-4.8-0.8-7.3-1l3.5,8.9c1.2,0.1,2.3,0.3,3.5,0.4c20.6,3.3,40.1,12.2,57,25.8
					c25.9,20.9,42.8,53.5,50.8,88.6c9.5,42.9,3.6,87.4-16.5,121.9c-8.1,13.9-17.7,26.4-29.7,36.1c-11.2,9.1-24.3,17-37.6,21.1
					c-4.4,1.4-9,2.4-13.7,3.1l-2.8,7.3C230.8,352.4,236,351.2,241.1,349.6z"/>
				
					<linearGradient id="SVGID_00000115500399023512193690000006249020916409483659_" gradientUnits="userSpaceOnUse" x1="7021.4731" y1="-1691.1669" x2="7365.0259" y2="-1609.4186" gradientTransform="matrix(-0.1143 0.8594 -0.8311 0.1921 -295.5203 -5666.9966)">
					<stop  offset="0" style="stop-color:#C78C2E"/>
					<stop  offset="0.1468" style="stop-color:#B47C1C"/>
					<stop  offset="0.402" style="stop-color:#966400"/>
					<stop  offset="0.4993" style="stop-color:#A97412"/>
					<stop  offset="0.6683" style="stop-color:#C78C2E"/>
					<stop  offset="0.8693" style="stop-color:#EBC154"/>
					<stop  offset="1" style="stop-color:#FFDF69"/>
				</linearGradient>
				<path style="opacity:0.1538;fill:url(#SVGID_00000115500399023512193690000006249020916409483659_);" d="M242.4,349.6
					c14.3-4.4,28.3-11.9,40.3-21.7c12.9-10.5,23.8-23.6,32.4-38.5c21.5-37.1,29.4-82.1,19.3-128.2c-8.4-37.8-28.6-72.9-56.4-95.4
					c-17.7-14.4-37.4-21.1-58.5-25.1c-2.4-0.5-4.8-0.8-7.2-1l3.5,8.9c1.2,0.1,2.3,0.3,3.5,0.4c20.5,3.3,40,12.3,56.8,25.8
					c25.8,20.9,42.7,53.5,50.6,88.6c9.5,42.9,3.6,87.4-16.5,121.9c-8.1,13.9-17.6,26.4-29.6,36.1c-11.2,9.1-24.2,17-37.5,21.1
					c-4.4,1.4-9,2.4-13.6,3.1l-2.8,7.3C232.1,352.3,237.3,351.2,242.4,349.6z"/>
				
					<linearGradient id="SVGID_00000106139694567695373930000004174375980304643755_" gradientUnits="userSpaceOnUse" x1="7219.2183" y1="-1839.2946" x2="7564.8213" y2="-1712.9797" gradientTransform="matrix(-0.1944 0.7896 -0.7471 0.2652 357.0628 -5167.5054)">
					<stop  offset="0" style="stop-color:#C78C2E"/>
					<stop  offset="0.1468" style="stop-color:#B47C1C"/>
					<stop  offset="0.402" style="stop-color:#966400"/>
					<stop  offset="0.4993" style="stop-color:#A97412"/>
					<stop  offset="0.6683" style="stop-color:#C78C2E"/>
					<stop  offset="0.8693" style="stop-color:#EBC154"/>
					<stop  offset="1" style="stop-color:#FFDF69"/>
				</linearGradient>
				<path style="opacity:0.2308;fill:url(#SVGID_00000106139694567695373930000004174375980304643755_);" d="M243.7,349.5
					c14.3-4.4,28.2-11.9,40.2-21.7c12.9-10.5,23.7-23.6,32.3-38.5c21.5-37.1,29.4-82.1,19.2-128.2c-8.4-37.8-28.6-72.9-56.2-95.4
					c-17.6-14.4-37.3-21.1-58.3-25.1c-2.4-0.5-4.8-0.8-7.2-1l3.5,8.9c1.2,0.1,2.3,0.3,3.5,0.4c20.4,3.3,39.9,12.3,56.7,25.8
					c25.7,20.9,42.6,53.5,50.5,88.7c9.5,42.9,3.6,87.4-16.4,121.9c-8,13.9-17.6,26.4-29.6,36.1c-11.2,9.1-24.2,17-37.4,21.1
					c-4.4,1.4-9,2.4-13.6,3.1l-2.8,7.3C233.4,352.3,238.6,351.1,243.7,349.5z"/>
				
					<linearGradient id="SVGID_00000168799425709100579860000007824587920327221645_" gradientUnits="userSpaceOnUse" x1="7549.3428" y1="-2124.3013" x2="7888.1162" y2="-1953.403" gradientTransform="matrix(-0.2745 0.7199 -0.6632 0.3382 1009.6459 -4668.0142)">
					<stop  offset="0" style="stop-color:#C78C2E"/>
					<stop  offset="0.1468" style="stop-color:#B47C1C"/>
					<stop  offset="0.402" style="stop-color:#966400"/>
					<stop  offset="0.4993" style="stop-color:#A97412"/>
					<stop  offset="0.6683" style="stop-color:#C78C2E"/>
					<stop  offset="0.8693" style="stop-color:#EBC154"/>
					<stop  offset="1" style="stop-color:#FFDF69"/>
				</linearGradient>
				<path style="opacity:0.3077;fill:url(#SVGID_00000168799425709100579860000007824587920327221645_);" d="M245,349.5
					c14.2-4.4,28.1-11.9,40.1-21.6c12.8-10.5,23.6-23.6,32.2-38.5c21.4-37.1,29.3-82.1,19.2-128.2c-8.4-37.8-28.5-72.9-56.1-95.4
					c-17.6-14.4-37.2-21.1-58.2-25.1c-2.4-0.5-4.8-0.8-7.2-1l3.5,8.9c1.2,0.1,2.3,0.3,3.5,0.4c20.4,3.3,39.8,12.3,56.5,25.8
					c25.7,20.9,42.5,53.5,50.4,88.7c9.4,42.9,3.6,87.4-16.4,121.9c-8,13.9-17.5,26.4-29.5,36.1c-11.1,9.1-24.1,17-37.3,21.1
					c-4.4,1.4-8.9,2.4-13.5,3.1l-2.8,7.3C234.7,352.2,239.9,351.1,245,349.5z"/>
				
					<linearGradient id="SVGID_00000103223729095988088960000002812232796295757229_" gradientUnits="userSpaceOnUse" x1="8269.6328" y1="-2814.8481" x2="8593.2207" y2="-2600.9824" gradientTransform="matrix(-0.3547 0.6501 -0.5793 0.4113 1662.2289 -4168.5234)">
					<stop  offset="0" style="stop-color:#C78C2E"/>
					<stop  offset="0.1468" style="stop-color:#B47C1C"/>
					<stop  offset="0.402" style="stop-color:#966400"/>
					<stop  offset="0.4993" style="stop-color:#A97412"/>
					<stop  offset="0.6683" style="stop-color:#C78C2E"/>
					<stop  offset="0.8693" style="stop-color:#EBC154"/>
					<stop  offset="1" style="stop-color:#FFDF69"/>
				</linearGradient>
				<path style="opacity:0.3846;fill:url(#SVGID_00000103223729095988088960000002812232796295757229_);" d="M246.3,349.4
					c14.2-4.4,28.1-11.9,40-21.6c12.8-10.5,23.6-23.6,32.1-38.5c21.4-37.1,29.2-82.1,19.1-128.2c-8.4-37.8-28.4-72.9-56-95.4
					c-17.6-14.4-37.1-21.1-58-25.1c-2.4-0.5-4.8-0.8-7.2-1l3.5,8.9c1.2,0.1,2.3,0.3,3.5,0.4c20.3,3.3,39.7,12.3,56.4,25.8
					c25.6,20.9,42.4,53.5,50.3,88.7c9.4,42.9,3.6,87.4-16.3,121.9c-8,13.9-17.5,26.4-29.4,36.1c-11.1,9.1-24,17-37.2,21.1
					c-4.4,1.4-8.9,2.4-13.5,3.1l-2.8,7.3C236.1,352.2,241.2,351,246.3,349.4z"/>
				
					<linearGradient id="SVGID_00000117656322777976278070000009064562029028761256_" gradientUnits="userSpaceOnUse" x1="11698.498" y1="-6341.1406" x2="12002.0195" y2="-6085.0645" gradientTransform="matrix(-0.4348 0.5804 -0.4954 0.4843 2314.812 -3669.0322)">
					<stop  offset="0" style="stop-color:#C78C2E"/>
					<stop  offset="0.1468" style="stop-color:#B47C1C"/>
					<stop  offset="0.402" style="stop-color:#966400"/>
					<stop  offset="0.4993" style="stop-color:#A97412"/>
					<stop  offset="0.6683" style="stop-color:#C78C2E"/>
					<stop  offset="0.8693" style="stop-color:#EBC154"/>
					<stop  offset="1" style="stop-color:#FFDF69"/>
				</linearGradient>
				<path style="opacity:0.4615;fill:url(#SVGID_00000117656322777976278070000009064562029028761256_);" d="M247.6,349.4
					c14.1-4.4,28-11.9,39.9-21.6c12.8-10.5,23.5-23.6,32.1-38.5c21.3-37.1,29.1-82.1,19-128.2c-8.4-37.8-28.4-72.9-55.8-95.5
					c-17.5-14.4-37-21.1-57.9-25.1c-2.4-0.5-4.8-0.8-7.2-1l3.5,8.9c1.2,0.1,2.3,0.3,3.5,0.4c20.3,3.3,39.6,12.3,56.2,25.8
					c25.5,20.9,42.3,53.5,50.1,88.7c9.4,42.9,3.6,87.4-16.2,121.9c-8,13.9-17.4,26.4-29.3,36.1c-11.1,9.1-24,17-37.1,21.1
					c-4.4,1.4-8.9,2.4-13.5,3.1l-2.8,7.3C237.4,352.2,242.5,351,247.6,349.4z"/>
				
					<linearGradient id="SVGID_00000139273996038984601230000009572162510640217478_" gradientUnits="userSpaceOnUse" x1="1603.843" y1="4319.5117" x2="1863.5046" y2="4596.4702" gradientTransform="matrix(-0.5149 0.5106 -0.4114 0.5574 2967.395 -3169.5413)">
					<stop  offset="0" style="stop-color:#C78C2E"/>
					<stop  offset="0.1468" style="stop-color:#B47C1C"/>
					<stop  offset="0.402" style="stop-color:#966400"/>
					<stop  offset="0.4993" style="stop-color:#A97412"/>
					<stop  offset="0.6683" style="stop-color:#C78C2E"/>
					<stop  offset="0.8693" style="stop-color:#EBC154"/>
					<stop  offset="1" style="stop-color:#FFDF69"/>
				</linearGradient>
				<path style="opacity:0.5385;fill:url(#SVGID_00000139273996038984601230000009572162510640217478_);" d="M248.9,349.4
					c14.1-4.4,27.9-11.9,39.8-21.6c12.7-10.5,23.4-23.6,32-38.5c21.2-37.1,29-82.1,19-128.2c-8.4-37.8-28.3-72.9-55.7-95.5
					c-17.5-14.4-36.9-21.1-57.7-25.1c-2.4-0.5-4.8-0.8-7.1-1l3.5,8.9c1.2,0.1,2.3,0.3,3.5,0.4c20.2,3.3,39.5,12.3,56.1,25.8
					c25.5,20.9,42.2,53.5,50,88.7c9.4,42.9,3.6,87.4-16.2,121.9c-7.9,13.9-17.4,26.4-29.2,36.1c-11,9.1-23.9,17-37,21.1
					c-4.4,1.4-8.9,2.4-13.4,3.1l-2.8,7.3C238.7,352.1,243.9,350.9,248.9,349.4z"/>
				
					<linearGradient id="SVGID_00000018946371102719407420000000486763560061300657_" gradientUnits="userSpaceOnUse" x1="5038.1528" y1="797.7794" x2="5264.7329" y2="1104.415" gradientTransform="matrix(-0.595 0.4409 -0.3275 0.6304 3619.978 -2670.05)">
					<stop  offset="0" style="stop-color:#C78C2E"/>
					<stop  offset="0.1468" style="stop-color:#B47C1C"/>
					<stop  offset="0.402" style="stop-color:#966400"/>
					<stop  offset="0.4993" style="stop-color:#A97412"/>
					<stop  offset="0.6683" style="stop-color:#C78C2E"/>
					<stop  offset="0.8693" style="stop-color:#EBC154"/>
					<stop  offset="1" style="stop-color:#FFDF69"/>
				</linearGradient>
				<path style="opacity:0.6154;fill:url(#SVGID_00000018946371102719407420000000486763560061300657_);" d="M250.2,349.3
					c14.1-4.4,27.8-11.9,39.7-21.6c12.7-10.5,23.4-23.6,31.9-38.5c21.2-37.1,28.9-82.1,18.9-128.2c-8.3-37.8-28.2-72.9-55.5-95.5
					c-17.4-14.4-36.8-21.1-57.6-25.1c-2.4-0.5-4.8-0.8-7.1-1l3.5,8.9c1.1,0.1,2.3,0.3,3.4,0.4c20.2,3.3,39.4,12.3,55.9,25.8
					c25.4,20.9,42.1,53.5,49.9,88.7c9.4,42.9,3.6,87.4-16.1,121.9c-7.9,13.9-17.3,26.4-29.1,36.1c-11,9.1-23.8,17-36.9,21.1
					c-4.4,1.4-8.8,2.4-13.4,3.1l-2.7,7.3C240,352.1,245.2,350.9,250.2,349.3z"/>
				
					<linearGradient id="SVGID_00000003818151434833555140000005617593428475792305_" gradientUnits="userSpaceOnUse" x1="5767.8999" y1="116.7885" x2="5953.8735" y2="441.9214" gradientTransform="matrix(-0.6752 0.3711 -0.2436 0.7035 4272.561 -2170.5591)">
					<stop  offset="0" style="stop-color:#C78C2E"/>
					<stop  offset="0.1468" style="stop-color:#B47C1C"/>
					<stop  offset="0.402" style="stop-color:#966400"/>
					<stop  offset="0.4993" style="stop-color:#A97412"/>
					<stop  offset="0.6683" style="stop-color:#C78C2E"/>
					<stop  offset="0.8693" style="stop-color:#EBC154"/>
					<stop  offset="1" style="stop-color:#FFDF69"/>
				</linearGradient>
				<path style="opacity:0.6923;fill:url(#SVGID_00000003818151434833555140000005617593428475792305_);" d="M251.5,349.3
					c14-4.4,27.8-11.8,39.6-21.6c12.6-10.5,23.3-23.6,31.8-38.5c21.1-37.1,28.8-82.1,18.8-128.2c-8.3-37.8-28.2-73-55.4-95.5
					c-17.4-14.4-36.7-21.1-57.4-25.1c-2.4-0.5-4.7-0.8-7.1-1l3.5,8.9c1.1,0.1,2.3,0.3,3.4,0.5c20.1,3.3,39.3,12.3,55.8,25.9
					c25.3,20.9,42,53.5,49.8,88.7c9.3,42.9,3.6,87.4-16.1,121.9c-7.9,13.9-17.3,26.4-29.1,36.1c-11,9.1-23.8,17-36.8,21.1
					c-4.3,1.4-8.8,2.4-13.4,3.1l-2.7,7.3C241.4,352,246.5,350.9,251.5,349.3z"/>
				
					<linearGradient id="SVGID_00000011745599777660485310000006433523250158628274_" gradientUnits="userSpaceOnUse" x1="6110.8535" y1="-155.1705" x2="6253.3594" y2="179.3029" gradientTransform="matrix(-0.7553 0.3014 -0.1597 0.7765 4925.144 -1671.068)">
					<stop  offset="0" style="stop-color:#C78C2E"/>
					<stop  offset="0.1468" style="stop-color:#B47C1C"/>
					<stop  offset="0.402" style="stop-color:#966400"/>
					<stop  offset="0.4993" style="stop-color:#A97412"/>
					<stop  offset="0.6683" style="stop-color:#C78C2E"/>
					<stop  offset="0.8693" style="stop-color:#EBC154"/>
					<stop  offset="1" style="stop-color:#FFDF69"/>
				</linearGradient>
				<path style="opacity:0.7692;fill:url(#SVGID_00000011745599777660485310000006433523250158628274_);" d="M252.8,349.2
					c14-4.4,27.7-11.8,39.5-21.6c12.6-10.5,23.2-23.6,31.7-38.5c21-37.1,28.7-82.1,18.8-128.2c-8.3-37.8-28.1-73-55.3-95.5
					c-17.3-14.4-36.6-21.1-57.3-25.1c-2.4-0.5-4.7-0.8-7.1-1l3.5,8.9c1.1,0.1,2.3,0.3,3.4,0.5c20.1,3.3,39.2,12.3,55.6,25.9
					c25.3,20.9,41.9,53.5,49.6,88.7c9.3,42.9,3.6,87.4-16,121.9c-7.9,13.9-17.2,26.4-29,36.1c-11,9.1-23.7,17-36.7,21.1
					c-4.3,1.4-8.8,2.4-13.3,3.1l-2.7,7.3C242.7,352,247.8,350.8,252.8,349.2z"/>
				
					<linearGradient id="SVGID_00000051378087572112881820000003924556465044764333_" gradientUnits="userSpaceOnUse" x1="6323.1489" y1="-288.4308" x2="6421.5576" y2="46.2641" gradientTransform="matrix(-0.8354 0.2316 -7.574616e-02 0.8496 5577.7271 -1171.577)">
					<stop  offset="0" style="stop-color:#C78C2E"/>
					<stop  offset="0.1468" style="stop-color:#B47C1C"/>
					<stop  offset="0.402" style="stop-color:#966400"/>
					<stop  offset="0.4993" style="stop-color:#A97412"/>
					<stop  offset="0.6683" style="stop-color:#C78C2E"/>
					<stop  offset="0.8693" style="stop-color:#EBC154"/>
					<stop  offset="1" style="stop-color:#FFDF69"/>
				</linearGradient>
				<path style="opacity:0.8462;fill:url(#SVGID_00000051378087572112881820000003924556465044764333_);" d="M254.1,349.2
					c13.9-4.4,27.6-11.8,39.3-21.6c12.6-10.5,23.2-23.6,31.6-38.5c21-37.1,28.7-82.1,18.7-128.2c-8.3-37.8-28-73-55.1-95.5
					c-17.3-14.4-36.5-21.1-57.1-25.1c-2.4-0.5-4.7-0.8-7.1-1l3.5,8.9c1.1,0.1,2.3,0.3,3.4,0.5c20,3.3,39.1,12.3,55.5,25.9
					c25.2,20.9,41.8,53.5,49.5,88.7c9.3,42.9,3.6,87.4-16,121.9c-7.8,13.8-17.2,26.4-28.9,36.1c-10.9,9.1-23.6,17-36.6,21.1
					c-4.3,1.4-8.8,2.4-13.3,3.1l-2.7,7.3C244,351.9,249.1,350.8,254.1,349.2z"/>
				
					<linearGradient id="SVGID_00000059292569818264203330000013561259265680674442_" gradientUnits="userSpaceOnUse" x1="6473.873" y1="-357.3729" x2="6529.5596" y2="-31.33" gradientTransform="matrix(-0.9156 0.1619 8.176920e-03 0.9226 6230.3105 -672.0859)">
					<stop  offset="0" style="stop-color:#C78C2E"/>
					<stop  offset="0.1468" style="stop-color:#B47C1C"/>
					<stop  offset="0.402" style="stop-color:#966400"/>
					<stop  offset="0.4993" style="stop-color:#A97412"/>
					<stop  offset="0.6683" style="stop-color:#C78C2E"/>
					<stop  offset="0.8693" style="stop-color:#EBC154"/>
					<stop  offset="1" style="stop-color:#FFDF69"/>
				</linearGradient>
				<path style="opacity:0.9231;fill:url(#SVGID_00000059292569818264203330000013561259265680674442_);" d="M255.4,349.2
					c13.9-4.4,27.5-11.8,39.2-21.6c12.5-10.5,23.1-23.6,31.5-38.5c20.9-37.1,28.6-82,18.6-128.2c-8.3-37.8-28-73-55-95.5
					c-17.2-14.4-36.4-21.1-57-25.1c-2.4-0.5-4.7-0.8-7-1l3.5,8.9c1.1,0.1,2.3,0.3,3.4,0.5c20,3.3,39,12.3,55.3,25.9
					c25.1,20.9,41.7,53.5,49.4,88.7c9.3,42.9,3.6,87.4-15.9,121.9c-7.8,13.8-17.1,26.4-28.8,36.1c-10.9,9.1-23.6,17-36.5,21.1
					c-4.3,1.4-8.8,2.4-13.3,3.1l-2.7,7.3C245.3,351.9,250.4,350.7,255.4,349.2z"/>
				
					<linearGradient id="SVGID_00000141446591516632346150000002014820564421209223_" gradientUnits="userSpaceOnUse" x1="6589.4946" y1="-391.4012" x2="6605.6953" y2="-82.2727" gradientTransform="matrix(-0.9957 9.210000e-02 9.210000e-02 0.9957 6882.8936 -172.5949)">
					<stop  offset="0" style="stop-color:#C78C2E"/>
					<stop  offset="0.1468" style="stop-color:#B47C1C"/>
					<stop  offset="0.402" style="stop-color:#966400"/>
					<stop  offset="0.4993" style="stop-color:#A97412"/>
					<stop  offset="0.6683" style="stop-color:#C78C2E"/>
					<stop  offset="0.8693" style="stop-color:#EBC154"/>
					<stop  offset="1" style="stop-color:#FFDF69"/>
				</linearGradient>
				<path style="fill:url(#SVGID_00000141446591516632346150000002014820564421209223_);" d="M256.7,349.1
					c13.9-4.4,27.5-11.8,39.1-21.6c12.5-10.5,23-23.6,31.4-38.4c20.9-37.1,28.5-82,18.6-128.2c-8.2-37.8-27.9-73-54.8-95.5
					c-17.2-14.4-36.3-21.1-56.8-25.1c-2.4-0.5-4.7-0.8-7-1.1l3.4,8.9c1.1,0.1,2.3,0.3,3.4,0.5c19.9,3.3,38.9,12.3,55.2,25.9
					c25.1,20.9,41.6,53.6,49.3,88.7c9.3,42.9,3.6,87.4-15.8,121.9c-7.8,13.8-17.1,26.4-28.7,36.1c-10.9,9.1-23.5,17-36.4,21.1
					c-4.3,1.4-8.7,2.4-13.2,3.1l-2.7,7.3C246.7,351.9,251.7,350.7,256.7,349.1z"/>
			</g>
			
				<image style="overflow:visible;" width="1090" height="1341" xlink:href="DDE4B83.png"  transform="matrix(0.24 0 0 0.24 91.76 35.2)">
			</image>
		</g>
		
			<radialGradient id="SVGID_00000084516215482841356780000009437442953089457082_" cx="2390.427" cy="-1978.1996" r="101.6578" gradientTransform="matrix(-0.9663 -1.0635 -0.8832 0.8024 731.463 4371.9502)" gradientUnits="userSpaceOnUse">
			<stop  offset="0" style="stop-color:#E6E697"/>
			<stop  offset="0.214" style="stop-color:#CFCF8E"/>
			<stop  offset="0.6588" style="stop-color:#969678"/>
			<stop  offset="0.995" style="stop-color:#666666"/>
		</radialGradient>
		<path style="opacity:0.6;fill:url(#SVGID_00000084516215482841356780000009437442953089457082_);" d="M70.5,134.3
			C20.9,179.4,24.7,264.3,79,324c54.2,59.7,138.4,71.6,188,26.5c49.6-45,45.8-130-8.4-189.7C204.3,101.1,120.1,89.3,70.5,134.3z"/>
	</g>
</g>
</svg>
