<?xml version="1.0" encoding="utf-8"?>
<!-- Generator: Adobe Illustrator 27.6.1, SVG Export Plug-In . SVG Version: 6.00 Build 0)  -->
<svg version="1.1" id="objects" xmlns="http://www.w3.org/2000/svg" xmlns:xlink="http://www.w3.org/1999/xlink" x="0px" y="0px"
	 viewBox="0 0 400 400" style="enable-background:new 0 0 400 400;" xml:space="preserve">
<style type="text/css">
	.st0{fill:#000017;}
	.st1{fill:url(#SVGID_1_);}
	.st2{fill:#B58CE2;}
	.st3{fill:url(#SVGID_00000065074400267173948590000010695584521066639017_);}
	.st4{fill:#FFA912;}
	.st5{fill:url(#SVGID_00000114791031127061369920000010848732880160834219_);}
	.st6{fill:#FFB81E;}
</style>
<path class="st0" d="M113.2,346.6c28.2,4.7,61,7.9,87.7,8.1c29.2,0.3,46.9,2.4,76.4,1.3c7.5-0.3,28.7-9.9,38.2-9.2
	c8.2,0.6,25.6,5.1,30.5,2.2c33.3-19.5,61-44.7,50.3-87.6c-0.4-3.7-35.2,10.3-55.2,8.6c2.2-3.6,4.6-7.1,6.7-10.7c0-1.9-0.3-3.8,0-5.7
	c-48.7-6.1-91.1-14.9-141.2-15.1c-44.1-0.2-88.1,1-131.5,14c-8.4,6-16.2,4.6-25.2,0.9c-0.6,2-1,4-1.6,6c3,4.1,5.9,8.1,8.8,12.3
	c-18.6,0.2-34.7-0.3-53.1-6.4c7.3,15.2-11.4-12.2,3.1,15.5C21.7,308.6,75.8,344.9,113.2,346.6z"/>
<linearGradient id="SVGID_1_" gradientUnits="userSpaceOnUse" x1="16.6076" y1="301.6413" x2="625.5688" y2="301.6413" gradientTransform="matrix(-1 2.000000e-03 2.000000e-03 1 413.4153 -11.445)">
	<stop  offset="0.1343" style="stop-color:#69259A"/>
	<stop  offset="0.9985" style="stop-color:#1C1C72"/>
</linearGradient>
<path class="st1" d="M73.6,305.1c-12.9-6.7-23.1-8.9-34.5-11.6c-7.4-1.8-7.9-3.1-11.8-7.3c-7.5-8-14-15.3-23.2-20.9
	c0.8-0.6,2.2-1.1,3.3-1.5c9.5-2.9,11.6-5.2,23.7-5.5c4-0.1,21.2,5.4,27.1,7.3c-2-4.2-5.7-8.1-8.4-12.2c3.5-1,7.1-1.9,10.6-2.7
	c7.1,2.9,11,1.5,16.2-4.2c42.3-12.2,86.9-13.5,129.7-13.1c50.2,0.4,92.9,12.9,141.4,20.3c-2.1,3.5-4.7,7.3-6.3,10.6
	c4.3-0.5,17.6-11,20-10.9c13.9,0.6,29.8-10.3,34.5,8.4c8.4,33.4-24,63.8-54.1,79.8c-4.4,2.4-21.9-1.9-29.6-2.5
	c-8.8-0.7-29.4,8.5-36.2,8.7c-26.9,1-48.3-2-73.1-1.6c-22.7,0.3-43.9-1.2-66.4-2.6c-6.3-0.4-12.4-1.6-18.8-2.9
	C106.4,326.9,88.2,312.7,73.6,305.1z"/>
<path class="st2" d="M108.9,304.6c-0.5,1.2,0.9,2,2,2.2c1.1,0.3,2.8,0.5,3.3-0.7c0.5-1.2-0.9-2-2-2.3
	C111.1,303.6,109.4,303.4,108.9,304.6z"/>
<path class="st2" d="M220.1,313.5c-0.6,1.5,1.5,2.5,2.6,3c1.2,0.5,3.3,1,3.9-0.5c0.5-1.5-1.5-2.5-2.7-3
	C222.8,312.6,220.7,312,220.1,313.5z"/>
<path class="st2" d="M299.3,310.7c-0.2,1.6,2.6,2.5,3.6,3c1,0.5,3.3,1.3,3.4-0.3c0.1-1.5-2.4-2.5-3.5-3
	C301.7,310,299.5,309.2,299.3,310.7z"/>
<path class="st2" d="M165.6,317.3c-0.7,2.5-1.4,5-2.1,7.5c3.7-1.6,7.3-3.1,11-4.7c3.9,0,7.9,0,11.8-0.1c-1.6-2.2-3.2-4.4-4.7-6.6
	c0.6-2.6,1.2-5.3,1.9-7.9c-3.6,1.6-7.2,3.3-10.8,4.8c-3.9,0.1-7.8,0.2-11.7,0.4C162.5,313,164,315.2,165.6,317.3z"/>
<path class="st2" d="M343.4,296.9c3.2-1.9,6.6-3.2,9.7-5.2c-2-0.4-4-0.9-5.9-1.7c-0.1-1.9-0.2-3.7-0.1-5.6c-2.9,2.1-5.2,4.8-8.4,6.4
	c-3.3,1.6-7.1,1.9-10.5,2.9c1.7,1.5,3.5,2.8,5.6,3.9c0.1,2,0.2,3.9,0.6,5.8C337.5,301.6,340.2,298.9,343.4,296.9z"/>
<path class="st2" d="M273,310.1c-1.4,0.6-3.2,0.5-4.7,0.9c0.8,1,2.3,1.7,3,2.8c0.6,1,0.3,2.6,0.8,3.7c1.3-0.7,2.3-2,3.7-2.6
	c1.4-0.6,3.2-0.5,4.7-0.9c-0.8-1-2.4-1.7-3-2.8c-0.6-1.1-0.4-2.6-0.9-3.8C275.3,308.2,274.3,309.5,273,310.1z"/>
<linearGradient id="SVGID_00000062175821715143556530000008416471467314443679_" gradientUnits="userSpaceOnUse" x1="290.156" y1="257.9522" x2="44.6687" y2="266.7483">
	<stop  offset="1.742740e-02" style="stop-color:#EE9500"/>
	<stop  offset="1" style="stop-color:#E40000"/>
</linearGradient>
<path style="fill:url(#SVGID_00000062175821715143556530000008416471467314443679_);" d="M292.4,267.7
	c-11.8,16.9-76.9,25.4-102.1,22.3c-23.3-2.9-95.8-10.1-91.7-25c4.2-14.9,8.3-19.7,13.1-29.8c54.5-5.2,170.3,2.4,170.3,2.4
	S294.1,256.3,292.4,267.7z"/>
<path class="st4" d="M283.3,239.1c3.8,19.2-72.2,18.8-84.7,18.3c-12.4-0.5-91.6,0-88.1-20.3c3.5-20.3,65.5-16.4,84.8-15.7
	C214.7,222.1,279.5,220,283.3,239.1z"/>
<path class="st0" d="M276.7,237.2c3.1,16.6-66.8,15.8-78.5,16.2c-11.8,0.5-82.2-2-81.2-17.4c0.9-15.5,63.5-13,79.6-13.6
	C212.6,221.8,273.6,220.6,276.7,237.2z"/>
<linearGradient id="SVGID_00000046337736854760927130000004558943000620896655_" gradientUnits="userSpaceOnUse" x1="244.0564" y1="92.3914" x2="64.1389" y2="298.6965">
	<stop  offset="0.1343" style="stop-color:#69259A"/>
	<stop  offset="0.9985" style="stop-color:#1C1C72"/>
</linearGradient>
<path style="fill:url(#SVGID_00000046337736854760927130000004558943000620896655_);" d="M147.3,52.3c-25,28.1-54.3,51.7-87.6,70.6
	c5.8,19.1,2.1,35.3,5.7,55.8c0.5,3,25.7,11.6,32.4,8.6c1.5-0.7,6.3-13.6,5-17c-1.3-3.4-3.1-5.1-6.2-2.6c-2.5,2-4.6,4.4-7,6.4
	c-3.2-2.1-6.4-4.2-9.6-6.3c3.6-7.8,5.8-15.9,7.7-24.3c16.6-3.5,31.5-9.7,46.5-17.7c2.5,16.3,10.7,29.1,14.5,46
	c-0.3,10.7-31.2,57-30,60.2c5.4,14.3,54.6,15.7,77.7,16.1c24.9,0.4,75,0.4,80.4-12.9c1.9-4.7-8.2-66.8-21.8-89.2
	c-13.6-22.4-59.4-68.7-82.4-91.9C161,42.4,159.3,38.9,147.3,52.3z"/>
<path class="st2" d="M198.6,158.2c3.3,5.2,6.4,10.5,9.6,15.8c-0.8-6.1-1.6-12.3-2.4-18.4c5.5-3.5,11-7.1,16.6-10.5
	c-6.6,1.1-13.2,2.2-19.8,3.3c-3.4-4.4-6.8-8.7-10.3-13c1,5.2,2,10.5,3,15.7c-6.3,3.1-12.6,6.1-19,9.2
	C183.7,159.6,191.2,159,198.6,158.2z"/>
<path class="st2" d="M228.4,204.5c-0.5,2,0.8,3.9,2.5,4.8s3.5,0.4,4-1.6c0.5-2-0.8-3.9-2.5-4.7C230.6,202,228.8,202.5,228.4,204.5z"
	/>
<path class="st2" d="M164.8,90.5c-1,1.3-3,1.9-4.2,3c1.5,0.8,3.6,0.9,5,1.9c1.4,0.9,2.2,2.7,3.4,3.8c0.8-1.3,0.9-3.3,1.9-4.5
	c1-1.3,3-1.9,4.2-3c-1.5-0.8-3.6-0.8-5-1.8c-1.4-0.9-2.1-2.8-3.3-3.8C166,87.4,165.8,89.3,164.8,90.5z"/>
<path class="st2" d="M161.7,216.1c-1.4,0.8-3.4,0.5-4.9,0.9c1.1,1.3,2.3,2.5,3.4,3.8c0.3,1.6,0.6,3.3,0.9,4.9
	c1.4-0.9,2.3-2.6,3.8-3.4c1.4-0.7,3.5-0.5,5-1.1c-1.1-1.2-2.3-2.5-3.5-3.7c-0.3-1.7-0.7-3.4-1-5.1
	C164.1,213.5,163.2,215.3,161.7,216.1z"/>
<path class="st2" d="M113.3,113.2c-1.9,0.5-3.8,1-5.7,1.5c2,0.4,4,0.7,6.1,1.1c0.7,2.1,1.4,4.1,2.2,6.2c0.1-2.1,0.3-4.3,0.5-6.4
	c1.8-0.6,3.6-1.3,5.4-2c-1.9-0.2-3.8-0.4-5.7-0.6c-0.6-2.4-1.2-4.7-1.8-7.1C113.9,108.3,113.6,110.8,113.3,113.2z"/>
<g>
	<g>
		<path class="st6" d="M198,267.2c-1.9,0-3.9-0.1-5.8-0.1c-0.5,0-0.9-0.4-0.9-1c0-0.5,0.5-0.9,1-0.9c1.9,0.1,3.8,0.1,5.8,0.1
			c0.5,0,0.9,0.4,0.9,1C199,266.8,198.6,267.2,198,267.2z M205.8,267.2c-0.5,0-0.9-0.4-0.9-0.9c0-0.5,0.4-0.9,0.9-1
			c1.9,0,3.8-0.1,5.8-0.1c0.5-0.1,1,0.4,1,0.9c0,0.5-0.4,1-0.9,1C209.6,267.1,207.7,267.1,205.8,267.2
			C205.8,267.2,205.8,267.2,205.8,267.2z M184.6,266.7c-2-0.1-3.9-0.2-5.8-0.4c-0.5,0-0.9-0.5-0.9-1c0-0.5,0.5-0.9,1-0.9
			c1.9,0.1,3.8,0.3,5.8,0.4c0.5,0,0.9,0.5,0.9,1C185.5,266.4,185,266.7,184.6,266.7z M219.3,266.7c-0.5,0-0.9-0.4-0.9-0.9
			c0-0.5,0.4-1,0.9-1c1.9-0.1,3.8-0.2,5.8-0.4c0.5,0,1,0.3,1,0.9c0,0.5-0.3,1-0.9,1C223.2,266.4,221.2,266.6,219.3,266.7
			C219.3,266.7,219.3,266.7,219.3,266.7z M171.1,265.8c-2-0.2-4-0.4-5.9-0.6c-0.5-0.1-0.9-0.5-0.8-1c0.1-0.5,0.5-0.9,1-0.8
			c1.9,0.2,3.8,0.4,5.7,0.6c0.5,0,0.9,0.5,0.8,1C172,265.4,171.6,265.8,171.1,265.8z M232.7,265.6c-0.5,0-0.9-0.4-0.9-0.8
			c-0.1-0.5,0.3-1,0.8-1c1.9-0.2,3.8-0.4,5.7-0.7c0.5-0.1,1,0.3,1.1,0.8c0.1,0.5-0.3,1-0.8,1.1C236.7,265.2,234.7,265.4,232.7,265.6
			C232.8,265.6,232.7,265.6,232.7,265.6z M157.7,264.2c0,0-0.1,0-0.1,0c-1.9-0.3-3.9-0.6-5.7-0.9c-0.5-0.1-0.9-0.6-0.8-1.1
			c0.1-0.5,0.6-0.9,1.1-0.8c1.9,0.3,3.8,0.6,5.7,0.9c0.5,0.1,0.9,0.6,0.8,1.1C158.5,263.8,158.1,264.2,157.7,264.2z M246.1,263.8
			c-0.5,0-0.9-0.3-0.9-0.8c-0.1-0.5,0.3-1,0.8-1.1c1.9-0.3,3.8-0.6,5.7-1c0.5-0.1,1,0.2,1.1,0.7c0.1,0.5-0.2,1-0.7,1.1
			c-1.9,0.4-3.8,0.7-5.7,1C246.2,263.8,246.1,263.8,246.1,263.8z M144.4,261.9c-0.1,0-0.1,0-0.2,0c-1.9-0.4-3.8-0.8-5.7-1.2
			c-0.5-0.1-0.8-0.6-0.7-1.1c0.1-0.5,0.6-0.8,1.1-0.7c1.8,0.4,3.7,0.8,5.6,1.2c0.5,0.1,0.8,0.6,0.7,1.1
			C145.2,261.6,144.8,261.9,144.4,261.9z M259.3,261.2c-0.4,0-0.8-0.3-0.9-0.7c-0.1-0.5,0.2-1,0.7-1.1c1.9-0.4,3.8-0.9,5.6-1.4
			c0.5-0.1,1,0.2,1.2,0.7c0.1,0.5-0.2,1-0.7,1.2c-1.8,0.5-3.7,1-5.6,1.4C259.5,261.2,259.4,261.2,259.3,261.2z M131.2,258.9
			c-0.1,0-0.2,0-0.2,0c-1.9-0.5-3.8-1.1-5.6-1.6c-0.5-0.2-0.8-0.7-0.6-1.2c0.2-0.5,0.7-0.8,1.2-0.6c1.8,0.6,3.6,1.1,5.5,1.6
			c0.5,0.1,0.8,0.7,0.7,1.2C132,258.6,131.6,258.9,131.2,258.9z M272.3,257.6c-0.4,0-0.8-0.3-0.9-0.6c-0.2-0.5,0.1-1,0.6-1.2
			c1.9-0.6,3.7-1.3,5.4-1.9c0.5-0.2,1,0.1,1.2,0.5c0.2,0.5-0.1,1-0.5,1.2c-1.8,0.7-3.6,1.3-5.5,2
			C272.5,257.6,272.4,257.6,272.3,257.6z M118.4,254.7c-0.1,0-0.2,0-0.3-0.1c-1.9-0.7-3.7-1.5-5.4-2.3c-0.5-0.2-0.7-0.8-0.4-1.3
			c0.2-0.5,0.8-0.7,1.3-0.4c1.6,0.8,3.4,1.5,5.2,2.3c0.5,0.2,0.7,0.7,0.5,1.2C119.1,254.4,118.8,254.7,118.4,254.7z"/>
	</g>
</g>
<g>
	<g>
		<path class="st6" d="M202.7,283.2c-1.9,0-3.9-0.1-5.8-0.1c-0.5,0-0.9-0.5-0.9-1c0-0.5,0.5-0.9,1-0.9c1.9,0.1,3.8,0.1,5.7,0.1
			c0.5,0,0.9,0.4,0.9,1C203.6,282.8,203.2,283.2,202.7,283.2z M210.4,283.2c-0.5,0-0.9-0.4-0.9-0.9c0-0.5,0.4-0.9,0.9-1
			c1.9,0,3.8-0.1,5.7-0.2c0.5,0,1,0.4,1,0.9c0,0.5-0.4,1-0.9,1C214.2,283.1,212.3,283.2,210.4,283.2
			C210.4,283.2,210.4,283.2,210.4,283.2z M189.3,282.7c-2-0.1-3.9-0.3-5.8-0.4c-0.5,0-0.9-0.5-0.9-1c0-0.5,0.5-0.9,1-0.9
			c1.9,0.2,3.8,0.3,5.7,0.4c0.5,0,0.9,0.5,0.9,1C190.2,282.3,189.8,282.7,189.3,282.7z M223.8,282.6c-0.5,0-0.9-0.4-0.9-0.9
			c0-0.5,0.3-1,0.9-1c1.9-0.1,3.8-0.3,5.7-0.5c0.5,0,1,0.3,1,0.8c0.1,0.5-0.3,1-0.8,1C227.7,282.3,225.8,282.5,223.8,282.6
			C223.8,282.6,223.8,282.6,223.8,282.6z M176,281.5c0,0-0.1,0-0.1,0c-1.9-0.2-3.8-0.5-5.7-0.7c-0.5-0.1-0.9-0.5-0.8-1.1
			c0.1-0.5,0.5-0.9,1.1-0.8c1.9,0.3,3.8,0.5,5.7,0.7c0.5,0.1,0.9,0.5,0.8,1C176.9,281.1,176.5,281.5,176,281.5z M237.1,281.2
			c-0.5,0-0.9-0.3-0.9-0.8c-0.1-0.5,0.3-1,0.8-1.1c1.9-0.3,3.8-0.6,5.6-0.9c0.5-0.1,1,0.3,1.1,0.8c0.1,0.5-0.3,1-0.8,1.1
			c-1.9,0.3-3.8,0.6-5.7,0.9C237.2,281.2,237.1,281.2,237.1,281.2z M162.7,279.6c-0.1,0-0.1,0-0.2,0c-1.9-0.3-3.8-0.6-5.7-1
			c-0.5-0.1-0.9-0.6-0.8-1.1c0.1-0.5,0.6-0.9,1.1-0.8c1.9,0.3,3.7,0.7,5.6,1c0.5,0.1,0.9,0.6,0.8,1.1
			C163.6,279.3,163.2,279.6,162.7,279.6z M250.3,278.9c-0.4,0-0.8-0.3-0.9-0.7c-0.1-0.5,0.2-1,0.7-1.1c1.9-0.4,3.7-0.8,5.6-1.3
			c0.5-0.1,1,0.2,1.1,0.7c0.1,0.5-0.2,1-0.7,1.1c-1.9,0.5-3.7,0.9-5.6,1.3C250.4,278.9,250.4,278.9,250.3,278.9z M149.5,277.2
			c-0.1,0-0.1,0-0.2,0c-1.9-0.4-3.8-0.8-5.6-1.3c-0.5-0.1-0.8-0.6-0.7-1.1c0.1-0.5,0.6-0.8,1.1-0.7c1.8,0.4,3.7,0.9,5.6,1.2
			c0.5,0.1,0.8,0.6,0.7,1.1C150.4,276.9,150,277.2,149.5,277.2z M263.3,275.6c-0.4,0-0.8-0.3-0.9-0.7c-0.2-0.5,0.1-1,0.6-1.2
			c1.8-0.6,3.6-1.1,5.4-1.7c0.5-0.2,1,0.1,1.2,0.6c0.2,0.5-0.1,1-0.6,1.2c-1.8,0.6-3.6,1.2-5.5,1.8
			C263.5,275.5,263.4,275.6,263.3,275.6z M136.5,274.1c-0.1,0-0.2,0-0.2,0c-1.9-0.5-3.7-1-5.6-1.5c-0.5-0.1-0.8-0.7-0.6-1.2
			c0.1-0.5,0.7-0.8,1.2-0.6c1.8,0.5,3.7,1,5.5,1.5c0.5,0.1,0.8,0.7,0.7,1.2C137.3,273.8,136.9,274.1,136.5,274.1z M275.9,271.1
			c-0.4,0-0.7-0.2-0.9-0.6c-0.2-0.5,0-1,0.5-1.2c1.8-0.7,3.5-1.5,5.2-2.3c0.5-0.2,1,0,1.2,0.5c0.2,0.5,0,1-0.5,1.2
			c-1.7,0.8-3.5,1.6-5.3,2.3C276.2,271.1,276,271.1,275.9,271.1z M123.7,270.3c-0.1,0-0.2,0-0.3,0c-1.9-0.6-3.7-1.2-5.5-1.8
			c-0.5-0.2-0.7-0.7-0.6-1.2c0.2-0.5,0.7-0.7,1.2-0.6c1.8,0.6,3.6,1.2,5.4,1.8c0.5,0.2,0.8,0.7,0.6,1.2
			C124.4,270,124.1,270.3,123.7,270.3z M111,265.8c-0.1,0-0.2,0-0.3-0.1c-1.8-0.7-3.6-1.4-5.3-2.2c-0.5-0.2-0.7-0.8-0.5-1.2
			c0.2-0.5,0.8-0.7,1.2-0.5c1.7,0.7,3.5,1.5,5.3,2.2c0.5,0.2,0.7,0.7,0.5,1.2C111.8,265.5,111.4,265.8,111,265.8z M288,265.4
			c-0.3,0-0.7-0.2-0.8-0.5c-0.2-0.5-0.1-1,0.4-1.3c0.7-0.4,1.5-0.8,2.2-1.2c0.4-0.3,1-0.1,1.3,0.4c0.3,0.5,0.1,1-0.4,1.3
			c-0.7,0.4-1.5,0.8-2.2,1.2C288.4,265.4,288.2,265.4,288,265.4z"/>
	</g>
</g>
</svg>
