<?xml version="1.0" encoding="utf-8"?>
<!-- Generator: Adobe Illustrator 27.6.1, SVG Export Plug-In . SVG Version: 6.00 Build 0)  -->
<svg version="1.1" id="Layer_1" xmlns="http://www.w3.org/2000/svg" xmlns:xlink="http://www.w3.org/1999/xlink" x="0px" y="0px"
	 viewBox="0 0 300 300" style="enable-background:new 0 0 300 300;" xml:space="preserve">
<style type="text/css">
	.st0{fill:#BAD2E6;}
	.st1{fill:#8C572F;}
	.st2{fill:#D5B381;}
	.st3{fill:#592710;}
	.st4{fill:#6795B8;}
	.st5{fill:#CC0000;}
	.st6{fill:#FF5252;}
	.st7{fill:#870000;}
	.st8{fill:#FFFFFF;}
	.st9{fill:#04070F;}
</style>
<path class="st0" d="M245.9,247.4c21.4-32.9,17.7-83.9-15-107.8c8.7-13.1,19.6-17.4,19.6-17.4s11.3,10.2,20.7,12.2
	c9.4,2,24.8-8.9,24.8-20c0-8.4-20.7-31.6-49.9-59.7c-28.1-29.1-51.2-49.9-59.7-49.9c-11.1,0-22,15.3-20,24.8
	c2,9.4,12.2,20.7,12.2,20.7s-4.3,10.9-17.4,19.6C137.5,37.3,86.5,33.6,53.6,55S5.9,130.4,6.1,166.1c0.1,28.8,4.3,74.5,29.7,99.1
	c24.6,25.4,70.3,29.6,99.1,29.7C170.5,295.1,224.5,280.3,245.9,247.4z"/>
<g>
	<path class="st1" d="M274,61.6c1.5-4.6,1.4-9.7-0.2-14.2c-2.3-6.5-7.5-11.5-12.5-16.2c-4.3-4.1-9.2-8.4-15.1-8.3
		c-5.7,0.1-10.5,4.3-14.6,8.2l-2.2,6.3c12.1,11.8,24.1,23.7,36.2,35.5C269.5,70.2,272.5,66.2,274,61.6z"/>
	<path class="st1" d="M230,100.6l-31.3-30.2c-2.9,0.7-5,3.5-5.4,6.4c-0.4,2.9,0.6,5.9,2.3,8.4c1.6,2.5,3.8,4.5,6,6.5
		c4.7,4.3,9.3,8.6,14,12.9c1.8,1.7,3.9,3.5,6.4,3.5c1.9,0,3.7-1.1,5-2.5C228.3,104.1,229.2,102.4,230,100.6z"/>
</g>
<path class="st2" d="M266.5,42.2c-1.5-6.1-11.6-13-17-15.2c-5.4-2.2-10-0.8-15.5,1.5c-2,0.8-2.1,3.1-1.1,4.7c0,0-0.1-0.1-0.1-0.1
	c0.2,0.5,0.7,1,1.3,1.3c0.1,0,0.1,0.1,0.2,0.1c0,0,0.1,0,0.1,0.1c0.3,0.1,0.5,0.2,0.8,0.2c0.2,0,0.3,0,0.5,0
	c5.2-0.3,9.5,0.3,14.1,2.9c4.6,2.6,8.4,7.6,13.8,8.2C265.6,46.1,266.9,43.9,266.5,42.2z"/>
<g>
	<path class="st3" d="M271.1,66.2c1.2-1.4,1.3-3.1,0.8-4.5c1.4-1.4,1.9-3.2,0.7-5.5c-0.5-0.9-1.6-1.1-2.5-0.7
		c-2.4,1.2-3.8,1.9-6-0.1c-2.1-1.8-3.1-4.3-5.7-5.7c-3.7-2-10.5-1.4-12,3c-0.5,1.3,0.4,2.6,1.4,3.3c0.9,0.6,1.8,0.7,2.7,0.7
		C255,63.2,263.1,75.6,271.1,66.2z"/>
	<path class="st3" d="M228.6,99.6c-2-2.7-4.3-4-7.1-5.8c-3.1-2-5.9-4.5-8.6-7.1c-2.2-2.1-4.5-4.1-6.5-6.4c-2.2-2.4-3.6-5.5-5.9-7.8
		c-1.7-1.6-5.3-1.2-5.7,1.5c-0.1,1-0.1,2.1,0,3c-1.2,0.9-1.8,2.4-1.1,4.3c5.2,13,16,22.4,30.1,24.6
		C226.9,106.5,231.1,102.9,228.6,99.6z"/>
</g>
<g>
	<path class="st4" d="M172.7,87.2c1.9,3.4,3.9,6.7,5.5,10.2c2.4,5.2,5,10.4,8.7,14.9c3.6,4.3,8.4,7.2,13.5,9.3
		c2.6,1.1,5.3,2.1,8,3.3c2.2,0.9,4.2,2.2,6.3,3.3c1.5,1.8,4.1,2.6,5.8,0.5c0.4-0.3,0.6-0.7,0.9-1.1c3-3.8,6.3-7.1,11.6-6.9
		c4.7,0.2,7.7,4,12.1,4.5c1.3,0.1,2.3-1.2,2.4-2.4c0.1-3.1-2-5.4-4.9-7.1c0.1-0.3,0-0.6-0.1-0.9c-1.1-2.6-3.8-4.5-5.8-6.4
		c-2.1-2-4.3-3.6-6.7-5.4c-0.7-0.5-1.3,0.1-1.4,0.8c-1.1-0.1-2.3,0.3-3.3,1c-0.7,0.6-1.4,1.1-2.1,1.5c-0.6-0.4-1.3-0.5-2.2-0.4
		c-0.6,0.1-1.2,0.1-1.9,0.1c-0.2-0.1-0.4-0.2-0.6-0.3c-0.6-0.3-1.2-0.6-1.8-0.9c-8.5-4.3-14.8-11.5-20.7-18.9
		c-0.5-0.6-1-0.9-1.5-1.2c-0.4-3.6-0.4-7.1,0.4-10.7c3.6,0.2,5.1-4.9,1.3-5.9c-0.7-0.2-1.3-0.4-2-0.6c0-3.1-6-7.4-8.2-9
		c-1.7-3-4.3-5.3-7.7-5.5c-1.3-0.1-2.4,1.4-2,2.6c1.5,4.4,5.2,7.3,4.8,12.4c-0.4,5-3.8,8.1-7.6,10.9c-2.1-0.8-4,1.2-3.3,3.3
		C169.5,84.3,170.7,86.7,172.7,87.2z"/>
	<path class="st4" d="M213.4,220.8c2-5.8,3.2-11.8,3.8-17.9c0.5-5.5,0.5-13-6.4-14.4c-5.3-1.1-11.1,2.9-16.1,4.2
		c-6.1,1.5-12.5,1.7-18.7,0.7c-6.4-1.1-12.2-3.5-17.5-7.3c-5.5-3.9-9.7-9.2-15.4-12.7c-2.6-1.6-5.1,1.5-4,4
		c3.4,7.1,9.7,13.2,16.7,17.6c-0.2,1-0.1,2,0.4,2.9c1.5,2.4,3.5,4.4,5.7,6c-0.3,1.3-0.1,2.7,0.9,4c9,11.1,16.7,23.2,23,36
		c0.4,0.9,1.1,1.5,1.9,1.8c-0.3,0.4-0.6,0.8-0.9,1.2c-2.3,2.9,0.6,7.8,4.2,5.5C202.1,245.4,209.2,232.8,213.4,220.8z"/>
	<path class="st4" d="M131.1,268.8c-3.9-1.6-8.5-0.5-12.6-0.1c-5,0.4-10,0.6-15,0.5c-7.9-0.1-15.7-1.1-23.3-2.8
		c-0.1-0.5-0.3-0.9-0.7-1.3c-3.4-3.4-8.8-4.6-12.9-6.7c-4.7-2.4-9-5.4-12.8-9c-3.9-3.7-6.8-7.8-9.8-12.2c-0.6-0.9-2.6-3.8-4.6-4.8
		c-0.7-3.7-1.5-7.7-4.2-9.9c-1.3-1-2.8-0.8-3.7,0.5c-2.9,4.2-0.8,11.2,0.4,15.7c1.4,5.4,3.6,10.8,6.8,15.3c7,10,18.1,14.7,29.4,18.2
		c10.3,3.2,21.2,5.1,32,5.6c5.7,0.3,11.4,0.1,17.1-0.5c4.6-0.5,11.2-0.7,14.7-4.2C132.8,272,132.8,269.5,131.1,268.8z"/>
	<path class="st4" d="M242.8,94.8c1.2,5,5.6,8.7,9.1,12.2c3.5,3.5,7.3,8.1,12.4,8.8c2,0.3,3.9-1.2,3.4-3.4c-1.3-5-6-8.2-9.6-11.7
		c-3.6-3.5-7-7.8-11.9-9.4C244.1,90.7,242.4,92.9,242.8,94.8z"/>
</g>
<path class="st5" d="M57.8,84.7c31.1-4.6,68.7,38.1,97.8,67.1s66,65.1,57.1,96.2s-130,28.4-160.4-2C21.9,215.6,22.8,98.8,57.8,84.7z
	"/>
<g>
	<path class="st6" d="M216.2,235.8c1.2-1.4,1.5-3.6,0.3-5.5c0.9-1.9,0.5-4.6-2.2-6.3c-1.5-1-3.1-2-4.6-2.9c0.5-1.8,0-4.1-2.2-5.6
		c0.8-1.9,0.3-4.6-2.2-6.2c-2.7-1.8-5.3-3.6-8-5.4c0.4-1.5,0-3.1-1.6-4.4c-1.2-1-2.5-2-3.7-2.9c0.4-1.5,0-3.2-1.5-4.5
		c-2.1-1.8-4.3-3.5-6.5-5.2c-0.1-1.5-0.8-3-2.4-4.2c-1.6-1.2-3.3-2.4-5-3.6c0.2-1.3-0.2-2.8-1.7-4c-3-2.4-5.9-4.7-9-7
		c0.8-1.9,0.3-4.5-2.1-6.4c-4.5-3.4-9-6.7-13.6-9.9c-0.4-0.9-1.1-1.7-2.2-2.4c-0.6-0.4-1.2-0.8-1.7-1.2c1.5-1.6,1.7-4-0.8-6
		c-0.4-0.3-0.7-0.6-1.1-0.8c0,0,0,0,0,0c0,0,0,0,0,0c-3.2-2.5-6.4-4.9-9.7-7.2c-5-5.3-11.3-10-17.2-13.7c-7.3-7.3-15.2-14-23.5-20.2
		c-4.6-3.4-9.3-6.6-14.2-9.4c-4.3-2.5-8.8-5.3-13.6-6c-1.3-3-5.2-3.6-6.5-1.1c-0.9,0.1-1.8,0.5-2.4,1.3c-7.8,10.9,5.1,24.6,13,33.5
		c11.6,13,23.3,25.9,35.3,38.6c23.6,24.8,48.1,48.6,74.1,70.8c10.1,8.6,26.5,23.1,39.2,16C223.1,241.7,220.3,236.3,216.2,235.8z"/>
	<path class="st6" d="M69.1,179.4c2.7-6.2-19.5-24.8-21.7-18c-3,9.7-2.3,34,2.1,48.9c2,6.8,9.7,6,10.4,1.9
		C61.7,200.8,64.5,189.9,69.1,179.4z"/>
</g>
<path class="st7" d="M135.3,262.3c-7.7-3.1-16.1-3.2-23.7-6.8c-7.8-3.7-14.2-9.5-21.1-14.5c-6.9-5-14.1-8-22.6-9.3
	c-4.2-0.6-8.5-0.9-12.4-2.3c-4.3-1.5-7.1-4.5-10.2-7.6c-1.9-1.8-5.4-0.5-5.3,2.2c0.1,3.6,1.7,6.4,4.1,8.7c-1.4,1.2-2,3.3-0.3,4.8
	c2.3,2,4.9,3.5,7.7,4.8c-0.2,2.1,0.9,4.5,3,5.3c2.2,0.9,4.4,1.7,6.6,2.5c0,0.1,0,0.2,0,0.2c-0.9,2-0.6,4.6,1.7,5.6
	c3.3,1.4,6.6,2.7,10,3.9c11,4.1,22.3,7.3,34.3,7.1c2.5,0.2,4.9,0.3,7.4,0.4c0.8,0,1.5-0.2,2-0.5c6.4,1.9,13.1,2.7,19.3-0.1
	C138,265.7,137,263,135.3,262.3z"/>
<g>
	<path class="st8" d="M275.8,102.7c2.4,4.2,4.1,9.2,2.9,14c-1.2,4.7-5.2,8.1-10.1,7.3c-4.3-0.7-7.8-3.5-12.2-3.9
		c-1.7-0.2-2.4,1.8-1.8,3.1c2.5,5.6,9.4,9.3,15.4,9.6c3.6,0.2,7.1-1,9.9-3c1.1,1.8,3.4,2.9,5.8,1.6c7.1-3.7,11.3-12.4,9.7-20.3
		c-0.4-2.1-2.2-2.9-3.9-2.7c-1.4-3-3.5-5.7-6.4-6.7c-2.4-5.6-7-13.7-13.4-14.1c-1.3-0.1-2.1,1.1-2.3,2.3
		C268.9,94.6,273.6,98.8,275.8,102.7z"/>
	<path class="st8" d="M262.2,82.8c1.4-0.1,2.6-1.1,2.7-2.7c0.1-4.2-3.1-6.5-6-9.2c-3-2.8-6-5.6-9-8.5c-6.7-6.3-13.3-12.5-20-18.8
		c-6.4-6.1-12.9-12.1-19.3-18.2C204.1,19.6,197.9,13.1,190,9c-2.1-1.1-4.8,1.2-3.4,3.4c4.5,7.4,10.9,12.9,17.1,18.8
		c6.7,6.3,13.3,12.5,20,18.8c6.4,6.1,12.9,12.1,19.3,18.2c3.2,3,6.4,6.1,9.7,9.1C255.5,79.9,258,83.1,262.2,82.8z"/>
	<path class="st8" d="M187.7,276.3c-4.4-0.8-9,0.6-13.4,1.5c-5,1-10,2.2-15,3.2c-4.7,0.9-9.5,1.8-14.2,2.5
		c-4.1,0.7-10.3,0.7-13.1,4.2c-0.7,0.8-1,2.2,0,3.1c3.4,2.8,8.5,1.9,12.6,1.4c5.1-0.6,10.3-1.4,15.3-2.4c5-1,10-2,14.9-3.4
		c4.6-1.3,10.3-2.7,13.9-6.1C190,279.1,189.4,276.6,187.7,276.3z"/>
	<path class="st8" d="M248.2,240.5c0.2-0.6,0.1-1.1-0.1-1.6c0.9-1.8,1.7-3.6,2.4-5.2c2.1-4.8,3.8-9.8,4.8-15c0.3-1.6,1.2-8.3,1-14.1
		c1.5-0.5,2.8-1.8,3-3.9c1-11.6-3.4-23.8-9-33.7c-3.1-5.5-6.8-10.7-10.7-15.7c-3.9-5-8-11.1-14-13.5c-0.8-0.3-1.7-0.1-2.3,0.4
		c-3.1-3.5-8.1-9.6-12.8-8.3c-0.4,0.1-0.9,0.5-1,1c-0.6,4.6,4.7,8.7,7.3,12c3.8,4.9,7.4,10,10.4,15.5c2.9,5.2,5.4,10.7,7.2,16.3
		c0.9,2.8,1.7,5.6,2.3,8.5c0.7,3.1,0.8,6.6,2.7,9.3c0,0.1,0.1,0.1,0.1,0.2c-0.7,5.6-0.4,11.3-0.9,16.9c-0.3,3.1-0.7,6.2-1.2,9.3
		c-0.4,2.1-0.9,3.9-0.5,5.7c-2.5,3.7-3.3,9-5.3,12.9c-2.5,5.1-5.5,9.9-9.1,14.3c-3.5,4.1-7.4,7.9-11.7,11.1
		c-4.2,3.1-9.9,5.3-12.9,9.6c-1.4,2,0.6,4.2,2.5,4.4c2.9,0.3,5.9-0.8,8.7-2.4c0.4,0.6,1,1,1.8,0.9c8.3-0.5,15.5-8.5,21.2-13.9
		C237.9,256,246.1,248.6,248.2,240.5z"/>
	<path class="st8" d="M153.4,92c-0.9-1.3-1.9-2.5-3.1-3.8c-2.5-2.8,0.6-7,4-5.3c5.4,2.7,10.6,5.5,13.6,7.8c2.2,1.6,4.7-1.5,3.6-3.6
		c-2.7-4.8-6.3-9-10.4-12.8c0.5-0.9,0.7-2,0.2-3.2c-3.1-7.2-12-12.3-18.7-15.9c-7.7-4.2-16.1-7.1-24.5-9.4
		c-7.6-2.1-15.5-3.9-23.4-4.6c-6.4-0.6-16.5-1-21.4,3.8c-0.6,0.5-0.9,1.2-1,1.8c-3.1,0.6-6.1,1.5-9.2,2.9c-6.5,2.7-12.5,6.5-18,10.8
		c-5.7,4.5-10.7,9.9-15.1,15.8c-3.9,5.2-8.4,12-7.8,18.8c0.1,0.8,0.5,1.4,1,1.8c-4.5,8.2-7.9,17.1-10.4,26.1
		c-1.9,6.8-3.3,13.7-4.4,20.7c-1,6.9-2.3,13.8-1.1,20.7c0.6,3.6,5.4,2.8,6.4,0c2.1-5.9,2.3-12.3,3.2-18.5c1-6.2,2.2-12.4,3.7-18.4
		c3.2-12.3,8.1-24.2,15.3-34.7c2.5-3.7,5.9-8.7,10.5-12.4c2-1.6,4.7,0.8,3.4,3c0,0,0,0.1-0.1,0.1c-1,1.8,0.3,4.3,2.5,4.2
		c3.9-0.1,7.7-2.5,11.2-4c0.9-0.4,2.1-0.8,3.5-1.3c4.4-1.5,9.3-0.3,12.4,3.1c2.6,2.9,8.2,5.4,18.4,6.8c7.4,1,12.9-0.6,16.7-3
		c6.1-3.9,13.7-4.4,20.1-0.9c5.4,2.9,11.1,6,14.6,7.8C151.6,97.5,155.3,94.7,153.4,92z"/>
	<path class="st8" d="M15.7,189.2c-0.5-5.5,0.1-12.7-3.5-17.2c-1.1-1.3-2.9-0.6-3.8,0.5c-3.5,4.7-1.9,12.9-1.3,18.3
		c0.5,5.3,0.2,13.6,4.3,17.5c1.4,1.3,3.8,1.1,4.7-0.6C18.8,202.5,16.1,194.8,15.7,189.2z"/>
	<path class="st8" d="M43,91.4c-3.2,2.7-6.3,6.9-6.5,11.2c-0.1,1.9,2.3,3.5,4,2.3c3.2-2.3,5.6-6.3,7.7-9.6
		C50.3,92,45.7,89.1,43,91.4z"/>
	<path class="st8" d="M167.3,104.1c-2.1-2.4-5.3-6.2-8.9-5.8c-1.1,0.1-2.3,0.9-2.2,2.2c0.2,3.6,3.7,6.2,6.1,8.6
		c1.6,1.6,4.9,5.6,7.4,3.1C172.3,109.8,168.9,105.9,167.3,104.1z"/>
</g>
<g>
	<path class="st9" d="M201.9,98.7L201.9,98.7L201.9,98.7L201.9,98.7c7.8,7.8,21.6,16.2,28.7,7.3c1,0.7,1.9,1.3,3,1.9
		c1.5,0.9,3.3-0.9,2.4-2.4c-2.8-4.7-13.3-15.8-19.2-21.7l0,0l0,0l0,0l0,0c-5.9-5.9-17.1-16.3-21.7-19.2c-1.5-0.9-3.3,0.9-2.4,2.4
		c0.6,1,1.3,2,1.9,3C185.7,77,194.1,90.8,201.9,98.7L201.9,98.7z M197.2,80.2c-0.2-1.9,0.3-3.8,1-5.7c1.3,1.6,8.3,8.9,13.6,14.3l0,0
		l0,0l0,0l0,0c5.3,5.3,12.6,12.3,14.3,13.6c-1.9,0.6-3.8,1.1-5.7,1c-6-0.6-9.7-4.9-14-9.2l0,0l0,0l0,0l0,0
		C202.1,89.9,197.8,86.2,197.2,80.2z"/>
	<path class="st9" d="M246.6,251.5c12.4-16.6,18.2-39,16.6-59.5c-1.1-13.9-5.9-27.1-13.9-38.5c-3.7-5.3-8.1-10.4-13-15
		c1.9-1.9,3.5-4.3,5.6-6c2.7-2.2,6.4-3.3,9.3-5.3c4,3.5,8.4,6.9,13.1,9.3c9.5,4.7,21.5-0.4,28.6-7.3c7.2-7,8.1-15.5,3-23.8
		c-5.8-9.4-13.6-17.7-20.9-25.8c-1.8-1.9-3.5-3.9-5.3-5.8c5.6-5.4,11-11.2,10.4-19.6c-0.6-8.2-6.4-13.9-13.1-20.6
		c-6.7-6.7-12.4-12.5-20.6-13.1c-8.4-0.6-14.2,4.8-19.6,10.4c-1.9-1.8-3.8-3.6-5.8-5.3c-8.1-7.4-16.4-15.2-25.8-20.9
		c-8.3-5.1-16.8-4.1-23.8,3c-6.9,7.1-12.1,19.1-7.3,28.6c2.4,4.7,5.8,9.1,9.3,13.1c-1.9,2.9-3.1,6.6-5.3,9.3c-1.7,2.1-4.1,3.7-6,5.6
		c-4.6-4.9-9.8-9.3-15-13c-11.4-8-24.6-12.8-38.5-13.9C88,35.8,65.7,41.6,49.1,54c-10.3,7.6-18.2,18.2-25,28.8
		c-7.7,12-13.5,25.2-17.1,39c-7.1,27.4-7.4,56.6-2.1,84.3C9,228,16,250.8,32.9,267.7s39.7,23.9,61.5,28.1c27.7,5.3,57,5,84.3-2.1
		c13.8-3.6,27-9.4,39-17.1C228.5,269.7,239,261.8,246.6,251.5z M246.3,28.8c6,0.7,9.8,5.4,15,10.5s9.8,9,10.5,15
		c0.7,5.7-3.2,10.2-7.3,13.8c-5.2-5.4-9.4-9.7-15.8-16.2s-10.7-10.6-16.2-15.8C236.1,32,240.6,28.2,246.3,28.8z M183.7,283.6
		c-25.4,7.6-52.6,9.3-78.8,5.4c-23-3.4-49.1-10.4-66-27.3c-16.9-16.9-23.9-43-27.3-66c-3.9-26.2-2.2-53.4,5.4-78.8
		c6.8-22.9,18.6-47,39.3-60.4c17.1-11,38.2-14.8,58-10.4c11.4,2.5,22.3,7.4,31.5,14.7c11.7,9.2,19.1,21.4,28.2,32.8
		c1.7,2.1,5.2-0.2,4.5-2.6c-2.2-7.2-6.1-14.1-10.8-20.3c2.9-2,5.4-5.4,7.2-7.9c1.4-2,3.1-4.5,4.1-7.2c2.4,2.5,5.2,4.6,8.3,5
		c0.8,0.1,1.6-0.8,1.6-1.6c-0.6-5.3-6-10.2-9.2-14.2c-3.1-4-7.4-8.5-9.1-13.4c-2.7-7.7,4.2-19.2,11.4-22.1c6-2.5,12.9,4.1,17.2,7.5
		C215,29.2,228,42.4,243.1,57.5c15.1,15.1,28.3,28.2,40.5,43.8c3.4,4.4,10,11.2,7.5,17.2c-2.9,7.2-14.4,14.1-22.1,11.4
		c-4.9-1.7-9.4-5.9-13.4-9.1c-4-3.1-8.9-8.6-14.2-9.2c-0.8-0.1-1.6,0.8-1.6,1.6c0.4,3.1,2.5,5.9,5,8.3c-2.7,1.1-5.2,2.7-7.2,4.1
		c-2.5,1.8-5.9,4.2-7.9,7.2c-6.2-4.8-13-8.6-20.3-10.8c-2.4-0.7-4.7,2.8-2.6,4.5c11.4,9.2,23.6,16.6,32.8,28.2
		c7.3,9.2,12.1,20.1,14.7,31.5c4.4,19.8,0.7,40.9-10.4,58C230.7,264.9,206.6,276.7,183.7,283.6z"/>
	<path class="st9" d="M241.4,202.6c-0.1-8-0.8-17-4-24.4c-3.7-8.3-9.4-14.4-17-19.2c-1.2-0.8-2.3,0.9-1.5,1.9
		c4.8,5.7,8.9,12.6,12.1,19.3c3.6,7.5,6.7,14.5,6.6,23c-0.1,7.7-1.9,16.1-5.9,22.7c-3.9,6.5-9,12.1-12.9,18.5
		c-0.8,1.4,0.8,2.6,2.1,2.1c7.5-3.4,12.5-11.2,15.3-18.7C239.3,219.6,241.5,211.4,241.4,202.6z"/>
	<path class="st9" d="M209.5,204.6c-14.2-22.1-31.9-39.6-51.5-59.2c-19.6-19.6-37.1-37.3-59.2-51.5C87.3,86.5,64.7,74,49.9,85.7
		c-12.8,10.1-16.6,31-19.2,45.3c-4.2,22.9-3.8,46.7-0.7,68.9c1.5,10.6,3.9,21,7.6,30.8c2.9,7.7,6.7,14.4,13.7,21.5
		c7,7,13.7,10.8,21.5,13.7c9.8,3.7,20.2,6.1,30.8,7.6c22.1,3.2,46,3.6,68.9-0.7c14.2-2.6,35.2-6.4,45.3-19.2
		C229.4,238.7,217,216.2,209.5,204.6z M200.3,255.7c-7.6,3.4-15.7,5.3-23.7,6.5c-21,3.3-42.2,4.2-62.7,2
		c-11.2-1.2-22.3-3.2-32.8-6.7c-8.6-2.9-14.9-5.8-22.1-13S48.9,231,46,222.3c-3.5-10.5-5.5-21.6-6.7-32.8c-2.2-20.5-1.3-41.7,2-62.7
		c1.2-8,3.1-16.1,6.5-23.7c2-4.5,5.2-10.1,9.3-11.9c6.4-2.7,14.7,0.1,20.3,2.6c9.4,4.2,17.9,10.2,25.9,16.4
		c16.9,12.9,30.5,25.9,47.2,42.7s29.8,30.3,42.7,47.2c6.1,8.1,12.2,16.6,16.4,25.9c2.5,5.7,5.4,14,2.6,20.3
		C210.5,250.5,204.8,253.7,200.3,255.7z"/>
	<path class="st9" d="M120.4,69.5c6.7,3.2,13.6,7.3,19.3,12.1c1,0.8,2.7-0.2,1.9-1.5c-4.8-7.6-10.9-13.3-19.2-17
		C115,60,106,59.3,98,59.2c-8.8-0.1-17.1,2.1-25.3,5.1c-7.5,2.8-15.3,7.8-18.7,15.3c-0.6,1.3,0.7,2.9,2.1,2.1
		c6.5-3.9,12-9,18.5-12.9c6.7-4,15-5.8,22.7-5.9C105.9,62.8,112.8,66,120.4,69.5z"/>
</g>
</svg>
