<?xml version="1.0" encoding="utf-8"?>
<!-- Generator: Adobe Illustrator 27.6.1, SVG Export Plug-In . SVG Version: 6.00 Build 0)  -->
<svg version="1.1" id="Layer_1" xmlns="http://www.w3.org/2000/svg" xmlns:xlink="http://www.w3.org/1999/xlink" x="0px" y="0px"
	 viewBox="0 0 300 300" style="enable-background:new 0 0 300 300;" xml:space="preserve">
<style type="text/css">
	.st0{fill:#BAD2E6;}
	.st1{fill:#8C572F;}
	.st2{fill:#592710;}
	.st3{fill:#D5B381;}
	.st4{fill:#CC0000;}
	.st5{fill:#FF5252;}
	.st6{fill:#870000;}
	.st7{fill:#6795B8;}
	.st8{fill:#FFFFFF;}
	.st9{fill:#04070F;}
</style>
<g>
	<path class="st0" d="M188.8,3.7C217.3,18.3,294.4,95,294.7,112.8c0,0-16,34.2-45,1.6l-167,165.5c0,0-30.5,33.6-65.7-1.5
		s21.6-80.6,21.6-80.6L186.4,51.4c0,0-15.2-15.8-16.7-24.6S181.4-0.1,188.8,3.7z"/>
	<g>
		<path class="st1" d="M275.2,61c1.4-4.4,1.4-9.3-0.2-13.7c-2.3-6.3-7.3-11.1-12.1-15.7c-4.2-3.9-8.9-8.1-14.6-8
			c-5.5,0.1-10.1,4.1-14.1,7.9l-2.1,6.1C243.7,49,255.3,60.5,267,72C270.8,69.3,273.8,65.4,275.2,61z"/>
		<path class="st1" d="M232.7,98.8l-30.3-29.3c-2.8,0.7-4.8,3.4-5.2,6.2c-0.4,2.8,0.6,5.7,2.2,8.1s3.7,4.4,5.8,6.3
			c4.5,4.2,9.1,8.4,13.6,12.5c1.8,1.6,3.8,3.4,6.2,3.4c1.9,0,3.6-1,4.9-2.4C231,102.2,231.9,100.5,232.7,98.8z"/>
	</g>
	<g>
		<path class="st2" d="M272.4,65.5c1.2-1.4,1.3-3,0.8-4.3c1.3-1.3,1.9-3.1,0.7-5.3c-0.5-0.9-1.6-1.1-2.4-0.7c-2.3,1.1-3.6,1.9-5.9,0
			c-2-1.8-3-4.2-5.5-5.5c-3.6-2-10.1-1.4-11.6,2.9c-0.4,1.3,0.4,2.5,1.3,3.2c0.9,0.6,1.8,0.7,2.6,0.7
			C256.8,62.5,264.7,74.6,272.4,65.5z"/>
		<path class="st2" d="M231.3,97.8c-2-2.6-4.2-3.8-6.9-5.6c-3-2-5.7-4.4-8.4-6.8c-2.2-2-4.3-4-6.3-6.2c-2.1-2.4-3.5-5.3-5.8-7.5
			c-1.6-1.5-5.2-1.1-5.5,1.5c-0.1,1-0.1,2,0,2.9c-1.2,0.9-1.8,2.3-1.1,4.1c5,12.6,15.5,21.7,29.1,23.8
			C229.6,104.5,233.7,101,231.3,97.8z"/>
	</g>
	<path class="st3" d="M235.5,33.5c0,0-0.1-0.1-0.1-0.1c0.2,0.5,0.7,1,1.3,1.3c0.1,0,0.1,0.1,0.2,0.1c0,0,0.1,0,0.1,0.1
		c0.3,0.1,0.5,0.2,0.8,0.2c0.2,0,0.3,0,0.4,0c5-0.3,9.2,0.3,13.7,2.8c4.5,2.5,8.1,7.4,13.4,7.9c1.8,0.2,3.1-1.9,2.7-3.5
		c-1.4-5.9-11.3-12.6-16.4-14.7c-5.2-2.1-9.7-0.8-15,1.4C234.7,29.7,234.6,31.9,235.5,33.5z"/>
	<path class="st4" d="M103.5,162.3c18.1,0.2,34.9,20.7,33.9,33.9c0,0-51.6,55.8-67.6,67.6c-16,11.8-28,5.4-37-3.5
		c-8.9-8.9-5.4-21.9,5.7-33C49.6,216.2,103.5,162.3,103.5,162.3z"/>
	<g>
		<path class="st5" d="M136,195.4c0.7-1.1,0.9-2.6,0-4.1c-2.8-4.9-6.1-9.6-9.7-13.9c-3.2-3.7-7.3-9.2-12.3-10.3
			c-0.6-0.1-1.2-0.1-1.6,0c-0.9-0.6-1.8-1.2-2.7-1.6c-0.8-0.4-1.8-0.4-2.5,0c-0.3-0.3-0.5-0.5-0.8-0.8c-1.1-0.9-3.3-1.1-4,0.5
			c-3.4,7.7,4.3,17.6,9.4,22.9c3,3.2,6.6,6,10.5,8.1c3.6,2,8.5,4.9,12.4,2.7C135.8,198.3,136.3,196.8,136,195.4z"/>
		<path class="st5" d="M52,237.7c5-1.7,9.1-6.4,12.7-10.1c4.1-4.2,8.1-8.5,12.1-12.8c4-4.3,8.1-8.6,12.1-12.8c3.5-3.8,9-7.9,10.3-13
			c0.5-1.9-1.4-4-3.4-3.4c-5.1,1.7-8.8,7.1-12.4,10.9c-4,4.3-8.1,8.5-12.1,12.8c-4,4.3-8.1,8.5-12.1,12.8c-3.5,3.8-8.1,8.2-9.5,13.3
			C49.3,236.7,50.6,238.2,52,237.7z"/>
		<path class="st5" d="M46.4,246c0.7-1.2,1.4-2.3,1.2-3.8c-0.1-0.7-0.4-1.4-1.2-1.5c-2.1-0.4-3.6,0.9-4.6,2.5
			c-0.5,0.7-0.9,1.6-1.1,2.4c-0.4,1.3-0.1,2.2,0.7,3.2c0.4,0.6,1.5,0.8,2.2,0.6c0.9-0.3,1.5-0.8,2-1.6
			C45.9,247.3,46.1,246.6,46.4,246z"/>
	</g>
	<path class="st6" d="M76.1,256.5c0.7-1.8-1.4-3.2-2.9-2.9c-7.5,1.4-14.6-0.2-21.8,2.5c-3.8,1.4-7.5,2.7-11-0.2
		c-3.3-2.7-4.4-7.1-7.9-9.6c-1-0.7-2.7,0-2.9,1.2c-1.1,7.5,4.3,14.2,11,16.6c-0.8,2-0.2,4.8,2.4,5.4c5.7,1.4,11.6,1.1,17.1-0.9
		c3.1-1.2,8.4-3.5,9.8-7C72.5,261,74.9,259.7,76.1,256.5z"/>
	<g>
		<path class="st7" d="M247.2,112.7c-1.7-2.8-4.5-4.5-7-6.6c-2.6-2.1-4.8-4.3-7.8-5.9c-1-0.6-2.7,0.4-2.2,1.7
			c0.1,0.2,0.2,0.4,0.3,0.7c-1.1,0.1-2.1,0.4-3.1,0.6c-1.5,0.4-2.9,0.8-4.1,1.9c0,0-0.1,0.1-0.1,0.1c-6.1-3-11.7-6.6-16.4-11.7
			c-2.6-2.8-4.7-5.8-6.7-9.1c-1.7-2.9-3-6.2-5.8-8.1c-0.2-0.1-0.3-0.2-0.5-0.2c0.9-0.2,1.7-0.8,2-1.9c0.2-0.9,0.4-1.8,0.6-2.6
			c0.8-0.3,1.4-1.1,1.5-2c0-0.3,0-0.5,0-0.7c1.5,0.1,2.8-1.8,1.5-3.2c-3.7-4-7.6-7.6-12.4-10.3c-0.4-0.2-0.7-0.2-1,0
			c-0.4-0.4-0.7-0.8-1.1-1.1c-3.7-3.4-8.7,1.7-5.5,5.5c5.9,7,4.7,16.9,7.5,25.2c1.3,3.9,3.5,7.1,6.1,10.4c2.5,3.3,5.4,6.6,4.6,11.1
			c-0.7,3.8-3.3,7.2-5.4,10.3c-2.9,4.3-6,8.6-9.1,12.8c-6.6,8.7-13.5,17.1-20.5,25.6c-2.8,3.4,1,9.8,5.1,6.7
			c0.3-0.2,0.6-0.5,0.9-0.7c0,0,0,0,0,0c0,0,0,0,0,0c12.5-9.5,24.5-19.4,36.2-29.7c5.5-4.8,10.7-10.6,17.2-14c2.9-1.5,6-2.5,9.3-2.2
			c3.5,0.3,5.8,2.2,8.9,3.5c2.3,1,4.9-0.6,4.5-3.2c0.3,0.1,0.6,0.1,1,0.2C247,115.6,247.8,113.8,247.2,112.7z"/>
		<path class="st7" d="M118.9,166.8c4,1.9,7.1,5.2,10.6,7.8c-1.2,1.6-1.1,4.1,1,5.3c1.4,0.8,2.9,1.5,4.4,2c-0.6,1.2-1.1,2.4-1.4,3.6
			c-0.5,2.2,0.6,3.6,2.1,4.1c-0.2,0.3-0.3,0.7-0.5,1c-0.8,2.1,2.1,4.2,3.9,3c3.5-2.4,5.8-6,8.2-9.4c2.8-3.9,5.6-7.8,8.4-11.6
			c1.9-2.6-1.8-5.6-4.2-4.2c-6.5,3.6-13,5.2-19.2,0.1c-3.9-3.2-7.4-6.8-12.8-6C117.6,162.9,117.2,166,118.9,166.8z"/>
		<path class="st7" d="M65.7,267.2c-3.8,0-6.9,2.6-10.5,3.6c-3.8,1.1-8.3,1.8-12.3,1.2c-3.6-0.6-7.1-2.2-9.4-5.1
			c-2.4-3-2.8-6.9-3.7-10.5c-0.7-2.7-4.4-3.1-5.7-0.7c-5.8,10.1,5,21.3,14.2,24c5,1.5,11.2,1.7,16.1-0.2c4.7-1.8,11.5-4.9,13.1-10
			C67.8,268.4,66.8,267.2,65.7,267.2z"/>
		<path class="st7" d="M269.8,109.2c-1.2-3.8-5.6-6.9-8.5-9.7c-2.8-2.7-5.9-6.6-10.1-6.8c-1.3-0.1-2.3,1.1-2.3,2.3
			c0,4.3,4.4,7.9,7.6,10.4c3.1,2.5,7.2,6.3,11.3,6.4C269,111.9,270.2,110.5,269.8,109.2z"/>
	</g>
	<g>
		<path class="st8" d="M293.2,111.3c0-0.1,0-0.2,0-0.3c0.1-1.3-0.3-2.3-1-3c-1.6-4.6-4.3-9.1-6.8-13.4c-0.6-1.2-1.2-2.3-1.9-3.4
			c-1-1.5-2.3-2.1-3.7-2c-0.2-0.5-0.5-0.9-0.8-1.4c-0.6-0.9-1.6-1.4-2.6-1.4c-0.7-4.3-2.2-7.9-7.8-7c-1.7,0.3-2.3,2.1-2.1,3.6
			c0.4,2.6,1.9,4.6,2.1,7.3c0.2,2.1,0.1,4.2,0.5,6.3c0.6,2.7,2,4.9,3.7,7c1.6,2,4.2,3.8,5,6.2c1.5,4.2-6.1,9-9.8,8.5
			c-5.6-0.7-8.7-5.7-13.4-7.9c-2-0.9-5.2,0.7-4.2,3.3c2.7,6.7,9.9,12.3,17.1,13.1c0.8,0.1,1.6,0.1,2.4,0c0.7,0.6,1.5,1,2.6,1.1
			c4.5,0.3,8.7-1.3,12.2-4c0.3-0.1,0.5-0.2,0.8-0.3C290.3,120.9,294.2,117,293.2,111.3z"/>
		<path class="st8" d="M257.8,64.6c-3.1-3-6.1-6-9.2-8.9c-5.8-5.5-11.5-11.1-17.3-16.6c-5.8-5.5-11.6-10.9-17.5-16.4
			c-5.2-4.8-11.6-12.8-18.8-14.1c-1.5-0.3-3,1-2.6,2.6c2,7.2,10.3,12.7,15.4,17.5c5.8,5.5,11.7,10.9,17.5,16.4
			c5.8,5.5,11.6,11,17.3,16.5c2.9,2.8,5.7,5.6,8.6,8.3c2.7,2.6,5.2,5,9.1,5.1c1.1,0,2.2-1,2.1-2.1C262.2,69.4,260.3,67,257.8,64.6z"
			/>
		<path class="st8" d="M198.2,150.9c-9,9-18.1,18-27.1,27c-8.8,8.8-17.7,17.6-26.5,26.4c-4.4,4.4-8.8,8.8-13.2,13.2
			c-3.9,3.9-10,8.1-11.2,13.7c-0.5,2.2,1.4,4.1,3.6,3.6c5.3-1.2,9.4-6.9,13.1-10.6c4.4-4.4,8.8-8.8,13.2-13.2c9-9,18.1-18,27.1-27
			c8.8-8.8,17.7-17.6,26.5-26.4c4.4-4.4,8.8-8.8,13.2-13.2c4.2-4.3,9.5-8.6,12.1-14.2c1.2-2.6-1.2-4.9-3.8-3.8
			c-5.3,2.4-9.6,7.4-13.7,11.4C207.1,142.1,202.6,146.5,198.2,150.9z"/>
		<path class="st8" d="M114.6,241.7c-0.1-1-1.3-1.6-2.2-1.7c-4.9-0.4-9.4,6.1-12.4,9.3c-3.2,3.3-9.1,8-8.7,13c0.1,1.2,1,2.2,2.3,2.3
			c5.3,0.1,9.7-6.3,13-9.9C109.7,251.2,115.3,247,114.6,241.7z"/>
		<path class="st8" d="M165.6,98.1c1.8-9.8,6.1-18.7,11.1-27.1c1.8-3.1-2.7-6.7-5.1-3.9c-3.3,3.7-6,7.5-8.3,11.6
			c-1.2-0.6-2.7-0.5-3.9,0.8c-1.7,1.9-3.7,3.8-5.7,5.7c-1-0.1-2.1,0.3-3.1,1.3c-18.1,19-37,37.2-56.7,54.6c-0.7,0.7-1.2,1.4-1.3,2.2
			c-2.1,2.2-3.9,4.7-5.5,7.5c-0.2,0.3-0.3,0.7-0.3,1c-7,5.3-13.3,11.7-19.4,17.8c-13.5,13.4-28.1,25.7-40.6,40
			c-6.1,7-12,14.7-15.9,23.2c-3.7,7.9-6.3,16.4-2.8,24.8c0.9,2.1,3.8,1.2,4.3-0.6c2.2-7,3.1-14.4,6.4-21c3.6-7.5,8.6-14.2,14-20.4
			c12.2-14,26.5-26.1,39.7-39.1c13.1-12.9,26.6-28.2,46.6-27.3c9.4,0.4,18.8,2.1,27.5-2.8c7.6-4.3,12.6-11.9,15.3-20
			C164.9,117.3,163.9,107.5,165.6,98.1z"/>
	</g>
	<g>
		<path class="st9" d="M296.2,101.7c-5.6-9.1-13.1-17.1-20.3-25c-1.7-1.9-3.4-3.7-5.1-5.6c5.4-5.3,10.7-10.9,10.1-19
			C280.3,44,274.4,38.4,268,32c-6.4-6.4-12-12.3-20.1-12.8c-8.1-0.6-13.7,4.6-19,10.1c-1.8-1.7-3.7-3.4-5.6-5.1
			c-7.9-7.1-15.9-14.7-25-20.3c-8.1-5-16.3-4-23.1,2.9c-6.7,6.9-11.7,18.5-7.1,27.7c2.5,5,6.2,9.5,9.9,13.7c0.8,0.9,1.6,1.9,2.4,2.9
			c-18.6,17.3-36.1,35.9-54.2,53.7c-32.7,32.4-65.4,64.7-98,97.2c-12.8,12.8-24.5,26-26.4,44.8c-1.4,13.9,2.4,26.5,13.6,37.7
			c11.2,11.2,23.8,14.9,37.7,13.6c18.8-1.8,32-13.5,44.8-26.4c32.5-32.6,64.8-65.3,97.2-98c17.9-18,36.4-35.6,53.7-54.2
			c1,0.9,2,1.7,2.9,2.4c4.2,3.6,8.7,7.4,13.7,9.9c9.2,4.6,20.8-0.4,27.7-7.1C300.2,118,301.1,109.8,296.2,101.7z M247.7,27.3
			c5.9,0.7,9.4,5.1,14.7,10.4c5.3,5.3,9.7,8.8,10.4,14.7c0.6,5.5-3.1,9.9-7.1,13.4c-5.1-5.3-9.9-10.2-15.5-15.8
			c-5.7-5.7-10.5-10.4-15.8-15.5C237.8,30.4,242.2,26.7,247.7,27.3z M270,125.5c-4.7-1.6-9.1-5.7-13-8.8c-3.9-3-8.6-8.3-13.7-8.9
			c-0.8-0.1-1.6,0.8-1.5,1.5c0.2,1.5,0.8,3,1.7,4.3c-15.8,14.7-30.7,30.6-45.9,45.9c-15.3,15.5-30.6,30.9-45.9,46.4
			c-15.2,15.3-30.3,30.6-45.5,45.9c-7.7,7.7-15.1,15.7-23.1,23.1c-6,5.6-13.1,10.3-21,12.9c-14.4,4.6-29.8,1.7-40.7-9.2
			S7.4,252.4,12.1,238c2.5-7.9,7.3-15,12.9-21c7.4-7.9,15.4-15.4,23.1-23.1c15.3-15.2,30.6-30.4,45.9-45.5
			c15.5-15.3,31-30.6,46.4-45.9c15.3-15.2,31.2-30.1,45.9-45.9c1.4,0.9,2.8,1.5,4.3,1.7c0.7,0.1,1.6-0.8,1.5-1.5
			c-0.5-5.1-5.8-9.8-8.9-13.7c-3-3.9-7.1-8.2-8.8-13c-2.6-7.5,4.1-18.6,11-21.4c5.8-2.4,12.5,4,16.7,7.3
			c15.2,11.9,28.4,25.2,42.6,39.4s27.5,27.4,39.4,42.6c3.3,4.2,9.7,10.9,7.3,16.7C288.6,121.5,277.5,128.2,270,125.5z"/>
		<path class="st9" d="M238.1,101.8c-2.5-4.1-13.3-16-18.6-21.3c-5.4-5.4-17.3-16.2-21.3-18.6c-1.4-0.9-3.2,0.9-2.3,2.3
			c0.6,1,1.2,2,1.9,2.9c-8.8,6.9-3.2,17.6,7.2,28s21,16,28,7.2c0.9,0.6,1.9,1.3,2.9,1.9C237.2,105,239,103.3,238.1,101.8z
			 M222.9,99.8c-5.9-0.6-9.1-4.4-13.7-9c-4.6-4.6-8.5-7.9-9-13.7c-0.2-1.9,0.3-3.7,0.9-5.5c1.1,1.4,8.2,8.6,13.5,13.8
			c5.3,5.3,12.5,12.3,13.8,13.5C226.6,99.5,224.8,100,222.9,99.8z"/>
		<path class="st9" d="M111.1,227.2c5.1-5.1,10.1-10.3,15.3-15.2c2.2-2.1,4.4-4.2,6.6-6.3c2-1.9,4.6-3.6,6.1-5.9
			c5.6-8.8-2.6-20.3-10.6-28.3s-19.5-16.2-28.3-10.6c-2.3,1.5-4.1,4.1-5.9,6.1c-2.1,2.2-4.2,4.4-6.3,6.6c-5,5.2-10.1,10.2-15.2,15.3
			c-9.6,9.6-19.3,19.2-29.6,28.1c-7.4,6.4-14.2,13.9-17.3,23.4c-3.2,9.9-0.8,18.8,7.1,26.6s16.7,10.3,26.6,7.1
			c9.5-3.1,17-9.9,23.4-17.3C91.9,246.5,101.5,236.9,111.1,227.2z M109.2,222.4c-8.3,8.3-16.6,16.8-25.3,24.6
			c-6.5,5.8-13.2,12.2-20.7,16.7c-8.6,5-16.8,5.2-24.4-2.4c-7.5-7.5-7.4-15.8-2.4-24.4c4.4-7.6,10.8-14.2,16.7-20.7
			c7.8-8.8,16.3-17,24.6-25.3c4.3-4.3,8.5-8.6,12.8-12.8c3.8-3.7,7.8-8.5,12.2-11.4c2.9-1.9,7.1,0.7,9.8,2.1c4,2.2,7.2,3.7,11.2,7.7
			c4,4,5.6,7.2,7.7,11.2c1.4,2.7,4,6.9,2.1,9.8c-3,4.4-7.7,8.4-11.4,12.2C117.8,213.9,113.5,218.1,109.2,222.4z"/>
	</g>
</g>
</svg>
