<?xml version="1.0" encoding="utf-8"?>
<!-- Generator: Adobe Illustrator 27.6.1, SVG Export Plug-In . SVG Version: 6.00 Build 0)  -->
<svg version="1.1" id="Layer_1" xmlns="http://www.w3.org/2000/svg" xmlns:xlink="http://www.w3.org/1999/xlink" x="0px" y="0px"
	 viewBox="0 0 300 300" style="enable-background:new 0 0 300 300;" xml:space="preserve">
<style type="text/css">
	.st0{fill:#BAD2E6;}
	.st1{fill:#8C572F;}
	.st2{fill:#592710;}
	.st3{fill:#6795B8;}
	.st4{fill:#D5B381;}
	.st5{fill:#FFFFFF;}
	.st6{fill:#CC0000;}
	.st7{fill:#870000;}
	.st8{fill:#FF5252;}
	.st9{fill:#04070F;}
</style>
<g>
	<path class="st0" d="M159,222.8c2.2-57,18.3-68.3,18.3-68.3c42.1-42.1,77.1-50.9,77.1-50.9s10.2,8.5,17.7,11.7
		c7.4,3.2,23.7-5.1,23.3-17c-0.3-10.7-18.9-30.4-42.3-51.9c-21.6-23.4-41.3-42-51.9-42.3c-11.9-0.4-20.2,15.9-17,23.3
		c3.2,7.4,11.7,17.7,11.7,17.7s-8.8,35-50.9,77.1c0,0-11.2,16.2-68.3,18.3c-57,2.2-64.1,5.2-70.6,12.9c-4.8,5.7-1.9,24.6,31.7,63
		l-0.2,0.1c4.7,5.1,9.2,9.9,13.6,14.5c2.4,2.5,4.9,5.1,7.6,7.7c0.4,0.4,0.7,0.7,1.1,1.1c0.4,0.4,0.7,0.7,1.1,1.1
		c2.6,2.6,5.2,5.2,7.7,7.6c4.5,4.4,9.3,8.9,14.5,13.6l0.1-0.2c38.4,33.7,57.2,36.6,63,31.7C153.8,287,156.9,279.8,159,222.8z"/>
	<g>
		<path class="st1" d="M277.4,53c1.3-4,1.2-8.4-0.2-12.4c-2-5.7-6.5-10-10.9-14.1c-3.7-3.5-8-7.3-13.1-7.2c-5,0.1-9.1,3.7-12.7,7.1
			l-1.9,5.5c10.5,10.3,21,20.6,31.5,30.9C273.4,60.6,276.1,57,277.4,53z"/>
		<path class="st1" d="M239.1,87l-27.2-26.3c-2.5,0.6-4.3,3-4.7,5.6c-0.4,2.6,0.6,5.1,2,7.3c1.4,2.1,3.3,3.9,5.2,5.7
			c4.1,3.8,8.1,7.5,12.2,11.3c1.6,1.5,3.4,3,5.5,3c1.7,0,3.3-0.9,4.4-2.2C237.7,90.1,238.4,88.5,239.1,87z"/>
	</g>
	<g>
		<path class="st2" d="M274.9,57.1c1-1.2,1.2-2.7,0.7-3.9c1.2-1.2,1.7-2.8,0.6-4.8c-0.4-0.8-1.4-1-2.2-0.6c-2.1,1-3.3,1.7-5.3,0
			c-1.8-1.6-2.7-3.8-4.9-5c-3.2-1.8-9.1-1.2-10.5,2.6c-0.4,1.1,0.3,2.2,1.2,2.9c0.8,0.6,1.6,0.6,2.4,0.6
			C260.8,54.4,268,65.3,274.9,57.1z"/>
		<path class="st2" d="M237.9,86.1c-1.8-2.4-3.8-3.4-6.2-5c-2.7-1.8-5.1-3.9-7.5-6.1c-1.9-1.8-3.9-3.6-5.7-5.5
			c-1.9-2.1-3.1-4.8-5.2-6.8c-1.5-1.4-4.6-1-5,1.3c-0.1,0.9-0.1,1.8,0,2.6c-1.1,0.8-1.6,2.1-0.9,3.7c4.5,11.3,14,19.5,26.2,21.4
			C236.4,92.1,240.1,89,237.9,86.1z"/>
	</g>
	<g>
		<path class="st3" d="M172.8,137.2c9.7-9.7,21.4-17.1,33.1-24.4c5.3-3.3,10.7-6.4,16.4-9.1c0.1-0.1,0.3-0.1,0.4-0.2
			c7.6-3.5,16.4-3.6,24,0c0.7,0.3,1.3,0.7,1.8,1c1.8,1.2,4.2-0.8,3.7-2.8c-0.1-0.5-0.3-0.9-0.5-1.3c0-0.1,0.1-0.3,0.1-0.4
			c-0.1-2.6-2.3-4.3-4.1-6c-2.2-2.2-4.5-3.7-7-5.5c-1-0.8-2.6,0.9-1.6,1.9c0,0,0,0,0,0c-0.7,0.3-1.3,0.8-1.8,1.1
			c-0.6,0.4-1.2,0.9-1.6,1.5c-6.8-1.3-13.2-4-18.5-8.6c-5.2-4.5-9-10.4-11-17c0.5-0.3,0.9-0.7,1.2-1.1c0.6-0.9,1.1-1.9,1.6-2.8
			c0.2-0.5,0.5-1,0.7-1.5c0.3,0.1,0.7,0.3,1,0.4c0.9,0.2,1.5-0.6,1.4-1.4c-0.5-2.9-2.8-4.9-4.9-6.9c-1.6-1.6-3.2-2.8-5-4
			c-0.6-0.7-1.3-1.3-2.2-1.7c-1.9-0.8-3.9,0.2-4.1,2.4c-0.2,3,1.5,6.3,1.8,9.3c0.4,3.5,1,7,2.1,10.4c0.1,0.1,0.1,0.3,0.2,0.4
			c3,8.5,0.9,17.8-5.3,24.4c-1.3,1.4-2.6,2.8-3.8,4.2c-8.9,10.4-16.1,22.1-22.5,34.2C166.6,136.5,170.4,139.6,172.8,137.2z"/>
		<path class="st3" d="M164.3,141.9c-2.2,0.8-3.5,2.9-4.7,4.8c-1.2,1.9-2.3,3.9-2.2,6.2c0,1,1,2,2.1,1.6c2.2-0.9,3.5-2.4,4.8-4.2
			c1.3-1.8,3-3.9,2.9-6.2C167.1,142.8,165.8,141.4,164.3,141.9z"/>
		<path class="st3" d="M119.2,263.3c-3.9-1-6.8-1.3-10.3-3.7c-4.1-2.8-7.9-5.9-11.8-8.9c-3.8-2.8-7.5-5.6-11.3-8.4
			c-1.5-1.1-3.6-2.3-4.7-3.8c-1.3-1.7-1.2-4.1-1.9-6c-0.8-2.2-3.7-2.5-4.8-0.6c-2.4,4.3-0.9,9.2,2.8,12.6c4.5,4.2,10,7.8,15,11.5
			c4.8,3.7,9.5,7.7,14.6,10.9c4.1,2.6,9.2,4.5,13.6,2.5C123.1,268.2,121.8,264,119.2,263.3z"/>
	</g>
	<path class="st4" d="M241.7,28.3c0,0-0.1,0-0.1-0.1c0.2,0.5,0.6,0.9,1.2,1.1c0.1,0,0.1,0.1,0.2,0.1c0,0,0.1,0,0.1,0.1
		c0.2,0.1,0.5,0.2,0.7,0.2c0.1,0,0.3,0,0.4,0c4.5-0.3,8.3,0.3,12.3,2.5c4,2.2,7.3,6.6,12,7.1c1.7,0.2,2.8-1.7,2.4-3.2
		c-1.3-5.3-10.1-11.3-14.8-13.2c-4.7-1.9-8.7-0.7-13.5,1.3C241,24.9,240.9,26.9,241.7,28.3z"/>
	<g>
		<path class="st5" d="M160,194.4c1.4-0.3,2.6-1.3,2.6-3.2c-0.1-6.3,0.5-12.2,2.7-18.2c2.2-5.9,5.7-10.8,8.8-16.2
			c0.6-1,0.4-2-0.3-2.6c5.1-5.8,10.6-11.2,16.4-16.2c6.8-5.8,14.2-10.9,22-15.3c3.6-2.1,7.3-4,11-5.8c4.1-2,8.6-3.5,12.4-5.9
			c1.9-1.2,1.5-5.1-1.3-4.8c-6.3,0.8-12.5,4-18.2,6.7c-6.2,3-12.2,6.6-17.9,10.5c-11.5,7.9-22,17.2-31.1,27.8
			c-3.6,4.2-8.3,10.7-14.6,7.9c-2.8-1.3-5-3.8-6.7-6.3c-0.3-0.4-0.5-0.8-0.7-1.2c-1.4-3.1,0.8-6.5,4.2-6.8c0,0,0,0,0,0
			c3.7-0.3,7.2-2.1,9.3-5.2c1.9-2.7,2.6-6.4,1.1-9.5c0,0,0,0,0,0c-1.3-2.6-1-5.7,0.9-7.9c3.3-3.9,6.5-7.9,9.6-12
			c5.1-6.8,9.8-13.8,14.1-21.1c3.6-6.1,7.9-13.4,8.1-20.4c0-2-2.7-3.3-4.1-1.7c-5.1,5.6-7.8,13.7-11.6,20.3
			c-4,6.8-8.4,13.3-13.2,19.6c-4,5.3-8.3,10.2-12.7,15.2c-0.7-0.5-1.7-0.6-2.6,0.1c-2.7,2.2-6,3.4-8.7,5.7c0,0-0.1,0.1-0.1,0.1
			c-0.4,0.2-0.8,0.5-1.2,0.7c-3.1,1.8-6.3,3.4-9.7,4.6c-7.7,2.9-16,3.9-24.2,4.2c-1,0-1.8,0.4-2.3,1c-1.6-0.1-3.2-0.2-4.8-0.3
			c-2.5-0.1-5-0.2-7.5-0.3c-3.1-0.1-5.9,0.4-9,0.5c-2,0.1-2.9,2.6-1.8,3.9c-6.5,0-12.9,0.2-19.3,0.6c-8.1,0.5-16.1,1.5-24.1,3
			c-4,0.8-8.1,1.8-11.7,3.7c-0.3-1.7-1.7-3.2-3.7-3.2C8.8,146.4-2,158.7,3.8,170c0.5,1,1.4,1.5,2.4,1.7c0.5,1.5,1.3,3,2.6,4.4
			c0.9,0.9,2,0.8,2.8,0.3c0,0.1,0,0.2,0,0.4c0.8,6.4,4.1,15.6,10.1,18.7c2.3,1.2,4.6-0.8,4.2-3.2c-1.1-5.6-5.6-9.8-6.6-15.5
			c-0.9-5.6,0-12.5,3.8-16.9c4.2-5,11.5-5.9,17.6-7c6.7-1.1,13.5-1.9,20.3-2.3c13.8-0.8,27.7-0.4,41.5,0.5
			c13.2,0.9,27,2.6,36.5,12.7c10.7,11.4,13.2,27.8,16.1,42.5c0.6,3.2,5.9,2.6,5.7-0.7C160.8,201.8,160.5,198.1,160,194.4z"/>
		<path class="st5" d="M158.4,215.2c-0.7-1.9-3-1.8-3.8,0c-1.3,3.2-1.3,6.8-1.9,10.2c-0.5,3.1-1.2,6.2,0,9.2
			c0.5,1.2,2.1,1.1,2.9,0.4c2.6-2.3,2.9-6.1,3.2-9.4C159.3,222.3,159.6,218.6,158.4,215.2z"/>
		<path class="st5" d="M150.7,284.3c1.2-0.9,1.4-2.5,0.9-3.8c0.2-1.2,0.3-2.4,0.4-3.6c1.6-1.2,1.9-3.4,1.2-5c0.5-0.6,1-1.3,1.4-2
			c0.7-1.1,0.1-2.4-0.9-2.9c0.2-0.3,0.5-0.6,0.7-1c2.2-3.5,4.2-11.2-0.8-13.1c-0.7-0.2-1.4,0.1-1.9,0.5c-1.5,1.3-1.3,3.1-1.7,4.9
			c-0.4,1.9-1.2,3.7-2.6,5.1c-3.5,3.6-8.5,4.5-11.3,9.1c-2.2,3.5-2.6,9.3-7.5,10c-4.7,0.6-8.3-3.1-12.8-3.1c-1.1,0-2,1.1-1.7,2.2
			c1.7,5.2,8.6,8.4,13.8,8.3c0.3,0,0.7,0,1-0.1c-0.2,1.3,0.2,2.7,1.5,3.3c5.3,2.2,11.4,3.7,16-0.9
			C148.2,290.2,149.7,287.3,150.7,284.3z"/>
		<path class="st5" d="M197.4,9.6c6.2,6.5,13.8,11.7,20.6,17.6c6.8,5.9,13.5,12,20.1,18.3c6.4,6.1,12.6,12.3,18.7,18.6
			c3.1,3.3,6.2,6.6,9.3,9.9c3,3.3,5.8,7.1,9.8,9.4c2.8,1.6,5-1.5,4-4c-1.6-4-5-7.1-7.9-10.3c-3-3.3-6.1-6.6-9.3-9.9
			c-6.4-6.7-13-13.3-19.7-19.7c-6.6-6.2-13.2-12.3-20.1-18.2c-6.7-5.8-13.6-12.5-21.3-17.1C198.1,2.2,194.7,6.8,197.4,9.6z"/>
		<path class="st5" d="M291.1,89.6c-0.9-0.7-2-1.1-3.1-0.4c-0.1,0.1-0.2,0.1-0.3,0.2c-0.6-1.7-1.7-3.2-3.6-3.7
			c-1.1-0.3-2.4,0.2-2.9,1.2c-1.4,2.5,0,4.8-0.1,7.4c-0.2,3.1-1.7,6.2-4.3,8c-2.5,1.7-5.7,2.1-8.6,1.5c-2.4-0.5-4.7-2.1-7.2-1.6
			c-0.8,0.2-1.2,0.9-1.2,1.6c-0.4,3.7,4.2,6,7.5,6.8c0.1,0.7,0.6,1.4,1.5,1.9c7.6,3.8,15.8,1.7,22.2-3.4
			C297.6,103.9,298,94.9,291.1,89.6z"/>
	</g>
	<path class="st6" d="M98.2,160.7c-28.6-6.5-63.5,3.4-65.2,8.6c-1.6,5.2,7.6,25.4,42.6,60.5s50.6,40.6,56.5,36.3
		c5.9-4.3,11.9-47.6,7.4-63.7S116.3,164.8,98.2,160.7z"/>
	<path class="st7" d="M136.4,255.3c1.6-12.2,3.5-24.4,3.5-36.8c0-4.7,0.5-10.5-2.9-14.3c-3.4-3.7-9.1-3.5-12.4-7.1
		c-1-1.1-2.1-1.2-3.1-0.9c-1.5-1.8-4.8-1.9-5.7,1.1c-2.7,9.1-7.1,18.9-15.4,24.2c-3.5,2.3-7.6,3.7-11.8,3.9
		c-3.6,0.2-7.9-2.1-11.2-0.9c-1.2,0.4-2.2,1.7-1.8,3.1c0.9,2.9,3.8,4.3,6.8,5c-0.9,1.3-0.9,3,0.6,4.3c9.6,8.5,19.9,15.9,31.2,22
		c4.1,2.2,9.5,6.1,14.3,6C133.9,264.9,135.8,259.8,136.4,255.3z"/>
	<path class="st8" d="M139.8,199.6c0,0-9.5-15-20-26.5c-10.4-11.5-23.7-11.5-23.7-11.5c-1.6,7.9,5.7,17.6,14.9,26.8
		c9.2,9.2,22,21,29.2,17.3L139.8,199.6z"/>
	<path class="st8" d="M94.4,181.3c1.4-2.5-0.5-6.6-2.7-7.4c-6.3-2.4-15.2-0.4-21.4,1.1c-7.1,1.7-14.4,4.3-19.9,9.3
		c-3,2.7,6.5,12.9,10,12.3c6.5-1.2,13.3-5,19.5-7.3C84.4,187.5,91.6,186,94.4,181.3z"/>
	<g>
		<path class="st9" d="M240.3,91.3c0.8,0.6,1.7,1.1,2.6,1.7c1.3,0.8,2.9-0.8,2.1-2.1c-2.2-3.7-11.4-14.1-16.6-19.3
			c-5.2-5.2-15.7-14.4-19.3-16.6c-1.3-0.8-2.9,0.8-2.1,2.1c0.5,0.9,1.1,1.8,1.7,2.6c-7.9,6.2-1.5,17.2,6.5,25.1
			C223.2,92.8,234.1,99.2,240.3,91.3z M210.9,68.7c-0.2-1.7,0.3-3.3,0.8-4.9c1,1.2,7.5,8.1,12,12.6c4.5,4.5,11.3,11,12.6,12
			c-1.6,0.5-3.3,1-4.9,0.8c-5.3-0.5-8.1-3.9-12.3-8.1S211.4,73.9,210.9,68.7z"/>
		<path class="st9" d="M157.3,277.9c5.2-23.4,3.2-47.3,5.5-70.9c1.1-11.6,2.8-23.4,6.5-34.4c3.1-9.2,9.9-16.4,17-22.8
			c10.4-9.3,21.8-17.6,33.8-24.8c11.3-6.9,23.4-13,36.1-16.7c0.4,0.3,0.8,0.6,1.1,1c3.8,3.3,7.9,6.6,12.3,8.9
			c8.3,4.1,18.7-0.4,24.9-6.4c6.2-6.1,7.1-13.5,2.6-20.7c-5-8.2-11.8-15.4-18.2-22.5c-1.5-1.7-3.1-3.4-4.6-5c4.9-4.7,9.6-9.8,9-17.1
			c-0.5-7.2-5.3-11.8-11.5-18.1c-6.3-6.3-10.8-11-18.1-11.5c-7.3-0.5-12.4,4.2-17.1,9c-1.7-1.6-3.3-3.1-5-4.6
			c-7.1-6.4-14.3-13.2-22.5-18.2c-7.3-4.5-14.7-3.6-20.7,2.6c-6,6.2-10.5,16.6-6.4,24.9c2.2,4.5,5.6,8.6,8.9,12.3
			c0.3,0.4,0.6,0.7,1,1.1c-3.7,12.8-9.9,24.8-16.7,36.1c-7.2,11.9-15.5,23.4-24.8,33.8c-6.4,7.1-13.6,13.9-22.8,17
			c-11,3.7-22.9,5.4-34.4,6.5c-23.6,2.2-47.6,0.3-70.9,5.5c-6.8,1.5-16.2,3.9-20.2,10.2c-4.3,6.7-0.5,15.9,2.6,22.3
			C10,186.8,18,197.3,26,207.3c9.8,12.3,19.4,22.9,31.6,35.1s22.8,21.8,35.1,31.6c10,8,20.5,16,32.1,21.5c6.4,3.1,15.5,6.9,22.3,2.6
			C153.4,294.1,155.8,284.6,157.3,277.9z M253.6,23.9c5.3,0.6,8.9,5.1,13.2,9.3s8.7,7.9,9.3,13.2c0.6,5-2.8,8.9-6.4,12
			c-4.6-4.8-8.8-9.1-13.9-14.2s-9.4-9.4-14.2-13.9C244.7,26.7,248.7,23.3,253.6,23.9z M142.8,292.1c-2.1,1.1-5.6,0.2-8.1-0.5
			c-12.1-3.7-23.2-12.3-33.1-19.9c-13.7-10.6-25.7-21.5-38.8-34.6c-13.1-13.1-23.9-25.1-34.6-38.8c-7.6-9.9-16.2-20.9-19.9-33.1
			c-0.8-2.5-1.6-6-0.5-8.1c1-2,4.4-3.7,6.7-4.7c8.5-3.6,18.3-4.6,27.5-5.5c12.1-1.2,24.3-2,36.4-3.3c11.9-1.3,24-2.2,35.8-4.3
			c9.4-1.7,18.9-4.1,26.9-9.5c8.8-6,16.9-13.9,23.5-22.1c13.7-17.1,26.5-37,33.1-58.1c1.4,1.1,3,1.8,4.6,2c0.7,0.1,1.4-0.7,1.4-1.4
			c-0.5-4.6-5.3-8.9-8-12.3c-2.7-3.5-6.4-7.4-7.9-11.7c-2.3-6.7,3.7-16.7,9.9-19.2c5.3-2.2,11.2,3.6,15,6.6
			c13.7,10.7,26,23.2,38.3,35.4c12.2,12.3,24.7,24.6,35.4,38.3c3,3.8,8.7,9.8,6.6,15c-2.6,6.3-12.5,12.3-19.2,9.9
			c-4.3-1.5-8.2-5.2-11.7-7.9c-3.5-2.7-7.7-7.5-12.3-8c-0.7-0.1-1.4,0.7-1.4,1.4c0.2,1.7,1,3.2,2,4.6c-21.2,6.5-41.1,19.4-58.1,33.1
			c-8.3,6.6-16.1,14.7-22.1,23.5c-5.5,8-7.9,17.4-9.5,26.9c-2.1,11.8-3,23.9-4.3,35.8c-1.3,12.1-2.1,24.2-3.3,36.4
			c-0.9,9.1-1.9,19-5.5,27.5C146.5,287.8,144.8,291.1,142.8,292.1z"/>
		<path class="st9" d="M145,217.7c0.1-6.3,0.2-13-2.1-18.9c-3.5-9.5-9.8-16.1-17.6-24c-7.9-7.9-14.5-14.1-24-17.6
			c-6-2.2-12.6-2.1-18.9-2.1c-13.2,0.1-26.4,1.5-39.2,5c-4.1,1.1-8.8,2.7-11.6,6c-2.4,2.8-2.5,7.2-1.8,10.6c1,4.8,4.1,9.4,6.8,13.4
			c3.5,5.1,7.3,10,11.3,14.7c4,4.7,8.2,9.4,12.6,13.8c3.4,3.5,5.6,6.1,10.2,10.8s7.3,6.8,10.8,10.2c4.5,4.3,9.1,8.5,13.8,12.6
			c4.7,4,9.5,7.9,14.7,11.3c4,2.7,8.6,5.8,13.4,6.8c3.5,0.7,7.8,0.5,10.6-1.8c3.3-2.8,4.9-7.6,6-11.6
			C143.5,244,144.8,230.9,145,217.7z M125.2,263.4c-9.3-3.7-17.3-10-24.8-16.4c-4.7-4-9.3-8.3-13.8-12.5c-3.5-3.3-6.8-6.4-10.7-10.3
			c-3.9-3.9-7-7.1-10.3-10.7c-4.3-4.5-8.5-9.1-12.5-13.8c-6.5-7.6-12.8-15.5-16.4-24.8c-1-2.4-1.4-4.1,0.7-5.7
			c3.6-2.7,8.7-3.6,13-4.5c5.9-1.2,12.2-1.2,18.1-1.7c5.7-0.4,11.4-0.6,17.1-0.6c5.4,0,10.7,0.2,15.7,2.5c7.4,3.4,12.8,8.7,19,15
			c6.2,6.2,11.6,11.6,15,19c2.3,5,2.5,10.3,2.5,15.7c0,5.7-0.2,11.4-0.6,17.1c-0.4,6-0.5,12.3-1.7,18.1c-0.9,4.3-1.8,9.4-4.5,13
			C129.3,264.9,127.6,264.4,125.2,263.4z"/>
	</g>
</g>
</svg>
