<?xml version="1.0" encoding="utf-8"?>
<!-- Generator: Adobe Illustrator 27.6.1, SVG Export Plug-In . SVG Version: 6.00 Build 0)  -->
<svg version="1.1" id="Layer_1" xmlns="http://www.w3.org/2000/svg" xmlns:xlink="http://www.w3.org/1999/xlink" x="0px" y="0px"
	 viewBox="0 0 300 300" style="enable-background:new 0 0 300 300;" xml:space="preserve">
<style type="text/css">
	.st0{fill:#BAD2E6;}
	.st1{fill:#6795B8;}
	.st2{fill:#FFFFFF;}
	.st3{fill:#8C572F;}
	.st4{fill:#D5B381;}
	.st5{fill:#592710;}
	.st6{fill:#CC0000;}
	.st7{fill:#870000;}
	.st8{fill:#FF5252;}
	.st9{fill:#04070F;}
</style>
<g>
	<path class="st0" d="M205.4,16.1c58,52.3,92.4,86.7,90.2,99s-20.4,19.3-27.3,16.6c-6.9-2.6-19.2-12.7-19.2-12.7s-38.4,7-49.5,40.6
		s16.8,61.6-7.6,101.6s-78.8,41.8-109,15.5c0,0-49.1-33.8-64.9-64.9s-26.3-68.9,24.4-106.2c0,0,21.6-12.6,49.3-6.2s42,6.7,55.7-2
		s30.5-31.6,33.6-45.9c0,0-14.8-16.5-13.2-25.5s9.2-23.5,20.3-22L205.4,16.1z"/>
	<g>
		<path class="st1" d="M176.3,132.4c4.1,15.3,21.4,0.2,28.1-4.1c11.9-7.7,25.4-12.4,39.2-7c3.4,1.3,5.3-4,2.3-5.8
			c-0.5-0.3-0.9-0.5-1.4-0.8c-1.6-2-3.9-3.5-5.8-5.2c-2.6-2.3-5.1-4.7-7.7-6.9c-0.9-0.8-2.4,0-2.3,1.1c-0.3,0.1-0.7,0.3-0.9,0.5
			c-1.1-0.2-2.2,0.3-2.8,1.2c-0.4-0.1-0.8-0.3-1.2-0.4c-1.1-0.4-2.1,0-2.7,0.7c-1.1-0.4-2.2-0.7-3.3-1.1c-0.3-0.1-0.5-0.1-0.7-0.1
			c-8.1-5.2-17.2-11.5-20.2-21c-0.7-2.2-2.5-2.9-4.1-2.5c0-0.8-0.1-1.6-0.2-2.4c1.1-0.3,2-1.2,2.2-2.7c0.1-1.5,0-3-0.4-4.3
			c2.2,1.6,5.3-1.7,3.2-3.9c-3.4-3.7-7.2-9-11.8-11.4c-2.5-3.9-8.8-0.1-6.5,4c6.4,11.4,8.8,24.9,5.3,37.7
			C181.6,108.9,173.1,120.5,176.3,132.4z"/>
		<path class="st1" d="M175.5,238.5c2.2-3.7,4.3-6.8,5.1-11.1c0.8-4.1,0.7-8.3,0-12.4c-0.8-4.7-2.5-9.2-4.2-13.6
			c-1.3-3.4-2.4-7.6-5.7-9.7c-3-2-6.5-1.6-9.8-2.3c-4.7-1-8.5-4.4-11.9-7.6c-6.9-6.6-14.9-15.1-24.2-18.2c-1.9-0.6-4,1.9-2.8,3.6
			c4.8,6.9,12.5,12,18.6,17.7c1.4,1.3,2.8,2.7,4.2,4c-0.3,0.4-0.4,0.8-0.5,1.3c-0.2,2.8,2.2,4.9,4.2,6.6c0.7,0.6,1.4,1.2,2.2,1.8
			c5.8,7,10.9,14.5,17,21.3c1.5,4,3.2,8,5.8,11.1c0.3,0.4,0.8,0.6,1.3,0.6c-0.2,2-0.6,3.9-1.4,5.6
			C172.6,238.7,174.6,239.9,175.5,238.5z"/>
		<path class="st1" d="M120.1,275.2c-4.3-4.2-10.7-5.4-16.1-7.9c-6-2.7-11.9-6-17.4-9.7c-5.4-3.7-10.3-7.9-14.9-12.5
			c-3.8-3.7-8-10.8-13.3-12.1c-1.4-0.4-2.5,0.7-2.6,2c-0.5,5.9,6.7,12.7,10.4,16.6c4.7,4.9,10,9.2,15.5,13.1c5.7,4,11.7,7.3,18,10
			c5.9,2.5,13,5.9,19.4,3.9C120.6,278.2,121.2,276.3,120.1,275.2z"/>
		<path class="st1" d="M239.9,91.6c2,5.2,7,9,11.2,12.5c3.9,3.3,9.1,8.6,14.2,9.4c2.9,0.4,5.9-2.4,4.1-5.4c-2.7-4.4-8.3-7-12.2-10.2
			c-3.9-3.2-7.7-8.2-12.4-10.1C242.6,86.8,238.8,88.5,239.9,91.6z"/>
	</g>
	<g>
		<path class="st2" d="M196.8,243.8c2.2-7.9,3.5-16,4-24.2c0.4-3.2,0.4-6.3,0.2-9.4c-0.1-4.1-0.3-8.2-0.8-12.3
			c-0.2-2.1-1.6-3.4-3.2-3.9c-1-6.6-1.9-13.3-2.4-20c-0.1-1.2-0.6-2.2-1.3-2.9c0.5-1.2,1.1-2.5,1.9-3.7c0.8-1.3,0.8-2.7,0.2-3.9
			c0.8-1,1.7-2,2.6-3.1c1.6-2,0.8-5.4-1.6-6c3.3-2.8,6.6-5.6,9.5-9.2c4.9-6.2,9.2-10.7,16.6-13.9c2.1-0.9,1.6-4.7-0.7-5
			c-13.6-2.2-20.7,13.8-29.4,21.1c-4.9,4.1-10.6,7.4-13.8,13.2c-2.4,4.5-2.9,9.5-2.1,14.4c1,5.9,3.8,11.3,5.8,16.8
			c2.4,6.6,4.3,13.4,5.4,20.3c2.2,12.9,1.3,26.8-4.4,38.8c-3.3,7-8,12.9-14,17.7c-6.9,5.7-15.4,9-22.4,14.5
			c-2.9,2.3,0.2,7.2,3.6,6.2c6.9-2.1,13.5-6.3,19.4-10.4c0.3-0.2,0.5-0.4,0.8-0.6c0.2,0,0.4,0,0.6,0
			C186.1,276.6,193.3,256.2,196.8,243.8z"/>
		<path class="st2" d="M167.5,113.4c0.1-5-1.5-10.2,0.3-15c3.3-8.7,12.2-14.2,11.9-24.3c-0.1-2.9-4.7-4.8-6-1.6
			c-3.2,7.8-9.6,13.4-13.2,21c0,0,0,0,0,0c-1.3-3-6.9-3.4-8.5,0.6c-1.3,3.7-3.6,6.4-6.3,8.2c-9.7,2-19.6,2.4-29.4,1.1
			c-1.3-0.2-2.4,0.1-3.3,0.7c-2.8-1.4-5.8-2.3-9.4-2.6c-1.8-0.2-2.7,0.9-3,2.2c-28.4-10.3-61.8,0.8-79.5,26.6
			c-5.6,8.1-9.4,17.6-11.4,27.3c-1,4.8-1.5,9.8-1.5,14.7c-0.1,5.1-0.2,10.8,2.9,15c1.5,2,4.6,1.9,5.4-0.7c1.3-4.3,0.4-8.5,0.4-13
			c0-4.6,0.4-9.3,1.3-13.8c1.7-8.8,5.1-17.2,10.1-24.6c10.4-15.4,28.4-26.1,47.1-26.8c9-0.3,18.2,1.4,26.3,5.2
			c8.4,3.9,14.7,9.6,20.8,16.5c5.7,6.5,12.5,12.4,21.7,11.3c8.3-1,15.4-6.9,19.4-14.1C166,123.2,167.3,118.4,167.5,113.4z"/>
		<path class="st2" d="M168.6,149.5c-0.2-2.2-1.7-4.2-3.8-4.9c-0.5-0.2-1-0.3-1.5-0.3c-1.3-0.3-2.7,0.1-3.9,0.5
			c-2,0.8-4.1,2-5.2,3.7c-1.2,1.9-1.2,4.1,0,6c1.3,2,3.7,2.9,6,2.8C164.5,157.3,169.1,154.4,168.6,149.5z"/>
		<path class="st2" d="M110.8,135.1c-4.2-2.3-10-2.8-14.6-3.5c-4.9-0.7-10.6-2.1-15.2,0.1c-1.7,0.8-1.2,3,0,3.9
			c1.9,1.4,4.2,2.2,6.8,2.7c-0.4,1.1-0.2,2.4,0.9,3.3c5,4.1,9.9,7.8,13.8,13c1.1,1.5,3.3,2.7,5.1,1.4c3.7-2.7,7.2-5.9,8.1-10.6
			C116.4,141.2,114.6,137.2,110.8,135.1z"/>
		<path class="st2" d="M180.7,9.6c2.6,3.6,6.3,5.6,9.9,8c4.4,2.9,8.6,6.1,12.6,9.5c7.8,6.7,15.2,14,22.7,21.1
			c7.5,7.2,14.8,14.5,22.1,21.8c7.2,7.2,14.1,17,23.6,21.1c1.5,0.7,3.9-0.5,3.2-2.5c-3.5-9.6-12.4-16.5-19.5-23.6
			c-7.9-8-15.9-15.9-24-23.7c-7.6-7.3-15.2-14.8-23.3-21.6c-6.6-5.5-16.1-14.7-25.3-13.9C181.2,6,179.5,7.9,180.7,9.6z"/>
		<path class="st2" d="M281,103.9c2.5,3.8,3.9,8,1.9,12.3c-1.7,3.8-5.3,6.2-9.4,6.6c-3.7,0.4-7.5-1.9-11.2-0.7
			c-1.4,0.5-2.2,1.8-1.9,3.2c1.4,6,9.8,6.7,14.7,6c6.1-0.8,11.5-4.3,14.6-9.7c3.2-5.3,3.5-11.7,1.2-17.4c-1.8-4.6-6.2-12.6-12-11.6
			c-0.9,0.2-1.5,1-1.8,1.8C275.9,98.3,279.2,101.1,281,103.9z"/>
	</g>
	<g>
		<path class="st3" d="M273.6,61c1.5-4.5,1.4-9.6-0.2-14.1c-2.3-6.4-7.4-11.4-12.4-16.1c-4.3-4-9.1-8.3-15-8.2
			c-5.7,0.1-10.4,4.2-14.5,8.1l-2.2,6.3c12,11.7,23.9,23.5,35.9,35.2C269.2,69.6,272.2,65.6,273.6,61z"/>
		<path class="st3" d="M230,99.7l-31-30c-2.9,0.7-4.9,3.4-5.3,6.3c-0.4,2.9,0.6,5.9,2.3,8.3c1.6,2.4,3.8,4.5,6,6.5
			c4.6,4.3,9.3,8.6,13.9,12.8c1.8,1.7,3.9,3.4,6.3,3.5c1.9,0,3.7-1.1,5-2.5C228.4,103.2,229.2,101.5,230,99.7z"/>
	</g>
	<path class="st4" d="M266.3,41.8c-1.5-6-11.5-12.9-16.8-15.1c-5.4-2.2-9.9-0.8-15.3,1.4c-1.9,0.8-2.1,3.1-1.1,4.7
		c0,0-0.1-0.1-0.1-0.1c0.2,0.5,0.7,1,1.3,1.3c0.1,0,0.1,0.1,0.2,0.1c0,0,0.1,0,0.1,0.1c0.3,0.1,0.5,0.2,0.8,0.2c0.2,0,0.3,0,0.5,0
		c5.1-0.3,9.5,0.3,14,2.8c4.6,2.6,8.3,7.5,13.7,8.1C265.4,45.6,266.7,43.5,266.3,41.8z"/>
	<g>
		<path class="st5" d="M270.8,65.6c1.2-1.4,1.3-3,0.8-4.4c1.4-1.3,1.9-3.2,0.7-5.4c-0.5-0.9-1.6-1.1-2.5-0.7c-2.4,1.2-3.7,1.9-6-0.1
			c-2.1-1.8-3.1-4.3-5.6-5.7c-3.7-2-10.4-1.4-11.9,3c-0.5,1.3,0.4,2.6,1.4,3.3c0.9,0.6,1.8,0.7,2.7,0.7
			C254.8,62.6,262.9,74.9,270.8,65.6z"/>
		<path class="st5" d="M228.7,98.7c-2-2.7-4.3-3.9-7.1-5.8c-3.1-2-5.8-4.5-8.6-7c-2.2-2-4.4-4.1-6.5-6.3c-2.2-2.4-3.5-5.5-5.9-7.7
			c-1.7-1.6-5.3-1.2-5.7,1.5c-0.1,1-0.1,2,0,3c-1.2,0.9-1.8,2.4-1.1,4.2c5.2,12.9,15.9,22.2,29.8,24.4
			C226.9,105.6,231.2,102,228.7,98.7z"/>
	</g>
	<path class="st6" d="M56.5,123.8c23.3-0.9,88.2,67,102.5,86c14.4,19,18.6,29.8,16.2,36.2c-2.4,6.4-33.5,32.2-50,30.2
		c-16.5-2-78.5-49.9-92.7-83c0,0-12.8-14.1-7.5-28.6S44.8,128.4,56.5,123.8z"/>
	<path class="st7" d="M170.7,247.4c0.5-1.2,0.3-2.7-1.2-3.6c-12-7-23.8-14.4-35.3-22.3c-0.6-0.4-1.3-0.5-2-0.3
		c-1.1-1.8-3.4-3-5.3-1.6c-2.4,1.8-4,4.1-6.2,6.1c-2.5,2.2-5.5,3.9-8.6,5.1c-5.3,2.1-11,2.7-16.6,2.7c-5.6,0-11.3-0.6-16.7-2.1
		c-5-1.3-10-5.1-15.2-5.2c-1.6,0-3.3,1.8-2.6,3.4c1.2,3.2,3.9,5.4,7,7c-0.3,1-0.2,2.2,0.6,3c7.2,7.9,17.7,13.4,26.6,19.1
		c4.6,2.9,9.2,5.8,13.8,8.8c3.8,2.5,7.7,5,12.1,6.2c8,2.3,16-0.6,23.1-4.3c9.6-5,18.1-11.5,25.7-19.3
		C170.6,249.4,170.9,248.3,170.7,247.4z"/>
	<g>
		<path class="st8" d="M174.1,239.9c-0.3-0.2-0.6-0.3-0.9-0.5c1.4-6.6-5.4-14.4-8.9-19.5c-4.8-6.9-9.9-13.6-15.3-20
			c-10.9-12.9-22.9-24.9-35.2-36.5c-0.9-0.8-2-1.3-3.2-1.3c-13-13.5-27.6-25.3-43.6-35.2c-0.9-0.6-1.9-0.7-2.8-0.5
			c-1.1-1.1-2.3-2.2-3.5-3.1c-1.2-0.9-2.8-0.4-3.8,0.6c-2.5-1.3-5.7,0.9-5.2,4.2c0.9,6.7,5.4,13.6,9,19.2c3.6,5.6,7.7,10.9,12,16
			c9.1,10.7,19.3,20.6,29.3,30.5c20.6,20.3,42.2,40.1,67.9,53.8C174.8,250.2,179.1,242.6,174.1,239.9z"/>
		<path class="st8" d="M69.8,176.5c2.9-5.5-9.6-19.7-15.1-17.7c-3.1,1.1-5,5.3-7,7.9c-1.9,2.4-3.8,4.7-5.1,7.5
			c-2.9,6-1.9,12.1,1.5,17.6c2.7,4.3,7.6,10.9,13,5.4c2.4-2.5,4-6.1,5.7-9C65.2,184.2,67.7,180.4,69.8,176.5z"/>
	</g>
	<g>
		<path class="st9" d="M206.2,235.3c2.6-19.9-4.8-38.7-5.7-58.3c-0.7-13.8,5.2-25.1,15.1-34.5c9.8-9.3,21.2-14.5,33.4-19.4
			c0.7,0.6,1.4,1.1,2,1.7c4.3,3.7,9,7.6,14.1,10.1c9.5,4.7,21.4-0.4,28.4-7.3c7.1-6.9,8.1-15.4,3-23.6c-5.7-9.3-13.5-17.5-20.8-25.6
			c-1.7-1.9-3.5-3.8-5.3-5.7c5.6-5.4,10.9-11.1,10.3-19.5c-0.6-8.3-6.3-13.7-13.1-20.6s-12.3-12.6-20.6-13.1
			c-8.3-0.6-14.1,4.7-19.5,10.3c-1.9-1.8-3.8-3.5-5.7-5.3c-8.1-7.3-16.3-15-25.6-20.8c-8.3-5.1-16.7-4.1-23.6,3
			c-6.9,7-12,18.9-7.3,28.4c2.5,5.1,6.4,9.8,10.1,14.1c0.5,0.6,1.1,1.3,1.7,2c-4.9,12.3-10.1,23.7-19.4,33.4
			c-9.4,9.9-20.7,15.8-34.5,15.1c-19.7-1-38.4-8.3-58.3-5.7c-23.5,3.1-43.2,20.3-54.6,40.5c-24.4,43.3,4.9,86.2,37.2,118.4
			c32.2,32.2,75.2,61.6,118.4,37.2C185.9,278.5,203.1,258.8,206.2,235.3z M246.7,27.7c6,0.7,10.2,5.8,15,10.6c4.8,4.8,9.9,9,10.6,15
			c0.7,5.6-3.2,10.1-7.2,13.7c-5.2-5.5-10-10.3-15.9-16.2c-5.9-5.9-10.7-10.7-16.2-15.9C236.5,30.9,241.1,27,246.7,27.7z M174,273.9
			c-15.3,13.1-34.6,19.6-54.5,15.3c-26-5.5-46.9-23-66.3-42.3s-36.8-40.3-42.3-66.3c-4.2-19.9,2.2-39.2,15.3-54.5
			c7.9-9.2,17.4-17.5,29.1-21.4c9.5-3.2,19.5-3.5,29.4-2.4c18.6,2.1,39,10.2,57.4,3.1c11.8-4.5,21.3-13.5,28.7-23.6
			c5.1-6.9,10.5-15.7,12.5-24.6c1.6,1.1,3.3,2,5.1,2.2c0.8,0.1,1.6-0.8,1.5-1.5c-0.6-5.3-6-10.1-9.1-14.1c-3.1-4-7.3-8.4-9-13.3
			c-2.7-7.7,4.2-19,11.3-21.9c6-2.5,12.8,4.1,17.1,7.5c15.6,12.2,29,25.7,43.6,40.3c14.6,14.6,28.2,28,40.3,43.6
			c3.4,4.3,9.9,11.1,7.5,17.1c-2.9,7.1-14.3,14-21.9,11.3c-4.9-1.7-9.3-5.9-13.3-9c-4-3.1-8.8-8.5-14.1-9.1
			c-0.8-0.1-1.6,0.8-1.5,1.5c0.2,1.8,1,3.5,2.2,5.1c-8.9,1.9-17.7,7.3-24.6,12.5c-10.1,7.4-19.1,16.9-23.6,28.7
			c-7.1,18.4,1.1,38.8,3.1,57.4c1.1,9.9,0.8,19.9-2.4,29.4C191.5,256.4,183.2,266,174,273.9z"/>
		<path class="st9" d="M177.2,233.5c-3.2-6.5-7.3-12.6-11.6-18.5c-2.9-4-6.1-7.9-9-11.9c-2.9-4.2-5.6-8.4-9-12.3
			c-5.9-6.8-11.3-12.4-18.7-19.7c-7.3-7.3-12.9-12.8-19.7-18.7c-3.9-3.3-8.1-6.1-12.3-9c-4.1-2.8-7.9-6.1-11.9-9
			c-5.9-4.3-12-8.4-18.5-11.6c-4.7-2.3-9.4-3.2-14.3-1c-6.2,2.8-11.4,8.1-15.7,13.4c-2.7,3.3-5.2,6.8-7.3,10.4
			c-2.1,3.6-3.2,7.7-4.6,11.6c-2.2,6.2-4.5,13.4-3.2,20.1c1.2,6.4,4.7,12.8,7.6,18.6c4.1,8.3,9.9,15.9,15.6,23.2
			c5.2,6.8,9.6,12.4,16.8,19.6c7.2,7.2,12.8,11.5,19.6,16.8c7.3,5.6,14.9,11.5,23.2,15.6c5.8,2.9,12.2,6.3,18.6,7.6
			c6.7,1.3,13.8-1.1,20.1-3.2c3.9-1.4,8-2.5,11.6-4.6c3.6-2.1,7.1-4.7,10.4-7.3c5.3-4.2,10.6-9.4,13.4-15.7
			C180.4,243,179.5,238.2,177.2,233.5z M163.2,253.9c-5.5,4.9-11.8,8.4-17.6,12.8c-5.4,4.2-13,7.3-19.9,6.7
			c-5.6-0.4-10.8-4.1-15.4-7.2c-15-10.1-29.2-19.6-43.1-33.5c-13.9-13.9-23.4-28-33.5-43.1c-3.1-4.5-6.8-9.7-7.2-15.4
			c-0.5-7,2.6-14.5,6.7-19.9c4.5-5.8,7.9-12.2,12.8-17.6c2.9-3.2,7.2-8.8,11.9-9.4c4.4-0.6,9.9,2.6,13.6,4.7
			c6.4,3.7,12.4,8.2,18,12.9c6.4,5.3,11.9,11.7,18.1,17.3c5.3,4.8,9,8.2,15.5,14.6c6.4,6.4,9.9,10.2,14.6,15.5
			c5.6,6.1,11.9,11.7,17.3,18.1c4.7,5.6,9.2,11.7,12.9,18c2.1,3.6,5.2,9.1,4.7,13.6C172,246.7,166.5,251,163.2,253.9z"/>
		<path class="st9" d="M193.6,65.5c0.6,1,1.3,2,1.9,3c-9,7.1,0.3,23.1,7.4,28.7c5.6,7.1,21.5,16.4,28.7,7.4c1,0.6,1.9,1.3,3,1.9
			c1.5,0.9,3.3-0.9,2.4-2.4c-2.8-4.6-14.1-17.8-18.6-22.3c-4.5-4.5-17.7-15.8-22.3-18.6C194.5,62.2,192.7,64,193.6,65.5z
			 M212.2,87.8c4.3,4.3,13.1,12,14.7,13.3c-1.8,0.6-3.7,1.1-5.6,0.9c-6-0.6-9.7-5.7-14.1-9.2c-3.5-4.4-8.7-8.1-9.2-14.1
			c-0.2-1.9,0.3-3.8,0.9-5.6C200.3,74.6,208,83.5,212.2,87.8z"/>
	</g>
</g>
</svg>
